<svg xmlns="http://www.w3.org/2000/svg" version="1.1" xmlns:xlink="http://www.w3.org/1999/xlink" width="512" height="512" x="0" y="0" viewBox="0 0 512.629 512.629" style="enable-background:new 0 0 512 512" xml:space="preserve"><g><path d="M237.396 89.553a7.5 7.5 0 0 0 7.5-7.5V64.652c0-9.385-15-9.813-15 0v17.401a7.5 7.5 0 0 0 7.5 7.5zM153.159 106.648c4.692 8.135 17.895 1.002 12.993-7.495l-8.693-15.07c-4.69-8.13-17.897-1.005-12.993 7.495zM106.498 153.361l-15.058-8.7c-8.126-4.695-16.001 8.079-7.504 12.988l15.058 8.7c8.12 4.691 16.006-8.076 7.504-12.988zM89.416 237.657a7.5 7.5 0 0 0-7.5-7.5H64.529c-9.385 0-9.813 15 0 15h17.387a7.5 7.5 0 0 0 7.5-7.5zM98.994 308.965l-15.058 8.7c-8.13 4.697-.987 17.894 7.504 12.988l15.058-8.7c8.127-4.695.994-17.896-7.504-12.988zM163.403 365.918a7.5 7.5 0 0 0-10.244 2.749l-8.693 15.069c-4.688 8.126 8.085 16.006 12.993 7.495l8.693-15.069a7.5 7.5 0 0 0-2.749-10.244zM410.264 230.157h-17.387c-9.386 0-9.813 15 0 15h17.387c9.385 0 9.813-15 0-15zM393.598 147.403a7.5 7.5 0 0 0-10.246-2.742l-15.058 8.7c-8.13 4.697-.987 17.894 7.504 12.988l15.058-8.7a7.5 7.5 0 0 0 2.742-10.246zM327.578 81.334a7.498 7.498 0 0 0-10.244 2.749l-8.693 15.07c-4.689 8.126 8.084 16.006 12.992 7.495l8.693-15.07a7.5 7.5 0 0 0-2.748-10.244zM259.711 207.775v-83.977c0-12.304-10.01-22.314-22.315-22.314-12.304 0-22.314 10.01-22.314 22.314v83.976a37.625 37.625 0 0 0-7.56 7.568h-63.65c-12.305 0-22.315 10.01-22.315 22.315 0 12.304 10.01 22.314 22.315 22.314h63.65c6.807 9.102 17.665 15.003 29.874 15.003 35.957-.222 50.698-45.921 22.315-67.199zm-58.885 37.197h-56.954c-9.684-.344-9.676-14.288 0-14.629h56.954c-.96 4.704-.96 9.924 0 14.629zm29.256-121.174c.342-9.676 14.286-9.683 14.629 0v77.266a37.4 37.4 0 0 0-14.629 0zm7.314 136.177c-12.293 0-22.294-10.012-22.294-22.317 1.225-29.608 43.368-29.599 44.588 0 0 12.305-10.001 22.317-22.294 22.317z" fill="#000000" opacity="1" data-original="#000000"></path><path d="m495.527 377.955-49.096-28.368C560.026 127.005 309.005-96.11 101.655 43.207a7.5 7.5 0 0 0 8.619 12.277C304.258-74.987 539.338 133.96 433.435 342.079l-13.102-7.57c73.23-135.516-28.714-305.278-182.94-303.938-114.1-.001-206.929 92.898-206.929 207.088-1.856 102.432 81.384 195.82 183.136 205.72v15.146C29.056 438.733-51.035 211.769 80.431 80.589a7.5 7.5 0 0 0-.004-10.606 7.5 7.5 0 0 0-10.606.004C-71.096 210.672 15.778 453.738 213.602 473.604v5.071c0 25.456 28.413 42.164 50.723 29.273l56.831-32.837c-.426 26.21 25.812 47.23 50.723 32.838l68.701-39.697c8.127-4.695.993-17.897-7.504-12.988l-68.701 39.696c-12.292 7.102-28.219-2.188-28.219-16.285v-12.232l51.818-29.941c22.45-12.971 21.657-45.393 0-58.546l-51.818-29.941v-12.231c0-14.107 15.928-23.387 28.219-16.285l123.649 71.445c12.274 7.093 12.281 25.475 0 32.571L466.7 435.837c-8.13 4.697-.986 17.895 7.504 12.987l21.324-12.321c22.148-12.798 22.146-45.751-.001-58.548zM380.47 390.943c12.238 7.14 12.343 25.438 0 32.571L256.82 494.96c-12.291 7.103-28.218-2.189-28.218-16.285V335.782c0-14.107 15.927-23.387 28.218-16.285zm-8.592-84.434c-24.182-13.975-51.805 6.59-50.723 32.837l-56.831-32.838c-22.244-12.853-50.723 3.706-50.723 29.273v92.495c-93.624-9.991-169.845-96.238-168.135-190.621-.001-105.916 86.099-192.087 191.93-192.087 142.785-1.234 237.398 155.754 169.935 281.426z" fill="#000000" opacity="1" data-original="#000000"></path></g></svg>