<svg xmlns="http://www.w3.org/2000/svg" version="1.1" xmlns:xlink="http://www.w3.org/1999/xlink" width="512" height="512" x="0" y="0" viewBox="0 0 512 512" style="enable-background:new 0 0 512 512" xml:space="preserve"><g><path d="M119.542 267.2H98.029c-13.724 0-24.89-11.095-24.89-24.732 0-4.143-3.357-7.5-7.5-7.5a7.499 7.499 0 0 0-7.5 7.5c0 21.908 17.895 39.732 39.891 39.732h21.512c4.143 0 7.5-3.357 7.5-7.5s-3.357-7.5-7.5-7.5zM190.017 322.708h-64.072c-21.162 0-38.379 17.147-38.379 38.226 0 4.143 3.357 7.5 7.5 7.5s7.5-3.358 7.5-7.5c0-12.807 10.487-23.226 23.379-23.226h64.072c4.143 0 7.5-3.357 7.5-7.5s-3.357-7.5-7.5-7.5zM251.127 322.708h-31.109c-4.143 0-7.5 3.357-7.5 7.5s3.357 7.5 7.5 7.5h31.109c4.143 0 7.5-3.357 7.5-7.5s-3.358-7.5-7.5-7.5zM198.392 176.977a7.5 7.5 0 0 0-7.5 7.5c0 21.446-17.55 38.893-39.122 38.893-4.143 0-7.5 3.357-7.5 7.5s3.357 7.5 7.5 7.5c29.843 0 54.122-24.176 54.122-53.893a7.5 7.5 0 0 0-7.5-7.5zM184.567 63.596c-17.916-1.15-33.45 12.433-34.612 30.289a7.501 7.501 0 0 0 14.969.975c.624-9.608 9.004-16.905 18.679-16.295 4.137.277 7.7-2.868 7.966-7.002a7.5 7.5 0 0 0-7.002-7.967zM159.344 356.104c-4.143 0-7.5 3.357-7.5 7.5s3.357 7.5 7.5 7.5c12.385 0 22.461 10.009 22.461 22.311 0 12.305-10.076 22.314-22.461 22.314-4.143 0-7.5 3.357-7.5 7.5s3.357 7.5 7.5 7.5c20.656 0 37.461-16.738 37.461-37.314 0-20.573-16.805-37.311-37.461-37.311zM236.1 179.493c-4.143 0-7.5 3.357-7.5 7.5s3.357 7.5 7.5 7.5c9.949 0 18.044 8.037 18.044 17.917 0 9.881-8.095 17.919-18.044 17.919-4.143 0-7.5 3.357-7.5 7.5s3.357 7.5 7.5 7.5c18.221 0 33.044-14.768 33.044-32.919 0-18.15-14.823-32.917-33.044-32.917zM103.981 131.807c-4.143 0-7.5 3.357-7.5 7.5s3.357 7.5 7.5 7.5c17.094 0 31 13.82 31 30.808 0 16.989-13.906 30.81-31 30.81-4.143 0-7.5 3.357-7.5 7.5s3.357 7.5 7.5 7.5c25.364 0 46-20.55 46-45.81 0-25.259-20.636-45.808-46-45.808zM456.562 131.467c-14.097 0-25.566 11.429-25.566 25.477 0 14.049 11.469 25.478 25.566 25.478s25.566-11.429 25.566-25.478c0-14.048-11.469-25.477-25.566-25.477zm.001 35.956c-5.826 0-10.566-4.7-10.566-10.478-.001-5.777 4.739-10.477 10.566-10.477 5.826 0 10.566 4.7 10.566 10.477s-4.74 10.478-10.566 10.478zM481.622 323.418c-14.098 0-25.566 11.429-25.566 25.478s11.469 25.477 25.566 25.477 25.565-11.429 25.565-25.477-11.468-25.478-25.565-25.478zm0 35.955c-5.826 0-10.566-4.7-10.566-10.477s4.74-10.478 10.566-10.478 10.565 4.7 10.565 10.478c.001 5.777-4.739 10.477-10.565 10.477zM465.886 233.531a25.477 25.477 0 0 0-11.978 2.98l-14.62-14.548a7.5 7.5 0 0 0-10.58 10.632l14.583 14.511a25.252 25.252 0 0 0-2.971 11.902c0 14.049 11.469 25.478 25.566 25.478 14.098 0 25.566-11.429 25.566-25.478 0-14.048-11.469-25.477-25.566-25.477zm.001 35.956c-5.826 0-10.566-4.7-10.566-10.478 0-5.776 4.74-10.477 10.566-10.477 5.826 0 10.566 4.7 10.566 10.477s-4.74 10.478-10.566 10.478zM448.986 401.706c-14.098 0-25.566 11.429-25.566 25.478s11.469 25.478 25.566 25.478c14.098 0 25.566-11.429 25.566-25.478s-11.468-25.478-25.566-25.478zm0 35.955c-5.826 0-10.566-4.7-10.566-10.478 0-5.777 4.74-10.478 10.566-10.478 5.826 0 10.566 4.7 10.566 10.478.001 5.778-4.739 10.478-10.566 10.478z" fill="#FFFFFF" opacity="1" data-original="#FFFFFF"></path><path d="M361.231 140.945c4.767 0 10.455-2.348 13.834-5.71l28.974-28.832a25.505 25.505 0 0 0 9.397 1.791c14.098 0 25.566-11.429 25.566-25.478 0-14.048-11.469-25.476-25.566-25.476s-25.565 11.429-25.565 25.476a25.261 25.261 0 0 0 4.385 14.252L364.487 124.6c-.587.563-2.445 1.331-3.256 1.345h-61.906V76.298h17.413c3.221 10.399 12.955 17.978 24.434 17.978 14.098 0 25.566-11.429 25.566-25.478 0-14.048-11.469-25.477-25.566-25.477-11.479 0-21.213 7.578-24.434 17.977h-17.413v-1.136C299.325 26.988 272.22 0 238.902 0c-23.818 0-45.184 13.882-54.934 35.108a63.512 63.512 0 0 0-4.477-.16c-34.628 0-62.893 27.646-63.696 61.936a64.163 64.163 0 0 0-9.051-.641c-35.132 0-63.713 28.458-63.713 63.437 0 7.678 1.347 15.107 4.011 22.174C20.818 197.414 4.813 225.21 4.813 256c0 16.532 4.709 32.602 13.617 46.471a86.866 86.866 0 0 0 28.852 27.815 63.422 63.422 0 0 0-4.251 22.781 63.218 63.218 0 0 0 15.875 41.902 7.5 7.5 0 1 0 11.238-9.936 48.226 48.226 0 0 1-12.113-31.967c0-7.924 1.873-15.482 5.561-22.466a48.604 48.604 0 0 1 19.892-20.105 7.498 7.498 0 0 0 3.023-10.166 7.495 7.495 0 0 0-10.166-3.023 63.636 63.636 0 0 0-22.013 19.714C32.882 304.119 19.813 281.308 19.813 256c0-27.06 14.988-51.318 39.186-63.596 0 0 14.002-7.79 32.59-7.79 4.143 0 7.5-3.357 7.5-7.5s-3.357-7.5-7.5-7.5a86.66 86.66 0 0 0-30.942 5.682 47.676 47.676 0 0 1-2.614-15.615c0-26.709 21.852-48.437 48.713-48.437 5.049 0 10.044.773 14.846 2.298a7.498 7.498 0 0 0 9.692-8.218 48.888 48.888 0 0 1-.505-6.938c0-26.708 21.853-48.437 48.714-48.437 2.638 0 5.334.226 8.017.667 23.058 3.814 40.696 23.777 40.696 47.77 0 4.143 3.357 7.5 7.5 7.5s7.5-3.357 7.5-7.5c0-28.102-18.455-51.979-43.929-60.285C207.196 24.019 222.246 15 238.902 15c25.046 0 45.423 20.26 45.423 45.162v.833H269.9c-4.143 0-7.5 3.357-7.5 7.5s3.357 7.5 7.5 7.5h14.425v49.949h-60.66c-13.725 0-24.891-11.094-24.891-24.73 0-4.143-3.357-7.5-7.5-7.5s-7.5 3.357-7.5 7.5c0 21.907 17.895 39.73 39.891 39.73h60.66V267.2H162.667c-4.143 0-7.5 3.357-7.5 7.5s3.357 7.5 7.5 7.5h121.658v102.976h-23.176c-21.162 0-38.378 17.147-38.378 38.225 0 4.143 3.357 7.5 7.5 7.5s7.5-3.357 7.5-7.5c0-12.806 10.487-23.225 23.378-23.225h23.176v51.662c0 1.178-.06 2.342-.149 3.497H269.9c-4.143 0-7.5 3.357-7.5 7.5s3.357 7.5 7.5 7.5h10.424C273.203 486.037 257.321 497 238.902 497c-16.544 0-31.539-8.926-39.498-22.873a63.52 63.52 0 0 0 24.42-14.709 7.499 7.499 0 0 0 .19-10.604 7.497 7.497 0 0 0-10.604-.191 48.508 48.508 0 0 1-25.783 12.983 49.474 49.474 0 0 1-8.136.688c-26.861 0-48.714-21.729-48.714-48.438 0-.683.041-1.392.074-2.094 6.054-2.464 11.741-5.836 16.813-10.07a7.5 7.5 0 0 0 .95-10.564c-2.655-3.18-7.307-3.509-10.564-.95C123 402 108.444 401.816 102.621 401.333c-4.14-.351-7.752 2.726-8.096 6.853a7.502 7.502 0 0 0 6.854 8.096 64.89 64.89 0 0 0 14.43-.42c1.066 34.056 29.224 61.432 63.683 61.432 1.518 0 3.049-.057 4.585-.169C193.879 498.211 215.202 512 238.902 512c33.317 0 60.423-26.988 60.423-60.162v-16.574h39.758c.814.014 2.672.781 3.257 1.343l17.881 17.793a25.258 25.258 0 0 0-3.82 13.378c0 14.049 11.469 25.478 25.566 25.478 14.098 0 25.566-11.429 25.566-25.478S396.064 442.3 381.967 442.3c-3.707 0-7.228.797-10.412 2.217l-18.635-18.543c-3.379-3.362-9.067-5.71-13.834-5.71h-39.761v-40.092h65.2c3.221 10.399 12.955 17.978 24.435 17.978 14.098 0 25.566-11.429 25.566-25.478s-11.469-25.478-25.566-25.478c-11.479 0-21.214 7.578-24.435 17.978h-65.2v-50.24h78.022c3.221 10.399 12.955 17.978 24.435 17.978 14.098 0 25.566-11.429 25.566-25.478s-11.469-25.478-25.566-25.478c-11.48 0-21.214 7.578-24.435 17.978h-78.022v-54.589h18.578c3.222 10.398 12.956 17.977 24.435 17.977 14.098 0 25.566-11.429 25.566-25.477 0-14.049-11.469-25.478-25.566-25.478-11.479 0-21.214 7.578-24.435 17.978h-18.578v-43.281h81.718c.813.015 2.672.781 3.257 1.343l15.406 15.332a7.475 7.475 0 0 0 5.29 2.184 7.5 7.5 0 0 0 5.29-12.817l-15.406-15.332c-3.379-3.362-9.067-5.71-13.834-5.71h-81.721v-31.117h61.906zm52.205-68.706c5.826 0 10.566 4.7 10.566 10.476 0 5.777-4.74 10.478-10.566 10.478s-10.565-4.7-10.565-10.478c0-5.776 4.739-10.476 10.565-10.476zm-72.264-13.918c5.826 0 10.566 4.7 10.566 10.477s-4.74 10.478-10.566 10.478c-5.826 0-10.565-4.7-10.565-10.478-.001-5.777 4.739-10.477 10.565-10.477zm40.795 398.978c5.826 0 10.566 4.701 10.566 10.478s-4.74 10.478-10.566 10.478c-5.826 0-10.566-4.7-10.566-10.478 0-5.777 4.74-10.478 10.566-10.478zm6.993-95.105c5.826 0 10.566 4.7 10.566 10.478 0 5.777-4.74 10.478-10.566 10.478s-10.566-4.7-10.566-10.478c0-5.777 4.74-10.478 10.566-10.478zm12.821-65.24c5.826 0 10.566 4.7 10.566 10.478 0 5.777-4.74 10.478-10.566 10.478-5.826 0-10.566-4.7-10.566-10.478s4.74-10.478 10.566-10.478zm-59.443-69.589c5.826 0 10.566 4.7 10.566 10.478 0 5.776-4.74 10.477-10.566 10.477-5.826 0-10.566-4.7-10.566-10.477 0-5.778 4.74-10.478 10.566-10.478z" fill="#FFFFFF" opacity="1" data-original="#FFFFFF"></path></g></svg>