<svg xmlns="http://www.w3.org/2000/svg" version="1.1" xmlns:xlink="http://www.w3.org/1999/xlink" width="512" height="512" x="0" y="0" viewBox="0 0 512 512" style="enable-background:new 0 0 512 512" xml:space="preserve"><g><path d="M436.338 41.9V15.4c0-8.461-6.883-15.344-15.344-15.344h-41.978c-5.319 0-10.018 2.686-12.826 6.77-68.202-18.336-140.696.824-190.756 50.883-75.128 75.128-76.911 196.036-5.258 273.318l-14.943 14.549-8.971-8.971c-7.599-7.599-19.969-7.599-27.568 0L8.62 446.679c-11.348 11.348-11.348 29.812 0 41.16l16.012 16.012c10.869 10.868 28.552 10.868 39.422 0l110.942-110.942c7.599-7.601 7.598-19.968 0-27.567l-9.16-9.16 14.938-14.544c32.906 30.518 75.35 48.935 120.34 52.048a7.5 7.5 0 0 0 7.997-6.961 7.498 7.498 0 0 0-6.962-7.997c-93.564-6.474-169.373-83.872-169.373-181.616 0-120.614 114.698-207.479 230.679-175.492v19.277C257.902 8.069 151.064 87.518 151.064 197.32c0 90.02 73.056 163.772 163.773 163.772 77.167 0 117.9-50.971 119.463-51.753l.021-.024a6.06 6.06 0 0 0 .169-.187c28.454-30.436 44.118-70.131 44.118-111.808 0-40.765-14.987-79.636-42.268-109.798V61.411c38.251 34.232 60.557 82.811 60.557 135.698 0 93.043-69.415 170.341-161.131 180.856a7.5 7.5 0 0 0-6.595 8.303 7.495 7.495 0 0 0 8.303 6.595c99.225-11.376 174.416-94.995 174.417-195.752-.002-61.544-27.927-117.888-75.553-155.211zM53.45 493.246c-5.021 5.021-13.192 5.021-18.214 0l-16.012-16.012c-5.502-5.502-5.502-14.453 0-19.955l57.761-57.761 35.096 35.096-58.631 58.632zm69.234-69.233-35.096-35.096 10.615-10.615 35.096 35.096-10.615 10.615zm41.709-41.709-20.49 20.49-35.096-35.096 20.492-20.491c1.738-1.739 4.623-1.738 6.361 0l28.735 28.735c1.737 1.741 1.737 4.623-.002 6.362zm83.283-52.252a149.672 149.672 0 0 1-42.895-32.721V186.178c0-.315.256-.571.57-.571h42.326v144.445zm57.889 15.738a147.27 147.27 0 0 1-42.894-9.141V129.324a.57.57 0 0 1 .567-.57h42.327V345.79zm0-273.318v41.288h-42.327c-8.581 0-15.561 6.982-15.561 15.564v41.288h-42.326c-8.583 0-15.564 6.982-15.564 15.565v91.663c-63.67-98.534 7.483-229.298 125.049-229.298 16.683 0 33.012 2.744 48.619 8.144v.221H321.13c-8.584 0-15.565 6.983-15.565 15.565zm57.89 265.482a147.913 147.913 0 0 1-42.895 8.032V72.473c0-.314.256-.57.57-.57h42.326v266.051zM463.612 197.32c0 31.048-9.575 60.883-27.274 85.863v-69.027a7.497 7.497 0 1 0-14.994 0v87.017c-12.411 12.739-27.097 23.151-42.894 30.651V15.62a.57.57 0 0 1 .567-.57h41.978c.192 0 .35.157.35.35v163.77a7.497 7.497 0 1 0 14.994 0v-67.713c17.697 24.98 27.273 54.815 27.273 85.863z" fill="#FFFFFF" opacity="1" data-original="#FFFFFF"></path></g></svg>