<svg xmlns="http://www.w3.org/2000/svg" version="1.1" xmlns:xlink="http://www.w3.org/1999/xlink" width="512" height="512" x="0" y="0" viewBox="0 0 64 64" style="enable-background:new 0 0 512 512" xml:space="preserve"><g><path d="M57.476 27.023a25.748 25.748 0 0 0-3.939-9.513 5.005 5.005 0 0 0-7.046-7.046 25.78 25.78 0 0 0-9.514-3.941 5 5 0 0 0-9.954 0 25.773 25.773 0 0 0-9.514 3.941 5 5 0 0 0-7.046 7.046 25.748 25.748 0 0 0-3.939 9.513 5 5 0 0 0 0 9.954 25.767 25.767 0 0 0 3.94 9.513 5 5 0 0 0 7.046 7.046 25.78 25.78 0 0 0 9.514 3.941 5 5 0 0 0 9.954 0 25.773 25.773 0 0 0 9.514-3.941 5 5 0 0 0 7.046-7.046 25.767 25.767 0 0 0 3.94-9.513 5 5 0 0 0 0-9.954ZM51.8 12.2a3.029 3.029 0 0 1 0 4.289c-.054.055-.119.109-.179.16a3.028 3.028 0 0 1-4.257-4.283c.05-.058.1-.116.151-.168a3.035 3.035 0 0 1 4.288 0ZM32 4a3.031 3.031 0 0 1 3.028 3.028v.109a1.146 1.146 0 0 0-.021.143 3.017 3.017 0 0 1-6.014 0c0-.016-.016-.115-.018-.131a.812.812 0 0 1 0-.121A3.031 3.031 0 0 1 32 4Zm-19.8 8.2a3.035 3.035 0 0 1 4.29 0c.051.05.1.108.161.18a3.023 3.023 0 0 1-.162 4.105c-.063.063-.135.111-.2.167a3.009 3.009 0 0 1-.249.2c-.036.024-.077.039-.114.062a3.039 3.039 0 0 1-.383.209c-.018.008-.038.011-.056.019a2.953 2.953 0 0 1-.472.153 3.021 3.021 0 0 1-2.63-.651c-.062-.054-.126-.106-.182-.162a3.029 3.029 0 0 1 0-4.289ZM4 32a3.031 3.031 0 0 1 3.028-3.028h.111a.959.959 0 0 0 .141.021 3.017 3.017 0 0 1 0 6.014l-.128.019h-.061A3.064 3.064 0 0 1 4 32Zm8.2 19.8a3.027 3.027 0 0 1 0-4.291c.054-.055.119-.109.179-.16a3.163 3.163 0 0 1 .467-.326c.047-.027.1-.044.146-.068a3.068 3.068 0 0 1 .357-.16c.063-.022.128-.033.191-.051a3.056 3.056 0 0 1 .334-.08c.071-.011.142-.012.213-.019a3.078 3.078 0 0 1 .318-.016c.1 0 .205.017.307.029.085.011.17.016.254.034a3.138 3.138 0 0 1 .31.092c.078.026.157.044.233.076a2.89 2.89 0 0 1 .33.174c.06.034.122.059.18.1a3.019 3.019 0 0 1 .629 4.486c0 .005-.005.012-.009.017-.05.058-.1.116-.151.168A3.036 3.036 0 0 1 12.2 51.8ZM32 60a3.031 3.031 0 0 1-3.028-3.028v-.109a1.146 1.146 0 0 0 .021-.143 3.017 3.017 0 0 1 6.014 0c0 .016.016.115.018.131a.812.812 0 0 1 0 .121A3.031 3.031 0 0 1 32 60Zm19.8-8.2a3.036 3.036 0 0 1-4.29 0c-.051-.05-.1-.108-.161-.18a3.023 3.023 0 0 1 .16-4.1 3.065 3.065 0 0 1 .465-.378c.061-.041.128-.069.192-.1a3.066 3.066 0 0 1 .32-.169c.077-.033.157-.052.236-.077a2.806 2.806 0 0 1 .309-.092c.085-.018.172-.024.258-.035.1-.012.2-.027.3-.029a3.058 3.058 0 0 1 .331.017c.066.006.132.007.2.017a3.214 3.214 0 0 1 .361.087c.054.016.109.025.163.043a3.114 3.114 0 0 1 .4.18c.033.018.069.029.1.048a3.086 3.086 0 0 1 .471.328c.062.054.126.106.182.162a3.029 3.029 0 0 1 0 4.289Zm.2-6.593a5.027 5.027 0 0 0-.741-.321l-.033-.008a4.909 4.909 0 0 0-.807-.193c-.092-.015-.184-.016-.277-.026a4.864 4.864 0 0 0-.578-.029c-.108 0-.214.012-.321.021a5.106 5.106 0 0 0-.536.071 5.226 5.226 0 0 0-.324.074 4.822 4.822 0 0 0-.518.17c-.1.039-.2.075-.3.121a5.065 5.065 0 0 0-.525.288c-.082.05-.165.092-.245.147a5.221 5.221 0 0 0-.7.578 5.122 5.122 0 0 0-.576.7c-.055.08-.1.165-.148.248a5.028 5.028 0 0 0-.287.523c-.044.1-.08.2-.118.3a4.6 4.6 0 0 0-.173.533c-.026.1-.049.2-.068.3a5.07 5.07 0 0 0-.077.587c-.006.087-.015.173-.017.26a5.033 5.033 0 0 0 .039.715c.006.046.006.091.013.137a4.972 4.972 0 0 0 .524 1.6 23.812 23.812 0 0 1-8.41 3.484 4.878 4.878 0 0 0-.307-.759c-.023-.046-.054-.086-.078-.13a4.976 4.976 0 0 0-.375-.6c-.06-.081-.128-.153-.192-.23a5.035 5.035 0 0 0-.375-.41c-.081-.077-.166-.148-.251-.22a5.2 5.2 0 0 0-.419-.319 4.998 4.998 0 0 0-.288-.182 5.186 5.186 0 0 0-.476-.242c-.1-.045-.2-.092-.3-.131a4.873 4.873 0 0 0-.564-.165c-.093-.023-.182-.053-.277-.07a4.648 4.648 0 0 0-1.78 0c-.095.017-.184.047-.277.07a4.873 4.873 0 0 0-.564.165c-.1.039-.2.086-.3.131a5.186 5.186 0 0 0-.476.242c-.1.058-.194.118-.288.182a5.2 5.2 0 0 0-.419.319c-.085.072-.17.143-.251.22a5.035 5.035 0 0 0-.375.41c-.064.077-.132.149-.192.23a4.976 4.976 0 0 0-.375.6c-.024.044-.055.084-.078.13a4.878 4.878 0 0 0-.307.759A23.812 23.812 0 0 1 18.794 52a4.91 4.91 0 0 0 .32-.739.318.318 0 0 0 .008-.033 4.911 4.911 0 0 0 .193-.8c.015-.094.017-.188.026-.283a4.953 4.953 0 0 0 .03-.571c0-.11-.013-.219-.022-.328a4.885 4.885 0 0 0-.07-.526 4.842 4.842 0 0 0-.075-.333 5.129 5.129 0 0 0-.167-.509c-.04-.1-.078-.209-.125-.312a5.008 5.008 0 0 0-.283-.517c-.051-.084-.1-.17-.151-.251a4.679 4.679 0 0 0-1.278-1.28c-.079-.056-.164-.1-.245-.148a4.95 4.95 0 0 0-.524-.286c-.1-.046-.2-.082-.3-.121a4.889 4.889 0 0 0-.522-.17 5.666 5.666 0 0 0-.319-.072 4.968 4.968 0 0 0-.544-.072c-.1-.008-.206-.018-.311-.02a5.2 5.2 0 0 0-.6.031c-.086.009-.171.01-.256.024a4.964 4.964 0 0 0-1.579.522A23.782 23.782 0 0 1 8.515 36.8a4.993 4.993 0 0 0 .757-.306c.047-.024.089-.056.135-.081a5.054 5.054 0 0 0 .593-.376c.082-.061.155-.13.234-.2a5.085 5.085 0 0 0 .406-.371c.078-.081.149-.167.222-.254a4.88 4.88 0 0 0 .316-.415c.065-.095.126-.191.185-.291a5.116 5.116 0 0 0 .24-.473c.046-.1.093-.2.132-.307a5.028 5.028 0 0 0 .165-.561c.023-.094.053-.184.07-.28a4.643 4.643 0 0 0 0-1.779c-.017-.094-.047-.184-.069-.276a5.054 5.054 0 0 0-.166-.566c-.039-.1-.085-.2-.13-.3a4.819 4.819 0 0 0-.244-.481 4.266 4.266 0 0 0-.179-.284 4.935 4.935 0 0 0-.323-.424c-.071-.084-.14-.167-.216-.246a4.805 4.805 0 0 0-.415-.379c-.075-.063-.146-.131-.226-.189a4.887 4.887 0 0 0-.6-.374c-.046-.025-.087-.057-.134-.08a4.863 4.863 0 0 0-.758-.306A23.779 23.779 0 0 1 12 18.794c.137.073.282.124.423.184.09.037.177.084.268.116a4.979 4.979 0 0 0 .67.178c.047.01.091.027.138.035a4.882 4.882 0 0 0 .817.071h.035c.058 0 .115-.014.173-.016a5.061 5.061 0 0 0 .672-.065c.108-.019.214-.048.321-.073a5.02 5.02 0 0 0 .542-.162c.11-.04.218-.083.326-.131a4.895 4.895 0 0 0 .521-.275c.093-.055.187-.105.278-.167a5.125 5.125 0 0 0 .69-.562c.009-.008.02-.014.029-.023l.006-.006a5.2 5.2 0 0 0 .577-.7c.053-.078.095-.161.144-.241a4.89 4.89 0 0 0 .29-.531c.044-.1.079-.192.116-.29a4.757 4.757 0 0 0 .176-.542c.025-.1.047-.193.067-.292a4.982 4.982 0 0 0 .077-.6c.006-.084.015-.168.017-.252a5.055 5.055 0 0 0-.04-.727c0-.042 0-.084-.012-.125A4.981 4.981 0 0 0 18.794 12 23.812 23.812 0 0 1 27.2 8.514a4.918 4.918 0 0 0 .307.759c.023.047.055.087.08.133a5 5 0 0 0 .373.6c.06.081.129.154.193.231a5.009 5.009 0 0 0 .374.409c.081.078.166.148.251.22a4.974 4.974 0 0 0 .419.319c.094.064.189.125.288.182a4.832 4.832 0 0 0 .476.242c.1.046.2.093.3.132a5.079 5.079 0 0 0 .564.165c.093.022.182.053.277.07a4.7 4.7 0 0 0 1.78 0c.095-.017.184-.048.277-.07a5.079 5.079 0 0 0 .564-.165c.1-.039.2-.086.3-.132a4.832 4.832 0 0 0 .476-.242c.1-.057.194-.118.288-.182a4.974 4.974 0 0 0 .419-.319c.085-.072.17-.142.251-.22a5.009 5.009 0 0 0 .374-.409c.064-.077.133-.15.193-.231a5 5 0 0 0 .373-.6c.025-.046.057-.086.08-.133a4.918 4.918 0 0 0 .307-.759A23.8 23.8 0 0 1 45.206 12a4.965 4.965 0 0 0-.32.74l-.006.022a4.955 4.955 0 0 0-.2.817c-.014.091-.016.182-.025.274a4.915 4.915 0 0 0-.029.581c0 .107.012.213.021.321a4.819 4.819 0 0 0 .071.534c.021.11.045.218.074.326a5.008 5.008 0 0 0 .168.516c.04.1.077.2.123.306a5.108 5.108 0 0 0 .286.522c.051.082.093.168.149.248a4.644 4.644 0 0 0 1.31 1.293c.079.055.163.1.245.148a5.005 5.005 0 0 0 .561.3c.1.043.193.081.291.117a4.876 4.876 0 0 0 .587.175c.094.022.186.047.281.064a5.011 5.011 0 0 0 .733.071c.042 0 .083.012.124.012h.026a5.1 5.1 0 0 0 .835-.073l.027-.007a4.881 4.881 0 0 0 .78-.208c.079-.028.154-.068.231-.1a4.787 4.787 0 0 0 .454-.2 23.779 23.779 0 0 1 3.482 8.411 4.863 4.863 0 0 0-.758.306c-.047.023-.088.055-.134.08a5 5 0 0 0-.6.373c-.08.059-.151.127-.227.19a4.945 4.945 0 0 0-.414.379c-.076.079-.145.162-.216.246a4.935 4.935 0 0 0-.323.424 4.854 4.854 0 0 0-.179.284 4.913 4.913 0 0 0-.244.48c-.045.1-.091.2-.13.3a4.889 4.889 0 0 0-.165.565c-.023.093-.053.183-.07.278a4.638 4.638 0 0 0 0 1.778c.017.1.047.186.07.28a5.109 5.109 0 0 0 .165.562c.039.1.086.2.132.306a5.116 5.116 0 0 0 .24.473c.059.1.12.2.185.291a4.88 4.88 0 0 0 .316.415c.073.087.144.173.222.254a5.085 5.085 0 0 0 .406.371c.079.066.152.135.234.2a4.985 4.985 0 0 0 .595.372c.046.025.087.057.134.081a4.993 4.993 0 0 0 .757.306A23.782 23.782 0 0 1 52 45.206Zm4.969-10.178a1.078 1.078 0 0 1-.115 0 1.256 1.256 0 0 0-.137-.02 3.017 3.017 0 0 1 0-6.014c.016 0 .114-.017.131-.019a.583.583 0 0 1 .059 0 3.029 3.029 0 1 1 .062 6.057Z" fill="#FFFFFF" opacity="1" data-original="#FFFFFF"></path><path d="M45.646 28.688a2.305 2.305 0 0 1-1.96-1.437A2.329 2.329 0 0 1 44.1 24.8a1 1 0 0 0-.058-1.352l-3.381-3.38a1 1 0 0 0-1.349-.059 2.3 2.3 0 0 1-2.4.37 2.336 2.336 0 0 1-1.444-2.028 1 1 0 0 0-1-.91h-4.78a1 1 0 0 0-1 .913 2.305 2.305 0 0 1-1.437 1.96A2.329 2.329 0 0 1 24.8 19.9a1 1 0 0 0-1.352.058l-3.381 3.381a1 1 0 0 0-.058 1.35 2.306 2.306 0 0 1 .37 2.4 2.337 2.337 0 0 1-2.029 1.443 1 1 0 0 0-.909 1v4.781a1 1 0 0 0 .913 1 2.3 2.3 0 0 1 1.96 1.438 2.333 2.333 0 0 1-.414 2.455 1 1 0 0 0 .062 1.346l3.381 3.381a1 1 0 0 0 1.349.059 2.312 2.312 0 0 1 2.4-.37 2.336 2.336 0 0 1 1.444 2.028 1 1 0 0 0 1 .91h4.781a1 1 0 0 0 1-.913 2.306 2.306 0 0 1 1.438-1.96 2.332 2.332 0 0 1 2.445.413 1 1 0 0 0 1.348-.061l3.381-3.381a1 1 0 0 0 .058-1.35 2.306 2.306 0 0 1-.37-2.4 2.33 2.33 0 0 1 2.021-1.442 1 1 0 0 0 .917-1v-4.782a1 1 0 0 0-.909-.996Zm-1.087 4.946a4.345 4.345 0 0 0-2.619 6.187l-2.214 2.215a4.346 4.346 0 0 0-6.226 2.523h-3.134a4.346 4.346 0 0 0-6.187-2.619l-2.215-2.215a4.345 4.345 0 0 0-2.523-6.225v-3.135a4.344 4.344 0 0 0 2.619-6.186l2.214-2.215a4.347 4.347 0 0 0 6.226-2.523h3.132a4.346 4.346 0 0 0 6.187 2.619l2.215 2.214a4.345 4.345 0 0 0 2.525 6.226Z" fill="#FFFFFF" opacity="1" data-original="#FFFFFF"></path><path d="M32 24.087A7.913 7.913 0 1 0 39.912 32 7.922 7.922 0 0 0 32 24.087Zm0 13.826A5.913 5.913 0 1 1 37.912 32 5.919 5.919 0 0 1 32 37.913Z" fill="#FFFFFF" opacity="1" data-original="#FFFFFF"></path></g></svg>