<svg width="55" height="54" viewBox="0 0 55 54" fill="none" xmlns="http://www.w3.org/2000/svg">
<g clip-path="url(#clip0_89_81)">
<path d="M54.4256 48.8616H50.1114V21.3433C50.1114 21.1924 50.0509 21.0476 49.9431 20.9408C49.8354 20.8341 49.6893 20.7741 49.5369 20.7741H41.6093C41.4569 20.7741 41.3108 20.8341 41.2031 20.9408C41.0954 21.0476 41.0348 21.1924 41.0348 21.3433V48.8615H38.3961V28.617C38.3961 28.466 38.3356 28.3212 38.2279 28.2145C38.1202 28.1077 37.974 28.0478 37.8217 28.0478H29.8941C29.7417 28.0478 29.5956 28.1077 29.4879 28.2145C29.3801 28.3212 29.3196 28.466 29.3196 28.617V48.8615H26.6809V35.4618C26.6809 35.3108 26.6204 35.166 26.5127 35.0593C26.4049 34.9525 26.2588 34.8925 26.1065 34.8925H18.1788C18.0265 34.8925 17.8804 34.9525 17.7726 35.0593C17.6649 35.166 17.6044 35.3108 17.6044 35.4618V48.8616H14.9653V41.1392C14.9653 40.9882 14.9048 40.8435 14.7971 40.7367C14.6894 40.63 14.5432 40.57 14.3909 40.57H6.46315C6.31079 40.57 6.16467 40.63 6.05694 40.7367C5.94921 40.8435 5.88869 40.9882 5.88869 41.1392V48.8616H1.57446C1.4221 48.8616 1.27599 48.9215 1.16826 49.0283C1.06052 49.135 1 49.2798 1 49.4308C1 49.5817 1.06052 49.7265 1.16826 49.8333C1.27599 49.94 1.4221 50 1.57446 50H54.4255C54.5778 50 54.724 49.9401 54.8317 49.8333C54.9394 49.7266 55 49.5818 55 49.4308C55 49.2799 54.9395 49.1351 54.8318 49.0283C54.7241 48.9216 54.578 48.8616 54.4256 48.8616ZM13.8164 48.8616H7.03761V41.7084H13.8163L13.8164 48.8616ZM25.5318 48.8616H18.7531V36.031H25.5318V48.8616ZM37.2471 48.8616H30.4684V29.1863H37.2471V48.8616ZM48.9625 48.8616H42.1838V21.9127H48.9625V48.8616ZM44.9543 4.50073C44.9514 4.47759 44.947 4.45466 44.9412 4.43205C44.9403 4.42847 44.939 4.425 44.9381 4.42141C44.9297 4.39019 44.9187 4.35971 44.9052 4.3303C44.9042 4.32834 44.9037 4.32626 44.9027 4.32441C44.8884 4.29503 44.8715 4.26695 44.8523 4.24046C44.849 4.23584 44.846 4.2311 44.8425 4.22659C44.8192 4.1962 44.7929 4.16816 44.7641 4.14288C44.7434 4.12437 44.7213 4.1074 44.6981 4.09212C44.6934 4.08911 44.6884 4.08668 44.6835 4.08379C44.6814 4.08252 44.6799 4.08079 44.6776 4.07952C44.6749 4.0779 44.6719 4.0772 44.6691 4.07558C44.6398 4.0587 44.609 4.04446 44.577 4.03304C44.5721 4.0313 44.5672 4.03003 44.5622 4.02841C44.5303 4.01782 44.4976 4.01 44.4643 4.00505C44.4618 4.00471 44.4592 4.00471 44.4567 4.00436C44.4247 4.00043 44.3924 3.99915 44.3601 4.00054C44.356 4.00066 44.352 4.00055 44.3479 4.00078C44.3155 4.00293 44.2833 4.00784 44.2517 4.01546C44.2463 4.01673 44.241 4.01789 44.2357 4.01928C44.2297 4.02089 44.2234 4.02194 44.2173 4.02367L34.616 6.90396C34.4702 6.94771 34.3479 7.04706 34.276 7.18016C34.2041 7.31327 34.1885 7.46922 34.2326 7.61371C34.2768 7.75821 34.377 7.87941 34.5114 7.95065C34.6457 8.02189 34.8031 8.03734 34.9489 7.9936L43.1017 5.54782C40.1229 10.2325 36.4154 14.6219 32.0598 18.6107C28.2567 22.0937 23.9553 25.2817 19.2753 28.0861C12.891 31.9118 7.03889 34.2285 4.83638 34.9191C4.69395 34.9669 4.57609 35.0681 4.5081 35.201C4.44012 35.3339 4.42743 35.488 4.47276 35.63C4.51809 35.7721 4.61783 35.8909 4.75056 35.9609C4.8833 36.031 5.03845 36.0466 5.18272 36.0046C5.24748 35.9844 11.7499 33.9218 19.8406 29.0777C24.5916 26.2333 28.96 22.9978 32.824 19.461C37.2288 15.4294 40.9836 10.9927 44.0087 6.25612C44.4125 9.61105 44.8856 13.5887 44.9048 13.8982C44.9067 14.0492 44.9691 14.1932 45.0782 14.2986C45.1872 14.4039 45.3341 14.4621 45.4864 14.4602C45.6387 14.4583 45.7841 14.3965 45.8904 14.2884C45.9968 14.1804 46.0554 14.0348 46.0535 13.8839C46.0539 13.6168 45.2849 7.23303 44.9543 4.50073Z" fill="#EE3328"/>
</g>
<defs>
<clipPath id="clip0_89_81">
<rect width="54" height="54" fill="white" transform="translate(0.5)"/>
</clipPath>
</defs>
</svg>
