<svg xmlns="http://www.w3.org/2000/svg" version="1.1" xmlns:xlink="http://www.w3.org/1999/xlink" width="512" height="512" x="0" y="0" viewBox="0 0 511 511.998" style="enable-background:new 0 0 512 512" xml:space="preserve"><g><path d="M482.871 125.023c0-23.16-18.84-42-42-42-11.89 0-22.637 4.977-30.285 12.946L246.684 1.339a9.998 9.998 0 0 0-9.996 0L72.78 95.97C65.133 88 54.391 83.023 42.5 83.023c-23.16 0-42 18.84-42 42 0 19.711 13.652 36.286 32 40.786V355c0 3.57 1.906 6.871 5 8.66l163.852 94.602a41.895 41.895 0 0 0-1.68 11.738c0 23.156 18.84 42 42 42 23.156 0 41.996-18.844 41.996-42 0-4.07-.59-8-1.676-11.727l163.88-94.613c3.093-1.785 5-5.09 5-8.66V165.809c18.347-4.5 32-21.075 32-40.786zm-462.371 0c0-12.132 9.867-22 22-22 12.129 0 21.996 9.868 21.996 22 0 12.13-9.867 22-21.996 22-12.133 0-22-9.87-22-22zM241.672 492c-12.133 0-22-9.867-22-22 0-12.129 9.867-22 22-22 12.129 0 22 9.871 22 22 0 12.133-9.871 22-22 22zm30.305-51.035c-7.653-7.98-18.403-12.965-30.305-12.965-11.895 0-22.645 4.98-30.293 12.953L52.5 349.227V165.809c18.344-4.5 31.996-21.075 31.996-40.786 0-4.078-.594-8.02-1.683-11.753l158.87-91.723L400.56 113.27a41.864 41.864 0 0 0-1.684 11.753c0 19.711 13.652 36.286 31.996 40.786v183.418zM440.87 147.023c-12.129 0-22-9.87-22-22 0-12.132 9.871-22 22-22 12.133 0 22 9.868 22 22 0 12.13-9.867 22-22 22zm0 0" fill="#FFFFFF" opacity="1" data-original="#FFFFFF"></path><path d="m378.684 155.129-132-76.207a9.998 9.998 0 0 0-9.996 0l-132 76.207c-3.094 1.789-5 5.09-5 8.66v152.418c0 3.57 1.906 6.875 5 8.66l132 76.211c1.546.89 3.269 1.34 4.996 1.34 1.73 0 3.453-.45 5-1.34l132-76.21c3.093-1.786 5-5.09 5-8.661V163.789c0-3.57-1.907-6.871-5-8.66zm-137-56 112 64.66-112 64.664-111.996-64.664zm10 275.969V330c0-5.523-4.477-10-10-10-5.52 0-9.996 4.477-9.996 10v45.098l-112-64.664V181.109l117 67.551c1.546.89 3.269 1.34 4.996 1.34 1.73 0 3.453-.45 5-1.34l117-67.55v129.324zm0 0" fill="#FFFFFF" opacity="1" data-original="#FFFFFF"></path><path d="M241.676 275a10.09 10.09 0 0 0-7.082 2.93 10.073 10.073 0 0 0-2.93 7.07 10.07 10.07 0 0 0 2.93 7.066 10.094 10.094 0 0 0 7.082 2.934c2.629 0 5.21-1.07 7.07-2.934a10.07 10.07 0 0 0 2.93-7.066c0-2.633-1.07-5.21-2.93-7.07a10.063 10.063 0 0 0-7.07-2.93zm0 0" fill="#FFFFFF" opacity="1" data-original="#FFFFFF"></path></g></svg>