<svg width="54" height="54" viewBox="0 0 54 54" fill="none" xmlns="http://www.w3.org/2000/svg">
<g clip-path="url(#clip0_89_40)">
<path d="M53.9931 25.1075C53.575 18.9279 51.1347 13.2497 46.9359 8.6868C46.8577 8.60171 46.7634 8.53287 46.6585 8.48422C46.5536 8.43557 46.4402 8.40806 46.3246 8.40326C46.2091 8.39846 46.0938 8.41646 45.9852 8.45625C45.8767 8.49603 45.777 8.55682 45.6919 8.63513C45.6068 8.7134 45.538 8.80768 45.4893 8.91257C45.4407 9.01745 45.4132 9.1309 45.4084 9.24642C45.4036 9.36194 45.4216 9.47728 45.4614 9.58584C45.5012 9.6944 45.5619 9.79406 45.6402 9.87913C49.3506 13.9117 51.592 18.8758 52.1556 24.2866H38.482C37.4625 19.9196 34.0408 16.5104 29.6705 15.5072V1.83977C34.0474 2.29255 38.2151 3.87522 41.7761 6.44528C41.9654 6.58196 42.2013 6.63784 42.4318 6.60061C42.6623 6.56339 42.8686 6.43611 43.0053 6.24679C43.142 6.05746 43.1979 5.82158 43.1607 5.59106C43.1234 5.36053 42.9962 5.15423 42.8068 5.01755C38.7238 2.07065 33.8971 0.336739 28.8481 0.00314118C28.7279 -0.00481485 28.6073 0.0120049 28.4938 0.0525584C28.3803 0.0931119 28.2764 0.156535 28.1884 0.2389C28.1004 0.321264 28.0303 0.420814 27.9824 0.531383C27.9345 0.641953 27.9098 0.761186 27.9098 0.881696V16.2311C27.9098 16.44 27.9841 16.642 28.1194 16.8012C28.2546 16.9603 28.4421 17.0662 28.6482 17.0999C32.8723 17.7904 36.1855 21.0908 36.8926 25.3125C36.9269 25.5179 37.033 25.7045 37.192 25.8391C37.3509 25.9737 37.5525 26.0475 37.7608 26.0475H53.1146C53.2352 26.0475 53.3546 26.0227 53.4652 25.9747C53.5759 25.9266 53.6755 25.8563 53.7579 25.7682C53.8402 25.6801 53.9036 25.576 53.9441 25.4623C53.9845 25.3487 54.0012 25.2279 53.9931 25.1075ZM53.7619 28.0879C53.6795 28.0001 53.58 27.93 53.4695 27.8822C53.359 27.8343 53.2399 27.8097 53.1195 27.8097H37.7744C37.5649 27.8096 37.3623 27.8843 37.203 28.0203C37.0436 28.1562 36.938 28.3446 36.905 28.5514C36.6637 30.065 36.0623 31.5266 35.166 32.7784C35.0446 32.948 34.9872 33.1552 35.0043 33.3631C35.0214 33.571 35.1117 33.7661 35.2593 33.9136L46.1183 44.7726C46.2036 44.8579 46.3055 44.9247 46.4177 44.9689C46.5299 45.0132 46.6499 45.034 46.7705 45.03C46.891 45.0259 47.0094 44.9971 47.1183 44.9453C47.2273 44.8936 47.3244 44.8201 47.4038 44.7293C51.3333 40.2336 53.6138 34.7068 53.9982 28.7466C54.0059 28.6265 53.9889 28.5061 53.9482 28.3928C53.9076 28.2795 53.8442 28.1757 53.7619 28.0879ZM46.6855 42.8494L37.015 33.1789C37.707 32.0668 38.209 30.8474 38.5005 29.5705H52.1635C51.668 34.4704 49.7887 39.0268 46.6855 42.8494Z" fill="#EE3328"/>
<path d="M44.8751 46.0212L34.02 35.1661C33.8719 35.0181 33.6759 34.9276 33.4671 34.911C33.2584 34.8944 33.0505 34.9528 32.8809 35.0756C31.1678 36.3163 29.1441 36.9721 27.0286 36.9721C21.5135 36.9721 17.0268 32.4852 17.0268 26.9703C17.0268 22.0452 20.5521 17.8943 25.4092 17.1003C25.6154 17.0666 25.8028 16.9607 25.9381 16.8016C26.0734 16.6424 26.1476 16.4403 26.1476 16.2314V0.881939C26.1476 0.638201 26.0467 0.405537 25.8688 0.239107C25.691 0.0726772 25.4527 -0.0132798 25.2091 0.00338427C18.6923 0.434013 12.5511 3.22366 7.91648 7.85828C2.81148 12.9632 0 19.7506 0 26.9703C0 34.1899 2.81148 40.9774 7.91648 46.0824C13.0215 51.1874 19.8089 53.9988 27.0286 53.9988C33.5937 53.9988 39.9168 51.6218 44.8333 47.3055C44.9237 47.226 44.9969 47.1288 45.0484 47.0199C45.0998 46.911 45.1283 46.7927 45.1322 46.6724C45.1361 46.552 45.1153 46.4321 45.0711 46.3201C45.0269 46.2081 44.9602 46.1064 44.8751 46.0212ZM27.0286 52.2379C20.2793 52.2379 13.934 49.6097 9.16154 44.8372C4.38919 40.0647 1.76091 33.7195 1.76091 26.9703C1.76091 20.221 4.38919 13.8758 9.16165 9.10344C13.2711 4.99385 18.6468 2.43613 24.3866 1.84012V15.5078C21.9547 16.0693 19.7447 17.4043 18.1014 19.3187C16.2729 21.449 15.2658 24.1662 15.2658 26.9703C15.2658 33.4563 20.5426 38.733 27.0285 38.733C29.2645 38.733 31.4134 38.1102 33.2886 36.9251L42.9529 46.5895C38.4686 50.2386 32.8506 52.2379 27.0286 52.2379Z" fill="#EE3328"/>
</g>
<defs>
<clipPath id="clip0_89_40">
<rect width="54" height="54" fill="white"/>
</clipPath>
</defs>
</svg>
