<svg width="64" height="54" viewBox="0 0 64 54" fill="none" xmlns="http://www.w3.org/2000/svg">
<path d="M29.1696 34.5306L29.1688 34.5298L17.7335 22.4592L17.723 22.4482L17.7123 22.4375C17.5055 22.2321 17.3421 21.9872 17.2317 21.7174C17.1214 21.4477 17.0663 21.1585 17.0699 20.867C17.0734 20.5755 17.1354 20.2878 17.2523 20.0207C17.3692 19.7537 17.5385 19.5129 17.7502 19.3125C17.9619 19.1122 18.2117 18.9564 18.4848 18.8545L18.135 17.9177L18.4848 18.8545C18.7579 18.7525 19.0486 18.7064 19.3398 18.719C19.631 18.7315 19.9168 18.8024 20.1801 18.9275C20.4433 19.0526 20.6788 19.2292 20.8725 19.447L20.883 19.4588L20.8939 19.4703L30.0834 29.1681L30.79 29.9137L31.5163 29.1874L59.0623 1.64461C59.4722 1.25157 60.0195 1.03421 60.5876 1.03914C61.1583 1.0441 61.7042 1.273 62.1077 1.67654C62.5112 2.08007 62.7401 2.62596 62.7451 3.19662C62.75 3.76466 62.5327 4.312 62.1397 4.72187L32.2878 34.5738C32.2877 34.5738 32.2876 34.5739 32.2876 34.574C31.8792 34.982 31.3256 35.2114 30.7483 35.2118H30.7124C30.424 35.2066 30.1395 35.1442 29.8754 35.0281C29.6093 34.9111 29.3693 34.7419 29.1696 34.5306Z" stroke="#EE3328" stroke-width="2"/>
<path d="M27.2549 1.00004L27.2566 1.00004C31.9045 0.991777 36.4663 2.25376 40.449 4.64965L40.4579 4.65502L40.467 4.6602C40.7184 4.80442 40.9386 4.99742 41.1144 5.22786C41.2903 5.45832 41.4183 5.72157 41.491 6.00218C41.5638 6.28279 41.5797 6.5751 41.5379 6.86195C41.4961 7.1488 41.3974 7.42441 41.2477 7.67262C41.0979 7.92082 40.9001 8.1366 40.6658 8.30729C40.4315 8.47799 40.1655 8.60017 39.8833 8.66665C39.6012 8.73313 39.3086 8.74258 39.0227 8.69444C38.7369 8.6463 38.4635 8.54154 38.2187 8.38631L38.2085 8.37982L38.1981 8.37358C34.8931 6.38872 31.1088 5.34427 27.2537 5.35298C21.513 5.35328 16.0074 7.63391 11.9481 11.6932C7.88848 15.7529 5.60782 21.2589 5.60782 27C5.60782 32.7412 7.88848 38.2472 11.9481 42.3068C16.0077 46.3664 21.5137 48.6471 27.2549 48.6471L27.2608 48.647C28.0781 48.6422 28.8946 48.5942 29.7069 48.5033C30.0675 48.4768 30.4259 48.4257 30.7796 48.3503C35.2102 47.6186 39.3036 45.5267 42.4924 42.3642C45.6869 39.1959 47.8146 35.1106 48.5792 30.6768L48.5798 30.6733C48.6274 30.3912 48.7301 30.1214 48.882 29.879C49.0339 29.6367 49.2321 29.4267 49.4651 29.2609C49.6982 29.0951 49.9617 28.9769 50.2404 28.913C50.5192 28.849 50.8078 28.8406 51.0898 28.8882C51.3718 28.9358 51.6417 29.0385 51.8841 29.1904C52.1264 29.3423 52.3364 29.5404 52.5022 29.7735L53.3171 29.1939L52.5022 29.7735C52.668 30.0066 52.7862 30.27 52.8501 30.5488C52.914 30.827 52.9225 31.1151 52.8752 31.3967C51.9694 36.7014 49.4371 41.5935 45.6287 45.3958C41.8203 49.1982 36.9241 51.7228 31.6178 52.6201L31.5956 52.6239L31.5737 52.6286C31.0921 52.7324 30.6037 52.8022 30.1122 52.8374L30.0931 52.8387L30.0741 52.8408C29.1373 52.944 28.1957 52.9972 27.2532 53C20.3582 52.9996 13.7457 50.2603 8.8701 45.3848C3.99416 40.5088 1.25488 33.8956 1.25488 27C1.25488 20.1044 3.99416 13.4912 8.8701 8.61526C13.746 3.73932 20.3592 1.00004 27.2549 1.00004Z" stroke="#EE3328" stroke-width="2"/>
</svg>
