<svg xmlns="http://www.w3.org/2000/svg" version="1.1" xmlns:xlink="http://www.w3.org/1999/xlink" width="512" height="512" x="0" y="0" viewBox="0 0 512 512" style="enable-background:new 0 0 512 512" xml:space="preserve" class=""><g><path d="m457.328 80-61.579-32.661-7.5 14.135 63.338 33.593a8 8 0 0 0 3.749.933h40V80z" fill="#000000" opacity="1" data-original="#000000" class=""></path><path d="m454.614 160.033-48.1 4.372a72.337 72.337 0 0 1-60.037-23.538l-24.886-27.653a24 24 0 0 1-1.082-30.814l42.391 28.26a8 8 0 1 0 8.875-13.312l-48-32-.015-.011-.01-.006A8.012 8.012 0 0 0 319.3 64h-87.957a39.378 39.378 0 0 1-38.666-32h140l39.57 20.988 7.5-14.135-41.327-21.92a7.993 7.993 0 0 0-3.749-.933H184.005a8 8 0 0 0-8 7.889A55.342 55.342 0 0 0 231.343 80h71.946a40.005 40.005 0 0 0 6.413 43.918l24.886 27.652A88.468 88.468 0 0 0 400.1 180.7q3.923 0 7.862-.356L455.7 176h39.637v-16h-40c-.237 0-.483.011-.723.033zM280.657 432H248v16h32.657a39.378 39.378 0 0 1 38.666 32h-140L60.411 416.933a8 8 0 0 0-3.749-.933h-40v16h38.01l118.908 63.067a7.993 7.993 0 0 0 3.749.933H328a8 8 0 0 0 8-7.889A55.342 55.342 0 0 0 280.657 432z" fill="#000000" opacity="1" data-original="#000000" class=""></path><path d="m57.386 351.967 48.1-4.372a72.329 72.329 0 0 1 60.037 23.538l24.886 27.653a24 24 0 0 1 1.085 30.818l-42.394-28.26a8 8 0 1 0-8.875 13.312l48 32 .015.011.011.007A7.988 7.988 0 0 0 192.66 448H232v-16h-23.29a40 40 0 0 0-6.412-43.918l-24.886-27.652a88.417 88.417 0 0 0-73.377-28.77L56.3 336H16.662v16h40c.238 0 .484-.011.724-.033zM288 152h-64a8 8 0 0 0-8 8v56h-16v16h24a8 8 0 0 0 8-8v-56h48v56a8 8 0 0 0 8 8h56v48h-56a8 8 0 0 0-8 8v56h-48v-56a8 8 0 0 0-8-8h-56v-48h16v-16h-24a8 8 0 0 0-8 8v64a8 8 0 0 0 8 8h56v56a8 8 0 0 0 8 8h64a8 8 0 0 0 8-8v-56h56a8 8 0 0 0 8-8v-64a8 8 0 0 0-8-8h-56v-56a8 8 0 0 0-8-8z" fill="#000000" opacity="1" data-original="#000000" class=""></path><path d="M104 256a151.266 151.266 0 0 0 8.447 50l15.105-5.275A135.311 135.311 0 0 1 120 256c0-74.991 61.009-136 136-136a137.73 137.73 0 0 1 15.118.834l1.764-15.9A153.459 153.459 0 0 0 256 104c-83.813 0-152 68.187-152 152zM256 392a137.73 137.73 0 0 1-15.118-.834l-1.764 15.9A153.472 153.472 0 0 0 256 408c83.813 0 152-68.187 152-152a151.266 151.266 0 0 0-8.447-50l-15.105 5.275A135.316 135.316 0 0 1 392 256c0 74.991-61.009 136-136 136z" fill="#000000" opacity="1" data-original="#000000" class=""></path><path d="M428.916 201.57a8 8 0 0 0-2.964 8.512 176.3 176.3 0 0 1-85.784 200.527l7.664 14.046a192.293 192.293 0 0 0 97.647-199.824l22.275 13.949 8.492-13.56-38.324-24a8 8 0 0 0-9.006.35zM76.359 304a8 8 0 0 0 7.811-9.731 176.109 176.109 0 0 1 95.312-196.812l-6.964-14.4A192.27 192.27 0 0 0 65.629 281.1l-29.822-16.136-7.614 14.072 44.36 24a7.985 7.985 0 0 0 3.806.964z" fill="#000000" opacity="1" data-original="#000000" class=""></path></g></svg>