<svg xmlns="http://www.w3.org/2000/svg" version="1.1" xmlns:xlink="http://www.w3.org/1999/xlink" width="512" height="512" x="0" y="0" viewBox="0 0 100 100" style="enable-background:new 0 0 512 512" xml:space="preserve"><g><path d="M85.09 34.18C84.53 22.7 77.45 12.47 67.2 8.51 55 3.77 40.52 8.74 32.94 20.08a12 12 0 0 0-18.3 10.68C7.14 34.14 2.41 41.51 3.06 49a17.7 17.7 0 0 0 6.73 12.15 20.39 20.39 0 0 0 10.9 4.38v3.58a1.52 1.52 0 0 0 1.52 1.51h6.19a22 22 0 0 0 1.6 3.92l-4.38 4.38a1.51 1.51 0 0 0 0 2.14l7.27 7.27a1.51 1.51 0 0 0 2.14 0l4.4-4.33a22 22 0 0 0 3.92 1.62v6.19a1.52 1.52 0 0 0 1.51 1.52h10.28a1.51 1.51 0 0 0 1.51-1.52v-6.24A22 22 0 0 0 60.57 84L65 88.33a1.51 1.51 0 0 0 2.14 0l7.27-7.27a1.51 1.51 0 0 0 0-2.14L70 74.54a22.05 22.05 0 0 0 1.63-3.92h6.17a1.52 1.52 0 0 0 1.51-1.51v-3.62a17.09 17.09 0 0 0 12.19-4.21 15.81 15.81 0 0 0 5.49-11c.31-7.17-4.73-13.88-11.9-16.1Zm-8.81 33.41h-5.83A1.52 1.52 0 0 0 69 68.74 19.37 19.37 0 0 1 66.8 74a1.51 1.51 0 0 0 .2 1.87L71.14 80 66 85.11 61.9 81a1.51 1.51 0 0 0-1.85-.23A19.4 19.4 0 0 1 54.77 83a1.53 1.53 0 0 0-1.15 1.47v5.83h-7.24v-5.88A1.52 1.52 0 0 0 45.23 83 19.4 19.4 0 0 1 40 80.76a1.51 1.51 0 0 0-1.9.24L34 85.11 28.86 80 33 75.87a1.53 1.53 0 0 0 .21-1.87A19.09 19.09 0 0 1 31 68.74a1.52 1.52 0 0 0-1.47-1.15h-5.81v-7.24h5.83A1.53 1.53 0 0 0 31 59.2a19.09 19.09 0 0 1 2.19-5.28 1.53 1.53 0 0 0-.19-1.85L28.86 48 34 42.82l4.12 4.12a1.5 1.5 0 0 0 1.85.23A19.37 19.37 0 0 1 45.23 45a1.52 1.52 0 0 0 1.15-1.48v-5.83h7.24v5.82A1.53 1.53 0 0 0 54.77 45a19.37 19.37 0 0 1 5.28 2.18 1.5 1.5 0 0 0 1.85-.23l4.1-4.13L71.14 48 67 52.07a1.51 1.51 0 0 0-.22 1.85A19.37 19.37 0 0 1 69 59.2a1.53 1.53 0 0 0 1.47 1.15h5.83ZM89.51 59a14.12 14.12 0 0 1-10.2 3.46v-3.63a1.52 1.52 0 0 0-1.51-1.52h-6.19A22.27 22.27 0 0 0 70 53.4l4.36-4.4a1.53 1.53 0 0 0 0-2.15l-7.27-7.26a1.51 1.51 0 0 0-2.14 0L60.57 44a22.05 22.05 0 0 0-3.92-1.63v-6.2a1.51 1.51 0 0 0-1.51-1.51H44.86a1.52 1.52 0 0 0-1.51 1.51v6.19A22.05 22.05 0 0 0 39.43 44l-4.38-4.38a1.51 1.51 0 0 0-2.14 0l-7.27 7.26a1.53 1.53 0 0 0 0 2.15L30 53.4a22.23 22.23 0 0 0-1.62 3.91h-6.17a1.52 1.52 0 0 0-1.52 1.52v3.66a17.17 17.17 0 0 1-9-3.7 14.71 14.71 0 0 1-5.61-10c-.55-6.43 3.95-13 10.69-15.62a1.52 1.52 0 0 0 1-1.58 9.28 9.28 0 0 1 4-8.74 9 9 0 0 1 4.91-1.46 9.48 9.48 0 0 1 5.83 2 1.53 1.53 0 0 0 1.21.29 1.49 1.49 0 0 0 1-.72c6.56-11 20.06-16 31.42-11.65 9.44 3.66 15.87 13.31 16 24a1.52 1.52 0 0 0 1.17 1.46c6.37 1.5 11 7.22 10.7 13.29a12.76 12.76 0 0 1-4.5 8.94Z" fill="#FFFFFF" opacity="1" data-original="#FFFFFF"></path><path d="M68.22 17.32c-8.38-5-19.66-3.34-27.44 4l2.08 2.21c6.8-6.46 16.59-8 23.81-3.65s8.55 12.63 8.75 14.26l3-.37c-.22-1.83-1.77-11.42-10.2-16.45ZM50 47.25A16.72 16.72 0 1 0 66.72 64 16.74 16.74 0 0 0 50 47.25Zm0 30.4A13.69 13.69 0 1 1 63.69 64 13.7 13.7 0 0 1 50 77.65Z" fill="#FFFFFF" opacity="1" data-original="#FFFFFF"></path></g></svg>