<svg xmlns="http://www.w3.org/2000/svg" version="1.1" xmlns:xlink="http://www.w3.org/1999/xlink" width="512" height="512" x="0" y="0" viewBox="0 0 512 512" style="enable-background:new 0 0 512 512" xml:space="preserve"><g><path d="M104.371 274.386H52.015a6.01 6.01 0 0 0-6.01 6.009v62.164a6.009 6.009 0 0 0 6.01 6.009h52.356a6.01 6.01 0 0 0 6.01-6.009v-62.164a6.009 6.009 0 0 0-6.01-6.009zm-6.01 62.164H58.024v-50.146h40.337zm107.547-120.727h-52.385a6.01 6.01 0 0 0-6.01 6.009V342.56a6.009 6.009 0 0 0 6.01 6.009h52.385a6.01 6.01 0 0 0 6.01-6.009V221.832a6.009 6.009 0 0 0-6.01-6.009zm-6.009 120.727h-40.365V227.841h40.365zM361.903 37.56l-4.205 17.586a6.01 6.01 0 0 0 4.447 7.242 6.013 6.013 0 0 0 7.242-4.447l7.455-31.181a6.01 6.01 0 0 0-4.15-7.163l-31.833-9.354a6.01 6.01 0 0 0-3.389 11.531l18.381 5.401-136.309 78.706V38.317c0-9.034-7.351-16.384-16.385-16.384H49.407c-9.05 0-16.413 7.35-16.413 16.384v111.43c0 9.034 7.363 16.384 16.413 16.384h65.748L49.01 204.326a6.01 6.01 0 1 0 6.01 10.408l81.823-47.248 38.518 40.515a6.009 6.009 0 0 0 10.365-4.102l.244-37.769h17.188c9.034 0 16.385-7.35 16.385-16.384v-29.987l142.36-82.2zM207.524 149.747c0 2.366-1.999 4.365-4.365 4.365H180a6.01 6.01 0 0 0-6.01 5.97l-.187 28.837-31.315-32.938a6.012 6.012 0 0 0-4.355-1.869H49.407c-2.382 0-4.394-1.999-4.394-4.365V38.317c0-2.407 1.971-4.366 4.394-4.366h153.751a4.37 4.37 0 0 1 4.365 4.366v111.43zm261.497 293.08-58.677-59.556a6.01 6.01 0 0 0-8.498-.064l-3.061 3.014-19.895-20.185a82.49 82.49 0 0 0 6.481-17.468h23.611a6.01 6.01 0 0 0 6.01-6.009V107.312a6.009 6.009 0 0 0-6.01-6.009h-52.385a6.01 6.01 0 0 0-6.01 6.009v151.593a82.652 82.652 0 0 0-37.133-13.487v-80.845a6.009 6.009 0 0 0-6.01-6.009h-52.385a6.01 6.01 0 0 0-6.01 6.009v101.263a84.918 84.918 0 0 0-3.341 3.11c-15.894 15.646-24.738 36.547-24.905 58.858-.168 22.312 8.364 43.347 24.022 59.226 15.659 15.895 36.565 24.741 58.87 24.909l.644.002c14.458 0 28.354-3.68 40.649-10.564l18.923 19.187-3.085 3.038a6.01 6.01 0 0 0-.064 8.499l58.678 59.555c6.5 6.6 15.215 10.274 24.538 10.346h.276c9.221 0 17.883-3.535 24.417-9.97 6.601-6.5 10.27-15.212 10.332-24.53.062-9.311-3.483-18.074-9.984-24.675zM362.608 113.321h40.365V336.55h-15.554c.239-2.481.384-4.983.403-7.506.167-22.306-8.365-43.336-24.022-59.216-.389-.395-.796-.766-1.191-1.152V113.321zM261.07 170.582h40.365v74.405c-14.441.482-28.251 4.618-40.365 11.984zm-6.924 106.925.004-.003c13.464-13.276 31.248-20.566 50.137-20.566.184 0 .369 0 .552.002 19.094.143 36.992 7.716 50.4 21.326 13.404 13.594 20.708 31.596 20.564 50.689-.108 14.406-4.451 28.128-12.419 39.758a72.435 72.435 0 0 0-34.649-26.233c10.811-7.674 17.886-20.287 17.886-34.53 0-23.336-18.973-42.321-42.293-42.321s-42.322 18.985-42.322 42.321c0 14.246 7.083 26.862 17.906 34.535a72.562 72.562 0 0 0-34.657 26.224c-8.179-11.93-12.541-26.04-12.43-40.815.143-19.1 7.715-36.994 21.322-50.386zm19.878 30.441c0-16.708 13.594-30.302 30.303-30.302S334.6 291.24 334.6 307.948s-13.58 30.303-30.273 30.303-30.303-13.594-30.303-30.303zm30.314 91.973c-.183 0-.368 0-.551-.002-19.094-.144-36.992-7.717-50.399-21.327-.062-.063-.12-.131-.183-.194 11.075-17.452 30.292-28.129 51.122-28.129s40.037 10.671 51.088 28.113c-.315.322-.617.654-.939.971-13.464 13.276-31.248 20.567-50.138 20.567zm50.868-5.302a84.815 84.815 0 0 0 7.708-6.704 84.477 84.477 0 0 0 9.566-11.261l17.742 18.001-17.745 17.475zm50.792 1.367 10.741 10.901-32.442 31.972-10.752-10.913 32.454-31.96zm54.241 87.482c-4.312 4.248-10.072 6.564-16.168 6.514-6.113-.047-11.819-2.448-16.067-6.762l-35.272-35.8 32.442-31.972 35.284 35.812c4.251 4.316 6.569 10.055 6.528 16.16-.041 6.104-2.438 11.803-6.747 16.047zM197.461 60.966a6.009 6.009 0 0 1-6.01 6.009H61.114a6.01 6.01 0 1 1 0-12.018h130.337a6.01 6.01 0 0 1 6.01 6.009zm0 33.052a6.009 6.009 0 0 1-6.01 6.009H61.114a6.01 6.01 0 1 1 0-12.018h130.337a6.01 6.01 0 0 1 6.01 6.009zm0 33.052a6.009 6.009 0 0 1-6.01 6.009H61.114a6.01 6.01 0 1 1 0-12.018h130.337a6.01 6.01 0 0 1 6.01 6.009z" fill="#000000" opacity="1" data-original="#000000"></path></g></svg>