<svg xmlns="http://www.w3.org/2000/svg" version="1.1" xmlns:xlink="http://www.w3.org/1999/xlink" width="512" height="512" x="0" y="0" viewBox="0 0 512 512" style="enable-background:new 0 0 512 512" xml:space="preserve"><g><path d="M252.958 320.301c5.547-4.721 9.541-10.995 11.467-18.182 2.507-9.355 1.221-19.128-3.622-27.516-4.843-8.389-12.663-14.389-22.019-16.896-7.184-1.924-14.61-1.604-21.478.841l-27.258-47.212c-4.045-7.006-11.289-11.216-19.379-11.262-8.048-.057-15.379 4.083-19.503 11.041-3.106 5.241-6.19 10.584-9.456 16.241-17.207 29.807-36.69 63.561-63.009 87.196l-42.81 24.718C9.231 354.663.064 388.874 15.456 415.532c10.329 17.891 29.133 27.904 48.443 27.904a55.488 55.488 0 0 0 27.82-7.469l5.866-3.387 26.499 45.898c6.344 10.986 17.89 17.135 29.748 17.135a34.078 34.078 0 0 0 17.083-4.586l7.967-4.6a8 8 0 0 0 2.929-10.928l-38.785-67.178c37.246-11.775 75.774-11.374 115.195-9.753 8.33.345 15.879-3.713 20.194-10.846 4.315-7.132 4.402-15.7.234-22.92zm-18.315-47.139c5.228 1.401 9.597 4.754 12.303 9.441s3.425 10.146 2.024 15.374a20.165 20.165 0 0 1-4.27 8.02l-19.137-33.146a20.154 20.154 0 0 1 9.08.311zM83.719 422.11c-19.02 10.979-43.426 4.44-54.407-14.579-10.98-19.019-4.44-43.425 14.579-54.406l36.596-21.128 39.827 68.985zm79.197 55.06c-8.73 5.041-19.934 2.038-24.975-6.692l-26.499-45.898 16.873-9.742 35.64 61.731zm-28.066-83.012-41.311-71.554c22.223-21.274 39.348-48.397 54.4-74.1l76.918 133.225c-30.361-.046-60.309 2.466-90.007 12.429zm129.877-14.719c-1.306 2.158-3.322 3.261-5.849 3.142-5.137-.211-10.259-.4-15.37-.548l-86.312-149.497a1389.65 1389.65 0 0 1 7.734-13.263c1.241-2.094 3.179-3.198 5.605-3.198h.044c2.448.014 4.388 1.142 5.612 3.262l88.603 153.465c1.261 2.184 1.238 4.48-.067 6.637zm24.866-112.221a7.998 7.998 0 0 1-10.929-2.928 8 8 0 0 1 2.928-10.928l20.475-11.821a8.001 8.001 0 0 1 8 13.856zm-34.32-73.05a8 8 0 0 1 5.657 9.798l-6.119 22.837a8.004 8.004 0 0 1-7.723 5.932 8 8 0 0 1-7.732-10.072l6.119-22.837a8.003 8.003 0 0 1 9.798-5.658zm70.049 125.754a8.004 8.004 0 0 1-9.799 5.658l-22.836-6.119a8 8 0 0 1 4.141-15.455l22.836 6.119a7.998 7.998 0 0 1 5.658 9.797zm82.3-54.729c41.552 0 75.358-33.806 75.358-75.357 0-41.553-33.806-75.358-75.358-75.358s-75.358 33.806-75.358 75.358 33.806 75.357 75.358 75.357zm-38.185-29.961c3.758-17.869 19.527-30.901 38.186-30.901s34.427 13.032 38.186 30.9c-10.33 8.703-23.653 13.962-38.186 13.962-14.534 0-27.856-5.258-38.186-13.961zm22.403-62.683c0-8.702 7.08-15.782 15.782-15.782 8.703 0 15.783 7.08 15.783 15.782s-7.08 15.782-15.783 15.782c-8.702 0-15.782-7.08-15.782-15.782zm15.782-42.071c32.73 0 59.358 26.628 59.358 59.358a58.985 58.985 0 0 1-8.973 31.328 54.908 54.908 0 0 0-26.669-27.487c5.012-5.62 8.067-13.023 8.067-21.128 0-17.524-14.258-31.782-31.783-31.782s-31.782 14.258-31.782 31.782c0 8.105 3.054 15.508 8.066 21.128a54.906 54.906 0 0 0-26.669 27.488 58.985 58.985 0 0 1-8.973-31.328c0-32.732 26.628-59.359 59.358-59.359zm21.033 143.752c-41.552 0-75.358 33.806-75.358 75.358s33.806 75.357 75.358 75.357 75.358-33.806 75.358-75.357c0-41.552-33.806-75.358-75.358-75.358zm0 16c32.73 0 59.358 26.628 59.358 59.358a58.985 58.985 0 0 1-8.973 31.328 54.905 54.905 0 0 0-26.669-27.487c5.012-5.62 8.066-13.023 8.066-21.128 0-17.524-14.257-31.782-31.782-31.782s-31.783 14.258-31.783 31.782c0 8.105 3.054 15.507 8.067 21.127a54.904 54.904 0 0 0-26.669 27.487 58.985 58.985 0 0 1-8.973-31.328c0-32.729 26.628-59.357 59.358-59.357zm0 57.854c-8.703 0-15.783-7.08-15.783-15.782s7.08-15.782 15.783-15.782c8.702 0 15.782 7.08 15.782 15.782s-7.08 15.782-15.782 15.782zm-38.186 46.901c3.759-17.869 19.527-30.901 38.186-30.901s34.427 13.032 38.186 30.901c-10.33 8.703-23.652 13.961-38.186 13.961-14.533 0-27.856-5.258-38.186-13.961zM279.788 167.104c41.553 0 75.358-33.806 75.358-75.358s-33.806-75.357-75.358-75.357-75.358 33.806-75.358 75.357c0 41.552 33.805 75.358 75.358 75.358zm-38.185-29.962c3.758-17.869 19.527-30.901 38.186-30.901s34.427 13.033 38.185 30.901c-10.33 8.703-23.653 13.961-38.186 13.961-14.533.001-27.856-5.258-38.185-13.961zm38.186-46.901c-8.703 0-15.783-7.08-15.783-15.782s7.08-15.782 15.783-15.782c8.702 0 15.782 7.08 15.782 15.782s-7.08 15.782-15.782 15.782zm-.001-57.853c32.73 0 59.358 26.628 59.358 59.357a58.988 58.988 0 0 1-8.973 31.329 54.905 54.905 0 0 0-26.669-27.487c5.012-5.62 8.067-13.023 8.067-21.128 0-17.524-14.257-31.782-31.782-31.782s-31.783 14.258-31.783 31.782c0 8.105 3.054 15.507 8.066 21.127a54.906 54.906 0 0 0-26.669 27.488 58.988 58.988 0 0 1-8.973-31.329c0-32.729 26.628-59.357 59.358-59.357z" fill="#000000" opacity="1" data-original="#000000"></path></g></svg>