<?xml version="1.0" encoding="UTF-8"?>
<svg id="Layer_1" data-name="Layer 1" xmlns="http://www.w3.org/2000/svg" version="1.1" viewBox="0 0 512 512">
  <defs>
    <style>
      .cls-1 {
        fill: #fff;
        stroke-width: 0px;
      }
    </style>
  </defs>
  <path class="cls-1" d="M430.4,368.4c20.3-10.4,34.3-31.6,34.3-55.9s-11-40.7-27.7-52l27.8-64.5c2.5.5,5,.8,7.6.8,21.3,0,38.6-17.3,38.6-38.6s-17.3-38.6-38.6-38.6-22.2,5.2-29.3,13.5l-150.2-82.2c1.1-3.6,1.6-7.4,1.6-11.1,0-21.3-17.3-38.6-38.6-38.6s-38.6,17.3-38.6,38.6.6,7.6,1.6,11.1l-150.2,82.2c-7.1-8.2-17.6-13.5-29.3-13.5-21.3,0-38.6,17.3-38.6,38.6s17.3,38.6,38.6,38.6,5.1-.3,7.6-.8l27.8,64.5c-16.7,11.3-27.7,30.4-27.7,52s13.9,45.5,34.3,55.9c-43.6,11.9-77,50.4-80.6,97.4-.3,4.2,1.1,8.3,4,11.4,2.8,3.1,6.9,4.8,11.1,4.8h118.4c-.7,3.9-1.2,7.9-1.5,11.8h0c-.3,4.5,1.2,8.8,4.2,12.1,3,3.3,7.3,5.1,11.8,5.1h214c4.5,0,8.8-1.9,11.8-5.1,3-3.3,4.6-7.7,4.2-12.1-.3-4-.8-7.9-1.5-11.8h118.4c4.2,0,8.2-1.7,11.1-4.8,2.8-3.1,4.3-7.2,4-11.4-3.5-46.9-36.9-85.5-80.6-97.4ZM448.7,312.4c0,25.8-21,46.8-46.8,46.8s-46.8-21-46.8-46.8,21-46.8,46.8-46.8c25.8,0,46.8,21,46.8,46.8ZM472.4,135.5c12.5,0,22.6,10.1,22.6,22.6s-10.1,22.6-22.6,22.6-22.6-10.1-22.6-22.6,10.1-22.6,22.6-22.6ZM256,17c12.5,0,22.6,10.1,22.6,22.6s-10.1,22.6-22.6,22.6-22.6-10.1-22.6-22.6,10.1-22.6,22.6-22.6ZM17,158.1c0-12.5,10.1-22.6,22.6-22.6s22.6,10.1,22.6,22.6-10.1,22.6-22.6,22.6-22.6-10.1-22.6-22.6ZM61.9,189.6c9.9-7,16.3-18.5,16.3-31.5s-.6-7.6-1.6-11.1l150.2-82.2c7.1,8.2,17.6,13.5,29.3,13.5s22.2-5.2,29.3-13.5l150.2,82.2c-1.1,3.6-1.6,7.4-1.6,11.1,0,13,6.5,24.5,16.3,31.5l-27.4,63.6c-6.7-2.4-13.7-3.6-20.8-3.6-34.6,0-62.8,28.2-62.8,62.8s13.9,45.5,34.2,55.9c-19.4,5.3-37,15.8-51.1,30.8-11.2-7.2-23.7-12.6-36.9-15.9,24.2-11.1,41.1-35.6,41.1-63.9s-31.6-70.4-70.4-70.4-70.4,31.6-70.4,70.4,16.9,52.8,41.1,63.9c-13.2,3.3-25.7,8.7-36.9,15.9-14-14.9-31.7-25.5-51.1-30.8,20.3-10.4,34.2-31.6,34.2-55.9,0-34.6-28.2-62.8-62.8-62.8-7.1,0-14.1,1.2-20.8,3.6l-27.4-63.6ZM256,373.6c-30,0-54.4-24.4-54.4-54.4s24.4-54.4,54.4-54.4,54.4,24.4,54.4,54.4-24.4,54.4-54.4,54.4ZM63.3,312.4c0-25.8,21-46.8,46.8-46.8s46.8,21,46.8,46.8-21,46.8-46.8,46.8-46.8-21-46.8-46.8ZM17.1,465.9c4.1-48,44.8-85.4,93.1-85.4s49.1,10.2,66.6,28.1c-17.7,14.9-31.2,34.7-38.4,57.3H17.1ZM148.9,495s0,0,0,0c4.2-55.7,51.2-99.3,107.1-99.3s102.9,43.6,107,99.4h-214.1ZM373.6,465.9c-7.2-22.6-20.7-42.4-38.4-57.3,17.6-18,41.4-28.1,66.6-28.1,48.3,0,88.9,37.4,93.1,85.4h-121.3ZM220.3,174h9.6v54.8c0,6.8,5.6,12.4,12.4,12.4h27.2c6.8,0,12.4-5.6,12.4-12.4v-54.8h9.6c4.9,0,9.3-2.7,11.5-7.2,2.2-4.4,1.6-9.5-1.4-13.4l-35.7-46.2c-2.4-3.1-6.2-5-10.1-5h0c-4,0-7.7,1.8-10.1,5l-35.7,46.2c-3,3.9-3.5,9-1.4,13.4,2.2,4.4,6.6,7.2,11.5,7.2ZM256,120.3l29.1,37.7h-11.1c-4.4,0-8,3.6-8,8v59.2h-20.1v-59.2c0-4.4-3.6-8-8-8h-11.1l29.1-37.7ZM113.8,228.9c0,6.2,5.1,11.3,11.3,11.3h20.5c6.2,0,11.3-5.1,11.3-11.3v-39.4h5.3c4.5,0,8.5-2.5,10.4-6.5,2-4,1.5-8.7-1.2-12.2l-26.9-34.8c-2.2-2.9-5.6-4.5-9.2-4.5h0c-3.6,0-7,1.7-9.2,4.5l-26.9,34.8c-2.7,3.5-3.2,8.2-1.2,12.2,2,4,6,6.5,10.4,6.5h5.3v39.4h0ZM135.4,150.3l18,23.3h-4.4c-4.4,0-8,3.6-8,8v42.7h-11.2v-42.7c0-4.4-3.6-8-8-8h-4.4l18-23.3ZM349.7,189.6h5.3v39.4c0,6.2,5.1,11.3,11.3,11.3h20.5c6.2,0,11.3-5.1,11.3-11.3v-39.4h5.3c4.5,0,8.5-2.5,10.4-6.5,2-4,1.5-8.7-1.2-12.2l-26.9-34.8c-2.2-2.9-5.6-4.5-9.2-4.5h0c-3.6,0-7,1.7-9.2,4.5l-26.9,34.8c-2.7,3.5-3.2,8.2-1.2,12.2,2,4,6,6.5,10.4,6.5h0ZM376.6,150.3l18,23.3h-4.4c-4.4,0-8,3.6-8,8v42.7h-11.2v-42.7c0-4.4-3.6-8-8-8h-4.4l18-23.3Z"/>
</svg>