<svg xmlns="http://www.w3.org/2000/svg" version="1.1" xmlns:xlink="http://www.w3.org/1999/xlink" width="512" height="512" x="0" y="0" viewBox="0 0 64 64" style="enable-background:new 0 0 512 512" xml:space="preserve" class=""><g><path d="m62.581 56.186-7-5A1 1 0 0 0 54 52v2h-6V43a1 1 0 0 0-.649-.937L40 39.307V32a1 1 0 0 0-1-1H25a1 1 0 0 0-1 1v7.307l-7.351 2.756A1 1 0 0 0 16 43v11H2a1 1 0 0 0-1 1v4a1 1 0 0 0 1 1h52v2a1 1 0 0 0 1.581.814l7-5a1 1 0 0 0 0-1.628zM40 41.443l6 2.25V54h-6zM26 33h12v21h-2v-3a4 4 0 0 0-8 0v3h-2zm8 18v3h-4v-3a2 2 0 0 1 4 0zm-16-7.307 6-2.25V54h-6zm38 16.364V59a1 1 0 0 0-1-1H3v-2h52a1 1 0 0 0 1-1v-1.057L60.279 57zM33 29v-8.184a3 3 0 1 0-2 0V29zm-1-12a1 1 0 1 1-1 1 1 1 0 0 1 1-1zM27 29v-4a1 1 0 0 0-.4-.8l-1.749-1.312A2.968 2.968 0 0 0 25 22a3.007 3.007 0 1 0-1.339 2.5l1.339 1V29zm-5-6a1 1 0 1 1 1-1 1 1 0 0 1-1 1zM37 25v4h2v-3.5l1.339-1a3.119 3.119 0 1 0-1.19-1.607L37.4 24.2a1 1 0 0 0-.4.8zm5-4a1 1 0 1 1-1 1 1 1 0 0 1 1-1z" fill="#FFFFFF" opacity="1" data-original="#000000" class=""></path><path d="M28.5 35h2v2h-2zM33.5 35h2v2h-2zM28.5 39h2v2h-2zM33.5 39h2v2h-2zM28.5 43h2v2h-2zM33.5 43h2v2h-2z" fill="#FFFFFF" opacity="1" data-original="#000000" class=""></path><path d="m2.869 27.79 2.349.781A26.729 26.729 0 0 0 5 32a27.029 27.029 0 0 0 .218 3.44l-2.348.769a2.009 2.009 0 0 0-1.281 2.521l1.859 5.7a2 2 0 0 0 2.524 1.3l2.349-.764a26.935 26.935 0 0 0 3.426 4.9l1.506-1.316a25.03 25.03 0 0 1-3.185-4.559A2.026 2.026 0 0 0 7.7 43.05l-2.347.76-1.859-5.7 2.347-.769a1.993 1.993 0 0 0 1.359-2.17 24.984 24.984 0 0 1 0-6.349 1.99 1.99 0 0 0-1.359-2.162l-2.35-.77 1.858-5.71 2.351.771A2.033 2.033 0 0 0 10.079 20a24.606 24.606 0 0 1 3.729-5.142 1.992 1.992 0 0 0 .171-2.553l-1.452-2 4.853-3.528 1.457 2.01a2.015 2.015 0 0 0 2.484.615 24.376 24.376 0 0 1 6.034-1.969A2.008 2.008 0 0 0 29 5.47V3h6v2.47a2.008 2.008 0 0 0 1.647 1.963A24.429 24.429 0 0 1 42.7 9.41a2.011 2.011 0 0 0 2.473-.633l1.454-2L51.47 10.3l-1.442 1.99a1.994 1.994 0 0 0 .165 2.563 24.706 24.706 0 0 1 3.739 5.161 2.028 2.028 0 0 0 2.37.933l2.347-.76 1.859 5.7-2.347.769a1.993 1.993 0 0 0-1.363 2.17 24.984 24.984 0 0 1 0 6.349 1.99 1.99 0 0 0 1.362 2.162l2.35.77-1.858 5.71-2.352-.768a2.034 2.034 0 0 0-2.38.951 24.946 24.946 0 0 1-3.173 4.538l1.506 1.316a26.771 26.771 0 0 0 3.426-4.908l2.356.772a2 2 0 0 0 2.516-1.292l1.861-5.7a2.005 2.005 0 0 0-1.281-2.515l-2.349-.781A26.729 26.729 0 0 0 59 32a27.029 27.029 0 0 0-.218-3.44l2.348-.769a2.009 2.009 0 0 0 1.281-2.521l-1.859-5.695a2 2 0 0 0-2.524-1.295l-2.349.762a26.645 26.645 0 0 0-4.039-5.565l1.446-2a2 2 0 0 0-.439-2.8L47.8 5.164a1.994 1.994 0 0 0-1.5-.364 1.972 1.972 0 0 0-1.3.8l-1.459 2A26.151 26.151 0 0 0 37 5.47V3a2 2 0 0 0-2-2h-6a2 2 0 0 0-2 2l-.013 2.467A26.354 26.354 0 0 0 20.45 7.6l-1.445-1.99a1.995 1.995 0 0 0-2.8-.449l-4.856 3.523a2 2 0 0 0-.438 2.793l1.442 2.006a26.512 26.512 0 0 0-4.032 5.567l-2.356-.772a2 2 0 0 0-2.516 1.292l-1.861 5.7a2.005 2.005 0 0 0 1.281 2.52z" fill="#FFFFFF" opacity="1" data-original="#000000" class=""></path><path d="M52.428 40.173A21.785 21.785 0 0 0 54 32a22 22 0 0 0-44 0 21.785 21.785 0 0 0 1.572 8.173l1.856-.747A19.772 19.772 0 0 1 12 32a20 20 0 0 1 40 0 19.772 19.772 0 0 1-1.428 7.426z" fill="#FFFFFF" opacity="1" data-original="#000000" class=""></path></g></svg>