<?xml version="1.0" encoding="UTF-8"?>
<svg id="Layer_1" data-name="Layer 1" xmlns="http://www.w3.org/2000/svg" version="1.1" viewBox="0 0 512 512">
  <defs>
    <style>
      .cls-1 {
        fill: #fff;
        stroke-width: 0px;
      }
    </style>
  </defs>
  <path class="cls-1" d="M98.7,209.1c-9.6-2.6-19.7,3-22.4,12.6-1.3,4.6-.6,9.5,1.7,13.7,2.4,4.2,6.3,7.2,10.9,8.5,1.6.4,3.2.6,4.9.6h0c3,0,6-.8,9-2.3,4.2-2.4,7.2-6.3,8.5-10.9,2.6-9.6-3-19.8-12.6-22.4ZM100.8,228.5c-.5,1.9-1.7,3.5-3.5,4.4-1.7,1-3.8,1.2-5.6.6-3.9-1.1-6.2-5.1-5.1-9s1.7-3.5,3.5-4.4c1.1-.6,2.3-1,3.6-1s1.3.1,2.1.3c3.9,1.1,6.2,5.1,5.1,9Z"/>
  <path class="cls-1" d="M493,328.1l-40-138.6c-2.6-8.7-11.8-13.9-20.6-11.4l-51.7,14.4c-4.3,1.2-7.9,4-10.2,8-2.1,3.8-2.6,8-1.7,12.1l-30.3,13.1c-6.4-4.3-13.1-8.1-19.8-11.3,14.3-21.2,21.8-45.8,21.8-71.7v-49.6c0-2.3-1.4-4.2-3.5-5.1l-79.4-30.9c-1.2-.4-2.6-.4-3.9,0l-79.4,30.9c-2.1.9-3.5,2.8-3.5,5.1v49.6c0,23,6,45.2,17.5,64.7-12.6.5-29.1,1.9-45.3,4.9.8-4,.3-8.1-1.7-11.8-2.2-4-5.8-6.8-10.2-8l-51.7-14.4c-8.9-2.5-18.1,2.7-20.6,11.4l-40,138.6c-1.2,4.3-.6,9,1.5,12.8,2.3,4,5.8,6.8,10.2,8l51.7,14.4c1.4.4,2.9.6,4.4.6,7.2,0,14-4.9,16.2-12.1l1.3-4.6,6.8,6.8c-.6,1.9-.9,3.9-.9,5.9,0,5.3,2.1,10.3,5.8,14,2.8,2.8,6.1,4.6,9.8,5.4-.8,2.2-1.3,4.6-1.3,7,0,5.3,2.1,10.3,5.8,14s5.9,4.4,9.4,5.3c-1,2.4-1.6,5.1-1.6,7.8,0,5.3,2.1,10.3,5.8,14s8.7,5.8,14,5.8,7-1,10-2.7c.9,3.2,2.6,6.1,5.1,8.6,3.8,3.8,8.7,5.8,14,5.8s8.1-1.3,11.3-3.7l5.7,5.7c5.3,5.4,12.4,8.1,19.4,8.1s14-2.7,19.5-8.2c4.4-4.3,7.1-9.9,7.9-15.9l5.1,5.1c10.7,10.7,28.2,10.7,38.9,0,4.8-4.7,7.5-10.7,8-17.2,4,2.1,8.3,3.1,12.6,3.1,7,0,14.1-2.6,19.5-8.2,8.2-8.2,10.1-20.5,5.7-30.6,6.8-.4,13.2-3.2,18.2-8.2,3-3.1,5.3-6.8,6.6-10.8,8-.8,26.1-3.6,43-13.3l.2.8c2.1,7.3,8.9,12.1,16.1,12.1s3-.2,4.5-.6l51.7-14.4c4.3-1.2,8-4.1,10.2-8,2.3-4,2.7-8.5,1.5-12.8ZM182,142.6v-45.9l74-28.7,74,28.7v45.9c0,24.3-7.2,47.6-21.1,67.3-5.7-2.3-11.3-4.3-16.4-5.9,13.5-17.6,20.9-39.1,20.9-61.4v-30.8c0-2.3-1.4-4.2-3.5-5.1l-51.9-20.2c-1.2-.4-2.6-.4-3.9,0l-51.9,20.2c-2.1.9-3.5,2.8-3.5,5.1v30.9c0,21.5,6.9,42.3,19.5,59.5-3,1.4-6,3-9,4.8-1.7,0-4.4,0-8,0-12.6-19-19.2-41.3-19.2-64.4ZM263,197c-11.8-2.1-23.3-1.6-34.2,1.4-12.6-15.9-19.4-35.5-19.4-55.8v-27l46.5-18.1,46.5,18.1v27c0,21.4-7.6,42-21.4,58.2-10-2.6-17-3.6-18.1-3.8ZM85.3,353l-51.7-14.5c-1.5-.4-2.8-1.4-3.6-2.8-.8-1.4-1-3-.5-4.5l40-138.6c1-3.1,4.2-5,7.3-4.1l51.7,14.5c1.5.4,2.8,1.4,3.6,2.8.8,1.4,1,3,.5,4.5l-40,138.6c-1,3.1-4.2,5-7.3,4.1ZM121.1,360c0-1.3.3-2.5.7-3.6.4-.5.7-1,.9-1.6.3-.4.6-.8,1-1.1l17.1-17.1c3.6-3.6,9.2-3.6,12.7,0,1.6,1.7,2.6,4,2.6,6.4s-.9,4.6-2.6,6.4c-.1.2-.3.3-.4.5l-15.9,15.9c-.3.2-.5.4-.7.6-1.7,1.6-4,2.6-6.4,2.6s-4.6-.9-6.4-2.6c-1.6-1.7-2.6-4-2.6-6.4ZM135.6,386.5c0-2.4.9-4.6,2.6-6.4l23-23.2c3.5-3.6,9.2-3.6,12.7,0,1.6,1.7,2.6,4,2.6,6.4s-.9,4.6-2.6,6.4l-24.3,24.3c-3.5,2.5-8.3,2.1-11.5-1.1-1.6-1.7-2.6-4-2.6-6.4ZM158.2,422.5c-2.4,0-4.6-.9-6.4-2.6-1.6-1.7-2.6-4-2.6-6.4s.9-4.6,2.6-6.4l5.2-5.2c.5-.4,1.1-.9,1.6-1.4.3-.3.5-.6.7-.9l22.4-22.3c1.7-1.7,4.1-2.6,6.4-2.6s4.5.9,6.3,2.6c1.6,1.7,2.6,4,2.6,6.4s-.7,4.1-2.1,5.8c-.2.2-.4.3-.5.5-.1.2-.3.3-.4.5l-20,20c-.3.2-.5.4-.7.6-.4.4-.7.8-1.1,1.2l-7.6,7.6c-1.7,1.6-4,2.6-6.4,2.6ZM180.8,431.6c-1.6-1.7-2.6-4-2.6-6.4s.9-4.6,2.6-6.4,0,0,0,0l21.1-21.1s0,0,0,0c0,0,0,0,0,0,3.6-3.6,9.2-3.6,12.7,0s3.6,9.2,0,12.7l-21.2,21.2c-1.7,1.6-4,2.6-6.4,2.6s-4.6-.9-6.4-2.6ZM339.6,372.4c-4,0-7.8-1.4-10.7-3.8l-43.9-43.9c-2.2-2.2-5.5-2.2-7.7,0s-2.2,5.5,0,7.7l42.3,42.3c.2.2.3.4.5.6.5.5,1.1,1,1.6,1.5l5.9,5.9c6.5,6.5,6.5,17.2,0,23.6-6.5,6.5-17.2,6.5-23.6,0l-7.5-7.5c-.4-.5-.9-1-1.3-1.4s-.4-.3-.6-.5l-40.9-40.9c-2.2-2.2-5.6-2.2-7.7,0s-2.1,5.5,0,7.7l42.3,42.3c2.6,3.1,4,6.8,4,11s-1.7,8.7-4.9,11.9c-6.5,6.5-17.2,6.5-23.6,0l-20.5-20.5c-2.2-2.2-5.6-2.2-7.7,0s-2.1,5.5,0,7.7c1.6,1.6,2.8,3.5,3.7,5.5.8,1.9,1.2,4.1,1.2,6.3,0,4.4-1.7,8.6-4.9,11.8-6.5,6.5-17.2,6.5-23.6,0l-5.6-5.6,15.9-15.9c7.7-7.7,7.7-20.3,0-28-4-4-9.3-5.9-14.6-5.7,0-.2,0-.4,0-.5,0-5.3-2.1-10.3-5.8-14s-9.3-5.9-14.5-5.7c0-.2,0-.4,0-.6,0-5.3-2.1-10.3-5.8-14s-9.3-5.9-14.6-5.7c0-.2,0-.4,0-.7,0-5.3-2.1-10.3-5.8-14-7.7-7.7-20.3-7.7-28,0l-15.9,15.9-9.4-9.4,32.1-111.4c19.8-4.2,40.6-5.6,54.6-6-13.3,12.1-22.8,26.9-28.9,38.3-6.3,11.8-4.1,26,5.3,35.4,11.8,11.8,30.8,11.8,42.5,0,0,0,0-.1.1-.1l25.1-27.2c2.9-3.1,6.5-5.3,10.6-6.5,7.9-2.2,16.4,0,22.2,5.8l80,80c3.1,3.2,4.9,7.5,4.9,11.9s0,1.1,0,1.7c-.2.7-.4,1.4-.3,2.1,0,0,0,0,0,0-.7,3-2.2,5.9-4.4,8.1-3.2,3.1-7.3,4.9-11.9,4.9ZM367,353.3c-.5-6.5-3.4-12.5-8-17.1l-80-80c-8.5-8.5-21.2-11.8-32.8-8.5-5.9,1.7-11.3,5.1-15.5,9.6l-24.8,27c-7.6,7.5-19.8,7.3-27.2-.1-5.9-6-7.3-15.1-3.3-22.7,7.2-13.6,19.6-32.2,37.5-43.8.7-.2,1.3-.6,1.8-1.1,4.2-2.6,8.5-4.7,12.9-6.2.9,0,1.8-.3,2.5-.8,9.9-3.1,20.4-3.6,31.2-1.6h.2c.2,0,7.8,1.1,18.9,4.1.7.4,1.5.6,2.3.6,7.4,2.1,16,4.9,24.9,8.6.6.4,1.3.7,2,.9,8.6,3.8,17.3,8.4,25.3,14.2,1.5,1.1,3.6,1.3,5.3.5l31.8-13.7,33.8,117.3c-14.2,8.7-30.2,11.9-38.7,13ZM482,335.7c-.8,1.4-2.1,2.4-3.6,2.8l-51.7,14.4c-3.1.9-6.5-1-7.3-4.1l-2-7.1c0-.2-.1-.5-.2-.7l-37.7-130.9c-.4-1.5-.2-3.1.5-4.5.8-1.4,2.1-2.4,3.6-2.8l51.7-14.4c.5-.1,1.1-.2,1.6-.2,2.5,0,5,1.7,5.7,4.3l40,138.6c.4,1.5.2,3.1-.5,4.5Z"/>
  <path class="cls-1" d="M412.9,209.1c-4.6,1.3-8.5,4.3-10.9,8.5-2.3,4.2-2.9,9.1-1.6,13.7,2.3,8,9.6,13.3,17.5,13.3s3.2-.2,4.8-.5c9.6-2.7,15.3-12.7,12.6-22.4s-12.7-15.3-22.4-12.6ZM419.8,233.5c-1.8.5-3.8.3-5.5-.6-1.7-1-2.9-2.6-3.5-4.4s-.3-3.8.6-5.5,2.6-2.9,4.4-3.5c.6-.2,1.3-.3,1.9-.3h0c3.2,0,6.2,2.2,7,5.4,1.1,3.9-1.2,7.9-5.1,9Z"/>
  <path class="cls-1" d="M277.9,132.5l-32.4,32.4-11.2-11.2c-2.2-2.1-5.6-2.1-7.7,0-2.1,2.2-2.1,5.6,0,7.7l15,15c1,1.1,2.4,1.6,3.8,1.6h0c1.4,0,2.8-.5,4-1.6l36.2-36.2c2.2-2.2,2.2-5.6,0-7.7-2.2-2.1-5.5-2.1-7.7,0Z"/>
</svg>