<svg width="512" height="512" viewBox="0 0 512 512" fill="none" xmlns="http://www.w3.org/2000/svg">
<g clip-path="url(#clip0_246_1476)">
<path d="M7.49997 399.21H214.889V328.771C214.889 305.921 199.919 285.761 178.029 279.151L131.93 265.221H90.4497L44.3499 279.151C22.4699 285.761 7.49997 305.921 7.49997 328.771V399.21Z" fill="#EE3328" fill-opacity="0.7"/>
<path d="M80.2308 363.117C80.1992 344.127 86.5521 325.678 98.2687 310.733C109.985 295.789 126.386 285.217 144.835 280.716L166.001 275.514L178.031 279.148C199.914 285.758 214.885 305.918 214.885 328.775V399.21H80.2308V363.117Z" fill="#DB1B10" fill-opacity="0.62"/>
<path d="M111.193 285.961C122.646 285.961 131.931 276.677 131.931 265.224V230.859L90.4537 230.935V265.224C90.4537 276.677 99.7387 285.961 111.193 285.961Z" fill="#C2C8D8"/>
<path d="M163.039 159.931V191.874C163.039 220.366 140.373 244.114 111.882 244.484C82.9317 244.859 59.3468 221.507 59.3468 192.647V159.931C59.3468 131.3 82.5597 108.09 111.193 108.09C139.827 108.09 163.039 131.3 163.039 159.931Z" fill="#C2C8D8"/>
<path d="M380.067 265.224L333.966 279.149C312.084 285.759 297.112 305.918 297.112 328.775V399.211H504.498V328.775C504.498 305.918 489.528 285.759 467.645 279.149L421.545 265.224H380.067Z" fill="#EE3328" fill-opacity="0.7"/>
<path d="M431.768 363.117C431.799 344.127 425.446 325.678 413.73 310.733C402.013 295.789 385.613 285.217 367.164 280.716L345.998 275.514L333.967 279.148C312.084 285.758 297.113 305.918 297.113 328.775V399.21H431.768V363.117Z" fill="#DB1B10" fill-opacity="0.62"/>
<path d="M400.806 285.961C389.353 285.961 380.068 276.677 380.068 265.224V230.859L421.545 230.935V265.224C421.545 276.677 412.26 285.961 400.806 285.961Z" fill="#C2C8D8"/>
<path d="M348.959 159.931V191.874C348.959 220.366 371.626 244.114 400.117 244.484C429.067 244.859 452.652 221.507 452.652 192.647V159.931C452.652 131.3 429.439 108.09 400.806 108.09C372.172 108.09 348.959 131.3 348.959 159.931Z" fill="#C2C8D8"/>
<path d="M223.674 286.306L150.62 304.26C123.525 310.919 104.476 335.217 104.476 363.118V447.931H407.524V363.118C407.524 335.217 388.475 310.919 361.379 304.26L288.324 286.306H223.674Z" fill="#EE3328"/>
<path d="M267.766 358.14L279.862 329.738L255.999 306.51L232.137 329.738L244.233 358.14H267.766Z" fill="#DE5791"/>
<path d="M267.766 358.14L279.862 386.543H232.137L244.233 358.14H267.766Z" fill="#E175A5"/>
<path d="M361.379 304.26L344.081 300.009C364.066 310.167 377.219 330.848 377.219 354.026V447.931H407.524V363.117C407.524 335.217 388.475 310.919 361.379 304.26Z" fill="#DB1B10"/>
<path d="M288.324 286.306L255.999 306.51L223.674 286.306V231.757H288.324V286.306Z" fill="#C2C8D8"/>
<path d="M223.674 257.511C233.896 261.858 244.891 264.093 255.999 264.082C267.107 264.093 278.102 261.858 288.324 257.511V231.757H223.674V257.511Z" fill="#C2C8D8"/>
<path d="M195.389 102.593V181.249C195.389 214.722 222.525 241.859 255.998 241.859C289.472 241.859 316.608 214.722 316.608 181.249V102.593H195.389Z" fill="#C2C8D8"/>
<path d="M290.345 102.593V181.249C290.345 210.211 270.025 234.414 242.867 240.415C247.179 241.372 251.582 241.856 255.999 241.859C289.473 241.859 316.609 214.722 316.609 181.249V102.593H290.345Z" fill="#C2C8D8"/>
<path d="M163.065 100.436V154.985H195.389L203.622 142.001C205.81 138.551 208.834 135.71 212.413 133.742C215.993 131.773 220.011 130.741 224.096 130.741H247.049C254.514 130.741 261.877 129.018 268.566 125.705C275.255 122.393 281.09 117.581 285.614 111.644L290.344 105.437C290.344 105.437 292.143 112.885 298.837 120.227C304.715 126.674 316.608 130.741 316.608 130.741V154.985H348.933V100.436C348.933 49.1094 307.325 7.50149 255.999 7.50149C204.672 7.50149 163.065 49.1094 163.065 100.436Z" fill="#525763"/>
<path d="M309.736 24.6044C305.279 47.1154 295.502 70.2283 280.334 91.5892C269.31 107.113 256.474 120.253 242.69 130.741H247.049C254.513 130.741 261.877 129.018 268.566 125.705C275.255 122.393 281.089 117.582 285.614 111.645L290.344 105.437C290.344 105.437 292.143 112.885 298.838 120.228C304.715 126.674 316.608 130.741 316.608 130.741V154.985H348.933V100.436C348.933 69.1323 333.456 41.4434 309.736 24.6044Z" fill="#26282F"/>
<path d="M332.771 179.229H316.608V130.741H332.771C341.697 130.741 348.933 137.978 348.933 146.904V163.066C348.933 171.993 341.697 179.229 332.771 179.229Z" fill="#C2C8D8"/>
<path d="M179.226 179.229H195.389V130.741H179.226C170.3 130.741 163.065 137.978 163.065 146.904V163.066C163.065 171.993 170.3 179.229 179.226 179.229Z" fill="#C2C8D8"/>
<path d="M223.674 264.083L190.199 294.533L210.445 336.048C212.857 340.995 219.402 342.135 223.345 338.296L255.999 306.51L223.674 286.306V264.083Z" fill="#DB1B10"/>
<path d="M288.324 264.083L321.799 294.533L301.553 336.048C299.141 340.995 292.596 342.135 288.653 338.296L255.999 306.51L288.324 286.306V264.083Z" fill="#DB1B10"/>
<path d="M329.179 431.32C329.179 471.737 296.415 504.5 255.999 504.5C215.583 504.5 182.82 471.737 182.82 431.32C182.82 390.904 215.583 358.14 255.999 358.14C296.415 358.14 329.179 390.904 329.179 431.32Z" fill="#C2C8D8"/>
<path d="M252.893 460.773L238.694 466.896C233.224 469.254 227.225 464.896 227.778 458.964L229.213 443.569C229.313 442.506 229.194 441.433 228.864 440.417C228.534 439.401 228 438.463 227.294 437.661L217.083 426.05C213.15 421.577 215.442 414.524 221.253 413.217L236.338 409.825C237.381 409.591 238.364 409.146 239.228 408.518C240.093 407.89 240.819 407.092 241.364 406.173L249.252 392.875C252.29 387.752 259.706 387.752 262.745 392.875L270.633 406.173C271.178 407.092 271.905 407.89 272.769 408.518C273.633 409.146 274.617 409.591 275.659 409.825L290.744 413.217C296.555 414.524 298.847 421.577 294.914 426.05L284.703 437.661C283.998 438.463 283.464 439.401 283.134 440.417C282.804 441.433 282.685 442.506 282.784 443.569L284.219 458.964C284.772 464.896 278.773 469.254 273.303 466.896L259.104 460.773C258.124 460.35 257.067 460.132 255.999 460.132C254.931 460.132 253.874 460.35 252.893 460.773Z" fill="white"/>
</g>
<defs>
<clipPath id="clip0_246_1476">
<rect width="512" height="512" fill="white"/>
</clipPath>
</defs>
</svg>
