<svg width="55" height="54" viewBox="0 0 55 54" fill="none" xmlns="http://www.w3.org/2000/svg">
<path d="M7.87072 42.3046C4.47357 37.9498 2.60889 32.5413 2.60889 27C2.60889 20.3512 5.19814 14.1012 9.89889 9.39937C14.5996 4.69863 20.8508 2.10938 27.4995 2.10938C29.1638 2.11043 30.8281 2.27496 32.4565 2.60297C33.0271 2.71793 33.584 2.34879 33.699 1.77715C33.8139 1.20656 33.4448 0.649688 32.8731 0.534727C31.1118 0.179297 29.3083 0 27.5122 0H27.4985C20.2876 0 13.507 2.80863 8.40756 7.90805C3.30815 13.0075 0.499512 19.788 0.499512 27C0.499512 33.0666 2.55932 38.9876 6.31084 43.7337C5.16439 45.4539 5.34896 47.8048 6.86561 49.3214C7.70197 50.1578 8.81467 50.6187 9.99803 50.6187C11.1814 50.6187 12.2941 50.1578 13.1304 49.3214C14.858 47.5938 14.858 44.7841 13.1304 43.0566C11.7087 41.6348 9.55295 41.3849 7.87178 42.3035L7.87072 42.3046ZM11.6381 47.8301C11.1993 48.2688 10.6171 48.5093 9.99697 48.5093C9.37682 48.5093 8.79463 48.2678 8.35588 47.8301C7.45096 46.9252 7.45096 45.4528 8.35588 44.5489C8.80834 44.0965 9.40213 43.8708 9.99697 43.8708C10.5918 43.8708 11.1856 44.0965 11.6381 44.5489C12.543 45.4539 12.543 46.9262 11.6381 47.8301Z" fill="#EE3328"/>
<path d="M48.6892 10.2674C49.1723 9.54598 49.4317 8.69801 49.4317 7.80996C49.4317 6.6266 48.9708 5.51391 48.1345 4.67754C46.4069 2.94996 43.5972 2.95102 41.8696 4.67754C40.1421 6.40512 40.1421 9.2148 41.8696 10.9424C42.7334 11.8062 43.8672 12.2375 45.0021 12.2375C45.7351 12.2375 46.4681 12.0561 47.1283 11.6954C50.5254 16.0502 52.3901 21.4587 52.3901 27C52.3901 33.6488 49.8009 39.8988 45.1001 44.6006C40.3994 49.3024 34.1483 51.8906 27.4995 51.8906H27.4879C25.8468 51.8906 24.1983 51.7282 22.5899 51.4065C22.0194 51.2926 21.4635 51.6628 21.3496 52.2345C21.2357 52.8061 21.6059 53.3609 22.1776 53.4748C23.922 53.8228 25.7087 54 27.4879 54H27.5006C34.7125 54 41.4931 51.1914 46.5925 46.092C51.6919 40.9925 54.5006 34.212 54.5006 27C54.5006 20.9334 52.4408 15.0135 48.6903 10.2674H48.6892ZM43.361 9.45105C42.456 8.54613 42.456 7.07379 43.361 6.16992C43.8134 5.71746 44.4072 5.49176 45.0021 5.49176C45.5969 5.49176 46.1907 5.71746 46.6431 6.16992C47.0819 6.60867 47.3224 7.19086 47.3224 7.81102C47.3224 8.43117 47.0808 9.01336 46.6431 9.45211C45.7382 10.357 44.2659 10.357 43.362 9.45211L43.361 9.45105Z" fill="#EE3328"/>
<path d="M23.1479 45.1406C23.1479 45.7228 23.6204 46.1953 24.2026 46.1953H30.7975C31.3797 46.1953 31.8522 45.7228 31.8522 45.1406V43.0956C33.2402 42.7222 34.5659 42.1727 35.8104 41.4555L37.2533 42.8994C37.4515 43.0977 37.7194 43.2084 37.9989 43.2084C38.2784 43.2084 38.5474 43.0977 38.7446 42.8994L43.4063 38.2345C43.8176 37.8221 43.8176 37.1545 43.4063 36.7432L41.9646 35.3014C42.6817 34.0569 43.2312 32.7301 43.6046 31.3432H45.6412C46.2234 31.3432 46.6959 30.8707 46.6959 30.2885V23.6936C46.6959 23.1114 46.2234 22.6389 45.6412 22.6389H43.6046C43.2312 21.2509 42.6817 19.9252 41.9646 18.6806L43.3989 17.2463C43.5972 17.048 43.7079 16.7801 43.7079 16.5006C43.7079 16.2211 43.5972 15.9521 43.3989 15.7549L38.734 11.0932C38.3227 10.6819 37.6551 10.6819 37.2427 11.0932L35.8104 12.5255C34.5659 11.8083 33.2402 11.2588 31.8522 10.8854V8.85938C31.8522 8.27719 31.3797 7.80469 30.7975 7.80469H24.2026C23.6204 7.80469 23.1479 8.27719 23.1479 8.85938V10.8854C21.7599 11.2588 20.4342 11.8083 19.1896 12.5255L17.7574 11.0932C17.346 10.6819 16.6784 10.6808 16.266 11.0932L11.6012 15.7549C11.4029 15.9532 11.2921 16.2211 11.2921 16.5006C11.2921 16.7801 11.4029 17.049 11.6012 17.2463L13.0355 18.6806C12.3183 19.9252 11.7688 21.2509 11.3955 22.6389H9.36205C8.77986 22.6389 8.30736 23.1103 8.30736 23.6925L8.3042 30.2875C8.3042 30.567 8.41494 30.8359 8.61322 31.0342C8.8115 31.2325 9.07939 31.3432 9.35889 31.3432H11.3955C11.7688 32.7312 12.3183 34.0569 13.0355 35.3014L11.5938 36.7432C11.1824 37.1545 11.1814 37.8221 11.5938 38.2345L16.2555 42.8994C16.4538 43.0977 16.7217 43.2084 17.0012 43.2084C17.2806 43.2084 17.5496 43.0977 17.7468 42.8994L19.1896 41.4555C20.4342 42.1727 21.761 42.7222 23.1479 43.0956V45.1406ZM19.6031 39.2375C19.1854 38.9675 18.6359 39.0255 18.2847 39.3778L17.0001 40.6624L13.8297 37.4899L15.1122 36.2064C15.4634 35.8552 15.5225 35.3057 15.2525 34.888C14.2969 33.4093 13.6251 31.7883 13.2549 30.067C13.1505 29.5808 12.7212 29.2338 12.2234 29.2338H10.4115L10.4136 24.7482H12.2224C12.7191 24.7482 13.1494 24.4013 13.2538 23.915C13.624 22.1938 14.2959 20.5717 15.2514 19.0941C15.5214 18.6764 15.4634 18.1269 15.1112 17.7757L13.836 16.5006L17.0085 13.3302L18.2826 14.6043C18.6338 14.9555 19.1833 15.0145 19.601 14.7445C21.0786 13.789 22.7007 13.1171 24.4219 12.747C24.9081 12.6425 25.2551 12.2133 25.2551 11.7155V9.91406H29.7407V11.7155C29.7407 12.2122 30.0877 12.6425 30.5739 12.747C32.2952 13.1171 33.9173 13.789 35.3949 14.7445C35.8126 15.0145 36.362 14.9565 36.7133 14.6043L37.9873 13.3302L41.1598 16.5006L39.8847 17.7757C39.5335 18.1269 39.4744 18.6764 39.7444 19.0941C40.7 20.5717 41.3718 22.1938 41.742 23.915C41.8464 24.4013 42.2757 24.7482 42.7735 24.7482H44.5854V29.2338H42.7735C42.2767 29.2338 41.8464 29.5808 41.742 30.067C41.3718 31.7883 40.7 33.4104 39.7444 34.888C39.4744 35.3057 39.5324 35.8552 39.8847 36.2064L41.1683 37.4899L37.9979 40.6624L36.7133 39.3778C36.362 39.0266 35.8126 38.9686 35.3949 39.2375C33.9173 40.1931 32.2952 40.866 30.5739 41.2351C30.0877 41.3395 29.7407 41.7688 29.7407 42.2666V44.0859H25.2551V42.2666C25.2551 41.7698 24.9081 41.3395 24.4219 41.2351C22.7007 40.8649 21.0786 40.1931 19.601 39.2375H19.6031Z" fill="#EE3328"/>
<path d="M36.2144 27C36.2144 22.1948 32.3047 18.2851 27.4995 18.2851C22.6944 18.2851 18.7846 22.1948 18.7846 27C18.7846 31.8052 22.6944 35.7149 27.4995 35.7149C32.3047 35.7149 36.2144 31.8052 36.2144 27ZM20.894 27C20.894 23.3582 23.8577 20.3945 27.4995 20.3945C31.1413 20.3945 34.105 23.3582 34.105 27C34.105 30.6418 31.1413 33.6055 27.4995 33.6055C23.8577 33.6055 20.894 30.6418 20.894 27Z" fill="#EE3328"/>
<path d="M37.2111 3.98777C37.2796 3.98777 37.3492 3.98145 37.4167 3.96773C37.4842 3.95402 37.5507 3.93398 37.614 3.90762C37.6783 3.88125 37.7395 3.84855 37.7964 3.81059C37.8544 3.77262 37.9082 3.72832 37.9567 3.6798C38.1529 3.48363 38.2658 3.21152 38.2658 2.93414C38.2658 2.65676 38.1529 2.38465 37.9567 2.18848C37.7606 1.99125 37.4885 1.8784 37.2111 1.8784C36.9337 1.8784 36.6616 1.99125 36.4654 2.18848C36.2692 2.38465 36.1564 2.6557 36.1564 2.93414C36.1564 3.21258 36.2692 3.48363 36.4654 3.6798C36.6616 3.87598 36.9326 3.98777 37.2111 3.98777Z" fill="#EE3328"/>
<path d="M18.8078 50.682C18.7815 50.6176 18.7488 50.5564 18.7108 50.4995C18.6728 50.4415 18.6285 50.3877 18.58 50.3392C18.3353 50.0945 17.9704 49.9816 17.6276 50.0513C17.5612 50.065 17.4947 50.085 17.4304 50.1114C17.3671 50.1377 17.306 50.1704 17.249 50.2084C17.191 50.2464 17.1372 50.2907 17.0887 50.3392C17.0402 50.3877 16.9959 50.4415 16.9569 50.4995C16.9189 50.5564 16.8862 50.6176 16.8598 50.682C16.8335 50.7452 16.8134 50.8117 16.7997 50.8792C16.786 50.9467 16.7797 51.0163 16.7797 51.0848C16.7797 51.1534 16.786 51.223 16.7997 51.2916C16.8134 51.358 16.8335 51.4245 16.8598 51.4888C16.8862 51.5521 16.9189 51.6132 16.9569 51.6702C16.9959 51.7282 17.0402 51.782 17.0887 51.8305C17.1372 51.879 17.191 51.9233 17.249 51.9623C17.306 52.0003 17.3671 52.033 17.4304 52.0594C17.4947 52.0857 17.5612 52.1058 17.6276 52.1195C17.6962 52.1332 17.7658 52.1395 17.8344 52.1395C18.1117 52.1395 18.3838 52.0267 18.58 51.8305C18.6285 51.782 18.6728 51.7282 18.7108 51.6702C18.7488 51.6132 18.7815 51.5521 18.8078 51.4888C18.8342 51.4245 18.8542 51.358 18.868 51.2916C18.8817 51.223 18.889 51.1534 18.889 51.0848C18.889 51.0163 18.8817 50.9467 18.868 50.8792C18.8542 50.8117 18.8342 50.7452 18.8078 50.682Z" fill="#EE3328"/>
</svg>
