<svg width="512" height="512" viewBox="0 0 512 512" fill="none" xmlns="http://www.w3.org/2000/svg">
<path d="M458.349 53.3414L449.302 18.6305C446.368 7.36954 432.313 3.55155 424.083 11.7805L385.296 50.5694C383.413 52.4524 382.063 54.8013 381.383 57.3763C380.704 59.9514 380.72 62.6605 381.43 65.2274L395.512 116.178L458.349 53.3414Z" fill="#C2C8D8"/>
<path d="M458.349 53.3414L493.06 62.3884C504.321 65.3234 508.138 79.3783 499.91 87.6063L461.121 126.394C459.238 128.277 456.889 129.628 454.314 130.307C451.739 130.986 449.03 130.97 446.463 130.26L395.512 116.178L458.349 53.3414Z" fill="#C2C8D8"/>
<path d="M437.784 289.584C437.784 408.356 341.499 504.641 222.726 504.641C103.953 504.641 7.66895 408.356 7.66895 289.584C7.66895 170.811 103.953 74.5263 222.726 74.5263C341.499 74.5263 437.784 170.811 437.784 289.584Z" fill="#EE3328"/>
<path d="M380.485 289.584C380.485 376.711 309.854 447.342 222.726 447.342C135.599 447.342 64.9668 376.711 64.9668 289.584C64.9668 202.456 135.599 131.825 222.726 131.825C309.854 131.825 380.485 202.456 380.485 289.584Z" fill="#272A33"/>
<path d="M322.893 289.584C322.893 344.904 278.046 389.75 222.726 389.75C167.407 389.75 122.561 344.904 122.561 289.584C122.561 234.264 167.407 189.417 222.726 189.417C278.046 189.417 322.893 234.264 322.893 289.584Z" fill="#EE3328"/>
<path d="M268.203 289.584C268.203 314.7 247.842 335.061 222.726 335.061C197.61 335.061 177.25 314.7 177.25 289.584C177.25 264.468 197.61 244.107 222.726 244.107C247.842 244.107 268.203 264.468 268.203 289.584Z" fill="#C2C8D8"/>
<path d="M148.567 434.192C148.567 473.1 117.026 504.641 78.1177 504.641C39.2098 504.641 7.66895 473.1 7.66895 434.192C7.66895 395.284 39.2098 363.743 78.1177 363.743C117.026 363.743 148.567 395.284 148.567 434.192Z" fill="#C2C8D8"/>
<path d="M114.584 405.65C109.068 400.561 100.472 400.908 95.3828 406.423L71.9758 431.796C71.7374 432.055 71.448 432.261 71.1259 432.402C70.8038 432.543 70.456 432.616 70.1043 432.616C69.7527 432.616 69.4048 432.543 69.0827 432.402C68.7606 432.261 68.4713 432.055 68.2328 431.796L60.9119 423.86C55.8109 418.331 47.1929 417.983 41.6639 423.084C36.1529 428.168 35.7869 436.748 40.8429 442.283L57.9889 461.051C64.4049 468.075 75.4578 468.102 81.9078 461.11L115.357 424.851C120.446 419.335 120.1 410.738 114.584 405.65Z" fill="#F9F7F8"/>
</svg>
