<svg width="54" height="54" viewBox="0 0 54 54" fill="none" xmlns="http://www.w3.org/2000/svg">
<g clip-path="url(#clip0_89_35)">
<path d="M53.8423 25.5744L47.926 9.64568C47.6921 9.01572 47.2253 8.51411 46.6118 8.23282C45.998 7.95206 45.3137 7.9257 44.6837 8.15921L40.7238 9.62976C39.4202 10.1141 38.7534 11.5688 39.2375 12.8724L39.3017 13.0454C38.3649 13.401 37.3192 13.0126 35.721 12.3432C33.3345 11.344 30.0978 10.0025 25.9888 12.5724C22.6539 10.4967 20.0371 11.0088 17.7197 11.4702C16.5425 11.7041 15.4213 11.9243 14.2634 11.8045C14.2308 11.5002 14.1473 11.2004 14.0034 10.9191C13.6955 10.3182 13.1739 9.8735 12.5347 9.6673L8.51478 8.37056C7.87533 8.16437 7.19221 8.22048 6.59146 8.52761C5.99071 8.83547 5.54605 9.35712 5.34007 9.99626L0.122214 26.1676C-0.304618 27.4911 0.424804 28.9151 1.74844 29.342L5.76827 30.6391C6.01809 30.7201 6.27905 30.7615 6.54167 30.7617C6.93644 30.7617 7.32889 30.6676 7.69139 30.4821C7.9153 30.3673 8.10884 30.2145 8.28507 30.0453C8.30986 30.1677 8.34308 30.2887 8.37303 30.4102L7.36665 32.2916C6.93507 33.099 6.85144 34.0779 7.13768 34.9772C7.41633 35.8528 8.004 36.552 8.77477 36.9371C9.42161 37.284 10.1631 37.4131 10.8891 37.3053C10.6884 37.9709 10.6922 38.7008 10.9098 39.3849C11.1884 40.2605 11.7761 40.96 12.5469 41.3451C13.3531 41.7762 14.2811 41.8662 15.1605 41.6002C15.5064 41.4958 15.8338 41.3378 16.1308 41.132C16.413 41.994 16.9962 42.682 17.7582 43.0627C18.5642 43.4939 19.4922 43.5838 20.3716 43.3178C20.5647 43.2593 20.7524 43.1842 20.9327 43.0934C21.1971 44.155 21.9519 45.1004 22.8928 45.6037C23.3422 45.8438 23.8715 45.9987 24.4208 45.9987C25.4192 45.9987 26.4838 45.487 27.2539 44.0475L27.4041 43.7665L27.5744 43.8557L27.976 44.0652C28.4679 44.3184 28.9487 44.43 29.4008 44.43C30.5285 44.43 31.4759 43.735 31.9602 42.8119C32.2937 42.1768 32.4111 41.4216 32.2493 40.6886C32.6562 40.7097 33.0676 40.6613 33.4697 40.5395C34.3729 40.2658 35.114 39.6595 35.5565 38.8321C35.9141 38.1636 36.0435 37.4133 35.9357 36.6733C36.6911 36.9869 37.5265 37.0277 38.3232 36.7864C39.2341 36.5104 39.9817 35.8984 40.428 35.064C40.7929 34.3815 40.9224 33.6145 40.8065 32.8597C42.0376 33.3504 43.2255 33.126 44.0503 32.2223C44.8864 31.3065 45.1676 29.9035 44.8549 28.6515L45.0578 28.5786L45.0694 28.5745L45.1538 28.8014C45.531 29.8165 46.4966 30.4452 47.5208 30.4452C47.8196 30.4451 48.1161 30.3917 48.3961 30.2875L52.3558 28.8169C53.6596 28.3326 54.3264 26.8782 53.8423 25.5744ZM7.55418 28.5652C7.46748 28.8336 7.28006 29.0531 7.02609 29.183C6.7717 29.313 6.4843 29.3369 6.2163 29.2505L2.19626 27.9531C1.63854 27.7732 1.3311 27.1732 1.51092 26.6155L6.72899 10.4443C6.81547 10.1761 7.00289 9.9566 7.25675 9.82667C7.40704 9.74912 7.57364 9.70848 7.74275 9.70812C7.8527 9.70819 7.96195 9.72548 8.06654 9.75938L12.0866 11.0563C12.3548 11.1428 12.5743 11.3302 12.7042 11.5841C12.8342 11.8381 12.8581 12.1255 12.7717 12.3939L8.60602 25.3052C8.58777 25.3404 8.57016 25.3765 8.5576 25.4155C8.52101 25.5283 8.49274 25.6425 8.46057 25.7561L7.55418 28.5652ZM9.44523 35.641C9.01196 35.4246 8.68628 35.0317 8.52839 34.5347C8.36091 34.0085 8.40657 33.4419 8.65358 32.98L9.79053 30.8543C9.79075 30.8541 9.79106 30.8539 9.79117 30.8535L10.3342 29.8381C10.8402 28.8927 12.0124 28.5273 12.9638 29.0074C13.5878 29.4437 14.5239 30.3716 13.8136 31.6992L13.4267 32.4227L12.1316 34.844C11.6178 35.8008 10.4216 36.1637 9.44523 35.641ZM15.9053 39.249C15.6583 39.7112 15.2433 40.0502 14.7368 40.2037C14.2307 40.3571 13.6971 40.3053 13.2173 40.0491C12.7841 39.8326 12.4584 39.4396 12.3005 38.9426C12.133 38.4167 12.1789 37.8499 12.4259 37.3882L13.4186 35.5326L14.7136 33.1113C14.9606 32.6493 15.3756 32.3104 15.8818 32.1569C16.3882 32.0031 16.9213 32.0551 17.3838 32.3023C17.8458 32.5493 18.1847 32.9643 18.3381 33.4708C18.4916 33.9769 18.4398 34.5105 18.1925 34.9727L17.8288 35.653C17.8286 35.6537 17.8281 35.6544 17.8277 35.6551L16.3502 38.4175L16.35 38.4179L15.9053 39.249ZM19.9481 41.9212C19.4417 42.0747 18.9086 42.0229 18.4286 41.7666C17.9954 41.5502 17.6699 41.1573 17.5118 40.6605C17.3448 40.135 17.39 39.5695 17.636 39.108L17.6372 39.1058L19.1147 36.3435L19.115 36.3426L19.1159 36.3412C19.3632 35.8801 19.7777 35.5422 20.2831 35.3889C20.789 35.2347 21.3226 35.2868 21.7848 35.5343C22.7439 36.0474 23.1069 37.2453 22.594 38.2044L21.8553 39.5857L21.2005 40.81L21.1997 40.8114L21.1166 40.9667C20.8696 41.4286 20.4544 41.7678 19.9481 41.9212ZM23.5811 44.3167C22.6245 43.8051 21.94 42.5217 22.4875 41.4981L23.1423 40.2738L23.1431 40.2721C23.3984 39.7961 23.8524 39.4137 24.389 39.2231C24.9247 39.0327 25.4625 39.0581 25.9037 39.2941C26.8653 39.8082 27.0204 40.258 27.0531 40.5516C27.103 40.9955 26.9151 41.5858 26.4446 42.4655L26.4437 42.4676L25.9669 43.3591C25.1592 44.8705 24.1257 44.6077 23.5811 44.3167ZM30.668 42.1341C30.3238 42.7908 29.5647 43.2417 28.6439 42.768L28.2529 42.564C28.1883 42.5298 28.128 42.4981 28.072 42.4689C28.3675 41.8116 28.5828 41.0974 28.5035 40.3893C28.4141 39.5908 27.971 38.9249 27.1671 38.3632L30.0411 39.9066C31.0015 40.5809 30.9982 41.5049 30.668 42.1341ZM42.9724 31.2385C42.5025 31.7537 41.8576 31.7974 41.055 31.3677L38.9736 30.2546L38.9693 30.2525C38.948 30.2411 38.9257 30.2346 38.9039 30.2255L32.1926 26.5825C31.8392 26.3898 31.3957 26.5214 31.2033 26.8758C31.1576 26.96 31.1289 27.0524 31.1189 27.1477C31.1089 27.243 31.1178 27.3393 31.145 27.4312C31.1723 27.5231 31.2174 27.6087 31.2777 27.6831C31.338 27.7576 31.4124 27.8194 31.4966 27.8651L38.3499 31.5852C38.8035 31.8512 39.1404 32.2696 39.2954 32.7805C39.4584 33.3183 39.4035 33.8847 39.1408 34.3758C38.8783 34.8667 38.4374 35.2269 37.8996 35.3899C37.3609 35.5526 36.7949 35.498 36.3043 35.2355L34.235 34.1287C34.1986 34.0987 34.1594 34.0723 34.1179 34.0499L29.1239 31.3797C29.0394 31.3345 28.9468 31.3064 28.8515 31.297C28.7561 31.2876 28.6598 31.297 28.5681 31.3248C28.4764 31.3527 28.3911 31.3983 28.317 31.4591C28.243 31.5199 28.1816 31.5947 28.1365 31.6793C28.0913 31.7638 28.0632 31.8563 28.0538 31.9517C28.0444 32.0471 28.0538 32.1433 28.0817 32.235C28.1095 32.3267 28.1551 32.4121 28.2159 32.4861C28.2767 32.5602 28.3515 32.6215 28.436 32.6667L33.3045 35.2697C33.3405 35.2993 33.3797 35.3262 33.4224 35.3489C33.9063 35.6077 34.2612 36.0419 34.4217 36.5721C34.5822 37.102 34.5281 37.6602 34.2694 38.1439C34.0107 38.6278 33.5763 38.9823 33.0463 39.1432C32.5166 39.3035 31.9582 39.2496 31.4745 38.9909L30.4181 38.426C30.3661 38.3989 30.3109 38.3783 30.2539 38.3645L25.9902 36.0751C25.6351 35.8831 25.1926 36.0174 25.0023 36.3727C24.9569 36.4571 24.9286 36.5496 24.9191 36.645C24.9095 36.7403 24.9188 36.8366 24.9464 36.9284C24.974 37.0201 25.0195 37.1055 25.0801 37.1797C25.1408 37.2539 25.2155 37.3154 25.2999 37.3607L26.196 37.8418C25.5876 37.6176 24.9213 37.5752 24.2545 37.7412C24.4429 36.3597 23.7723 34.942 22.4729 34.247C21.6745 33.82 20.7558 33.727 19.8838 33.9848C19.8773 33.667 19.8271 33.3515 19.7347 33.0473C19.4681 32.1677 18.8774 31.4461 18.0716 31.0151C17.2616 30.5823 16.3543 30.5077 15.5331 30.7367C15.5191 29.497 14.7322 28.4661 13.7951 27.8081C13.7628 27.7833 13.7284 27.7611 13.6925 27.7419C12.2934 26.9939 10.6025 27.3172 9.5662 28.4241C9.54943 27.6652 9.65321 26.9032 9.86405 26.1574L14.0289 13.2488C15.4368 13.4118 16.7394 13.1535 18.0039 12.9014C20.1061 12.4833 22.1026 12.0859 24.6825 13.4921C24.1205 13.9396 23.5552 14.4503 22.9931 15.0181C22.5482 15.468 22.0907 15.9172 21.6444 16.3554C20.0172 17.9536 18.6119 19.3338 18.2101 20.3134C18.1623 20.4298 18.1455 20.5566 18.1612 20.6814C18.1769 20.8062 18.2246 20.9248 18.2996 21.0258C21.204 24.9318 24.7239 23.6064 27.5509 22.5418C29.6704 21.7434 31.501 21.0536 32.9592 22.2075C32.9867 22.2294 33.0157 22.2491 33.0461 22.2667C33.7425 22.6702 34.7017 23.1439 35.8124 23.6924C38.4978 25.0188 42.1756 26.8353 43.1259 28.2798C43.7645 29.2498 43.5619 30.5926 42.9724 31.2385ZM44.2318 27.325C42.9578 25.5973 39.3667 23.8202 36.459 22.3843C35.3954 21.8589 34.4735 21.4038 33.8212 21.0291C31.7266 19.4103 29.3429 20.3077 27.0369 21.1762C24.3038 22.2049 21.9272 23.0995 19.7564 20.5168C20.2663 19.7548 21.484 18.559 22.6671 17.397C23.1184 16.9537 23.5807 16.4996 24.0306 16.0449C24.8102 15.2575 25.5904 14.5951 26.351 14.0717C30.027 11.5438 32.7521 12.6828 35.1571 13.6892C36.2816 14.1601 37.4295 14.6406 38.5648 14.6406C38.9819 14.6406 39.3967 14.5644 39.8086 14.4105L44.5612 27.2064L44.2318 27.325ZM51.848 27.4488L47.8883 28.9194C47.3372 29.1227 46.7255 28.8424 46.5217 28.2932L40.6057 12.3639C40.5076 12.0998 40.519 11.8117 40.6377 11.5522C40.7567 11.2929 40.9676 11.096 41.2318 10.9978L45.1915 9.52724C45.3088 9.48353 45.4329 9.4611 45.558 9.46101C45.7096 9.46101 45.861 9.49402 46.0037 9.5593C46.2628 9.67806 46.4597 9.88921 46.5578 10.1536L52.4741 26.0825C52.6781 26.632 52.3972 27.2447 51.848 27.4488Z" fill="#EE3328"/>
</g>
<defs>
<clipPath id="clip0_89_35">
<rect width="54" height="54" fill="white"/>
</clipPath>
</defs>
</svg>
