<svg xmlns="http://www.w3.org/2000/svg" version="1.1" xmlns:xlink="http://www.w3.org/1999/xlink" width="512" height="512" x="0" y="0" viewBox="0 0 512 512" style="enable-background:new 0 0 512 512" xml:space="preserve"><g><path d="M483.257 93.492h-78.373v-.119c0-15.884-12.921-28.805-28.804-28.805h-9.481V12.119c0-3.38-2.74-6.121-6.122-6.121H151.522a6.123 6.123 0 0 0-6.122 6.121v28.924h-9.603c-15.885 0-28.806 12.921-28.806 28.805v23.644H28.74a6.123 6.123 0 0 0-6.12 6.123v304.85a6.122 6.122 0 0 0 6.12 6.123h170.67v35.484c-.099 15.243-12.536 27.644-27.726 27.644h-24.482a6.123 6.123 0 0 0-6.122 6.122v20.043a6.123 6.123 0 0 0 6.122 6.121h217.475a6.123 6.123 0 0 0 6.123-6.121v-20.043a6.123 6.123 0 0 0-6.123-6.122h-24.483c-15.221 0-27.604-12.384-27.604-27.605v-35.523h170.667a6.123 6.123 0 0 0 6.123-6.123V99.615a6.123 6.123 0 0 0-6.123-6.123zm-302.931 96.737c1.88 0 3.658-.866 4.819-2.349l48.81-62.339h189.292c1.353 0 2.325.467 3.141 1.422 1.148 1.432 1.081 2.638.932 3.406l-33 169.441c-.734 3.674-3.844 6.239-7.56 6.239H125.117c-3.712 0-6.763-2.521-7.434-6.208l-20.41-104.933c-.158-.781-.233-1.993.705-3.234.87-1.026 1.814-1.444 3.254-1.444h79.094zM376.08 76.811c9.131 0 16.561 7.431 16.561 16.562v19.925h-26.042V76.811zm-218.436-58.57h196.712v95.056h-123.38a6.119 6.119 0 0 0-4.82 2.348l-48.81 62.34h-19.702zm-38.408 51.607c0-9.132 7.429-16.562 16.562-16.562h9.603v124.699h-26.165zm220.957 416.11h18.362v7.801H153.324v-7.801h18.36c16.788 0 31.21-10.515 37.107-25.324h59.149a6.122 6.122 0 1 0 0-12.244h-56.418c.051-.758.126-1.511.13-2.28v-35.523h88.694v35.523c0 21.973 17.874 39.848 39.847 39.848zm136.944-87.613H34.863v-292.61h72.129v72.25h-5.76c-5.035 0-9.387 1.993-12.789 6.012-2.982 3.916-4.11 8.645-3.18 13.282l20.39 104.822c1.704 9.382 9.89 16.191 19.464 16.191H386.76c9.627 0 17.672-6.613 19.569-16.113l33.01-169.479c.918-4.755-.287-9.509-3.508-13.529-3.268-3.843-7.619-5.874-12.584-5.874h-18.363v-7.563h72.253zM52.503 353.577h406.869a6.122 6.122 0 0 1 0 12.243H52.503a6.124 6.124 0 0 1-6.121-6.122 6.123 6.123 0 0 1 6.121-6.121zm216.398 28.444a6.123 6.123 0 0 1-6.121 6.123H250.3a6.123 6.123 0 0 1 0-12.245h12.48a6.124 6.124 0 0 1 6.121 6.122zm45.967-104.538c18.519 0 35.117-8.242 46.437-21.205 2.984-.406 5.294-2.941 5.294-6.039v-.947c6.276-9.659 9.961-21.147 9.961-33.499 0-34.018-27.676-61.691-61.691-61.691-34.016 0-61.689 27.673-61.689 61.691-.001 34.017 27.672 61.69 61.688 61.69zm0-111.137c27.266 0 49.449 22.181 49.449 49.448 0 27.266-22.184 49.445-49.449 49.445-27.266 0-49.446-22.18-49.446-49.445 0-27.267 22.18-49.448 49.446-49.448zm-33.725 49.448a6.12 6.12 0 0 1 6.12-6.121h21.484v-21.365a6.123 6.123 0 0 1 6.121-6.122 6.123 6.123 0 0 1 6.121 6.122v21.365h21.363a6.121 6.121 0 1 1 0 12.243h-21.363v21.362a6.123 6.123 0 0 1-6.121 6.122 6.123 6.123 0 0 1-6.121-6.122v-21.362h-21.484a6.122 6.122 0 0 1-6.12-6.122z" fill="#000000" opacity="1" data-original="#000000"></path></g></svg>