<?xml version="1.0" encoding="UTF-8"?>
<svg id="Layer_1" data-name="Layer 1" xmlns="http://www.w3.org/2000/svg" version="1.1" viewBox="0 0 430.1 630">
  <defs>
    <style>
      .cls-1 {
        fill: #24262d;
        stroke-width: 0px;
      }
    </style>
  </defs>
  <path class="cls-1" d="M0,0v630h430.1V0H0ZM410,318.3L111.6,616.8c-1.5,1.5-3.9,1.5-5.3,0l-86-86c-1.5-1.5-1.5-3.9,0-5.3l202.9-202.9c4.2-4.2,4.2-11,0-15.1L19.9,104.1c-1.5-1.5-1.5-3.9,0-5.3L105.8,12.8c1.5-1.5,5.4,0,5.4,0l298.9,298.9c1.8,1.8,1.8,4.8,0,6.7ZM76.4,384.7l1.2-138.7,68.7,68.8-69.9,69.9Z"/>
</svg>