<svg xmlns="http://www.w3.org/2000/svg" version="1.1" xmlns:xlink="http://www.w3.org/1999/xlink" width="512" height="512" x="0" y="0" viewBox="0 0 592.506 592.506" style="enable-background:new 0 0 512 512" xml:space="preserve" class=""><g><path fill-rule="evenodd" d="m145.839 572.699-41.715 18.299c-9.051 3.97-19.669-.167-23.648-9.214L5.865 412.167a17.873 17.873 0 0 1 9.222-23.673l41.715-18.299c9.051-3.97 19.67.167 23.648 9.213l74.611 169.617a17.874 17.874 0 0 1-9.222 23.674zm-28.55-359.273 11.704 29.722a2.418 2.418 0 0 0 2.147 1.559l31.884 1.947c1.033.063 1.877.717 2.197 1.701s.021 2.01-.778 2.667l-24.651 20.317a2.423 2.423 0 0 0-.82 2.523l8.001 30.925c.259 1.001-.101 2.007-.938 2.616s-1.905.641-2.777.085l-26.939-17.165a2.42 2.42 0 0 0-2.653 0L86.725 307.49a2.426 2.426 0 0 1-2.777-.085 2.428 2.428 0 0 1-.939-2.616l8.001-30.925a2.42 2.42 0 0 0-.82-2.523l-24.651-20.317c-.799-.658-1.097-1.684-.778-2.668s1.164-1.638 2.197-1.701l31.884-1.947a2.423 2.423 0 0 0 2.147-1.559l11.704-29.722a2.428 2.428 0 0 1 2.297-1.564c1.039 0 1.92.6 2.299 1.563zm185.539-27.876 15.64 39.715a2.418 2.418 0 0 0 2.147 1.559l42.604 2.602a2.427 2.427 0 0 1 2.197 1.701c.32.984.021 2.01-.778 2.668L331.7 260.942a2.423 2.423 0 0 0-.82 2.523l10.691 41.324c.259 1.002-.102 2.007-.939 2.616s-1.905.641-2.777.085l-35.997-22.937a2.424 2.424 0 0 0-2.653 0l-35.996 22.937a2.426 2.426 0 0 1-2.777-.085 2.428 2.428 0 0 1-.939-2.616l10.691-41.324a2.42 2.42 0 0 0-.82-2.523l-32.938-27.147a2.43 2.43 0 0 1-.778-2.668 2.428 2.428 0 0 1 2.197-1.701l42.604-2.602a2.423 2.423 0 0 0 2.147-1.559l15.64-39.715a2.428 2.428 0 0 1 2.297-1.564c1.033 0 1.915.601 2.295 1.564zm185.537 27.876 11.704 29.722a2.418 2.418 0 0 0 2.147 1.559l31.884 1.947a2.427 2.427 0 0 1 2.197 1.701c.32.984.021 2.01-.778 2.667l-24.651 20.317a2.423 2.423 0 0 0-.82 2.523l8.001 30.925c.259 1.001-.101 2.007-.938 2.616s-1.905.641-2.777.085l-26.939-17.165a2.42 2.42 0 0 0-2.653 0l-26.939 17.165a2.426 2.426 0 0 1-2.777-.085 2.428 2.428 0 0 1-.939-2.616l8.001-30.925a2.42 2.42 0 0 0-.82-2.523l-24.651-20.317a2.428 2.428 0 0 1-.778-2.667 2.428 2.428 0 0 1 2.197-1.701l31.884-1.947a2.423 2.423 0 0 0 2.147-1.559l11.704-29.722a2.428 2.428 0 0 1 2.297-1.564c1.038 0 1.918.601 2.297 1.564zM265.343 35.199c0 19.444 15.761 35.204 35.204 35.204s35.204-15.761 35.204-35.204C335.751 15.761 319.991 0 300.548 0c-19.444 0-35.205 15.761-35.205 35.199zm283.975 126.607c0 34.93-126.496 34.93-126.496 0s28.321-63.246 63.25-63.246 63.246 28.317 63.246 63.246zM456.839 52.481c0 16.146 13.087 29.233 29.233 29.233s29.233-13.087 29.233-29.233c0-16.141-13.087-29.228-29.233-29.228s-29.233 13.089-29.233 29.228zM178.241 161.806c0 34.93-126.497 34.93-126.497 0s28.321-63.246 63.25-63.246 63.247 28.317 63.247 63.246zM85.762 52.481c0 16.146 13.087 29.233 29.233 29.233s29.233-13.087 29.233-29.233c0-16.141-13.087-29.228-29.233-29.228-16.145 0-29.233 13.089-29.233 29.228zm290.951 114.374c0-42.064-34.1-76.166-76.166-76.166s-76.17 34.101-76.17 76.166c0 16.291 22.855 26.269 50.857 29.941l6.921-17.578a19.71 19.71 0 0 1 18.376-12.513 19.71 19.71 0 0 1 18.376 12.513l6.924 17.581c28.012-3.668 50.882-13.648 50.882-29.944zm31.681 260.856c-6.521 23.708-32.547 38.772-56.605 32.345l-105.003-28.051a8.63 8.63 0 0 1 4.456-16.674l105.464 28.175c14.624 3.908 31.413-5.268 35.021-20.254 3.682-15.29-5.06-30.961-20.255-35.021l-79.358-21.201c-.957-.256-1.878-.711-2.734-1.316-25.338-17.941-44.115-24.435-61.31-23.979-17.28.458-34.069 8.031-54.648 18.113-23.344 11.435-45.909 22.188-68.28 32.772l51.362 116.763 28.849-14.054c13.893-6.767 28.197-7.97 43.035-3.674l87.523 25.343c23.034 6.669 53.132-5.07 77.007-14.381l169.552-65.483c13.161-5.083 22.642-18.176 25.106-31.404 1.752-9.406-.067-19.047-8.016-25.104-9.961-7.589-28.911-9.827-60.012-.676l-109.75 32.285c.399 4.905.109 9.973-1.404 15.476z" clip-rule="evenodd" fill="#FFFFFF" opacity="1" data-original="#FFFFFF" class=""></path></g></svg>