<svg xmlns="http://www.w3.org/2000/svg" version="1.1" xmlns:xlink="http://www.w3.org/1999/xlink" width="512" height="512" x="0" y="0" viewBox="0 0 500 500" style="enable-background:new 0 0 512 512" xml:space="preserve" class=""><g><path fill-rule="evenodd" d="M106.876 235.39c8.148 0 14.779 6.637 14.779 14.784s-6.631 14.779-14.779 14.779c-8.147 0-14.772-6.631-14.772-14.779s6.625-14.784 14.772-14.784zm95.272-94.051c8.147 0 14.773 6.631 14.773 14.778 0 8.148-6.625 14.785-14.773 14.785-8.153 0-14.778-6.637-14.778-14.785 0-8.147 6.625-14.778 14.778-14.778zm95.385 94.051c8.147 0 14.778 6.637 14.778 14.784s-6.631 14.779-14.778 14.779c-8.148 0-14.779-6.631-14.779-14.779s6.631-14.784 14.779-14.784zm95.26-94.051c8.147 0 14.778 6.631 14.778 14.778 0 8.148-6.631 14.785-14.778 14.785s-14.779-6.637-14.779-14.785c.001-8.147 6.632-14.778 14.779-14.778zM106.876 278.61c22.154 0 35.622-24.253 24.436-42.967l55.993-55.285a28.308 28.308 0 0 0 29.693-.006l56.087 55.309c-11.161 18.758 2.336 42.949 24.448 42.949 22.086 0 35.646-24.16 24.43-42.967l55.987-55.285c18.809 11.556 43.273-1.994 43.273-24.242 0-15.675-12.755-28.43-28.43-28.43-22.081 0-35.648 24.152-24.43 42.961l-55.993 55.285a28.317 28.317 0 0 0-29.698.006l-56.087-55.309c11.184-18.753-2.326-42.943-24.436-42.943-22.072 0-35.644 24.124-24.436 42.961l-55.993 55.285c-18.764-11.545-43.273 1.961-43.273 24.241-.001 15.676 12.754 28.437 28.429 28.437zm263.699 138.215V227.767h44.807v189.058zm-95.319 0V314.828h44.801v101.998h-44.801zm-95.325 0V244.292h44.813v172.533zm-95.314 0v-81.662h44.801v81.662zm58.459-27.946h23.197v27.946h-23.197zm95.325 0h23.197v27.946h-23.197zm95.314 0h23.203v27.946h-23.203zM60.588 375.222h10.371v-46.884c0-3.77 3.062-6.832 6.826-6.832h58.465c3.764 0 6.826 3.062 6.826 6.832v46.884h23.197V237.466a6.828 6.828 0 0 1 6.832-6.832h58.465c3.77 0 6.832 3.05 6.832 6.832v137.755h23.197v-67.226a6.826 6.826 0 0 1 6.826-6.826h58.459a6.823 6.823 0 0 1 6.832 6.826v67.226h23.203v-154.28a6.831 6.831 0 0 1 6.832-6.826h58.459a6.831 6.831 0 0 1 6.832 6.826v154.28h10.366c9.734 0 17.657-7.917 17.657-17.657V100.832c0-9.729-7.923-17.658-17.657-17.658H60.588c-9.729 0-17.663 7.929-17.663 17.658v256.732c0 9.74 7.934 17.658 17.663 17.658zm407.921 41.603H429.04v-27.946h10.366c17.262 0 31.315-14.047 31.315-31.315V100.832c0-17.268-14.053-31.315-31.315-31.315H60.588c-17.262 0-31.315 14.047-31.315 31.315v256.732c0 17.268 14.053 31.315 31.315 31.315h10.371v27.946H31.491a6.826 6.826 0 0 0-6.826 6.826 6.827 6.827 0 0 0 6.826 6.832h437.017a6.829 6.829 0 0 0 .001-13.658z" clip-rule="evenodd" fill="#FFFFFF" opacity="1" data-original="#000000" class=""></path></g></svg>