<svg xmlns="http://www.w3.org/2000/svg" version="1.1" xmlns:xlink="http://www.w3.org/1999/xlink" width="512" height="512" x="0" y="0" viewBox="0 0 64 64" style="enable-background:new 0 0 512 512" xml:space="preserve" class=""><g><path d="M32 17c-4.411 0-8 3.589-8 8s3.589 8 8 8 8-3.589 8-8-3.589-8-8-8zm0 14c-3.309 0-6-2.691-6-6s2.691-6 6-6 6 2.691 6 6-2.691 6-6 6z" fill="#FFFFFF" opacity="1" data-original="#FFFFFF" class=""></path><path d="M32 21c-2.206 0-4 1.794-4 4s1.794 4 4 4 4-1.794 4-4-1.794-4-4-4zm0 6c-1.103 0-2-.897-2-2s.897-2 2-2 2 .897 2 2-.897 2-2 2z" fill="#FFFFFF" opacity="1" data-original="#FFFFFF" class=""></path><path d="M58 20a5.01 5.01 0 0 0-4.899 4h-2.148a18.95 18.95 0 0 0-4.83-11.71l1.857-1.857c.596.352 1.28.567 2.02.567 2.206 0 4-1.794 4-4s-1.794-4-4-4-4 1.794-4 4c0 .74.215 1.424.567 2.019l-1.863 1.863a18.869 18.869 0 0 0-8.964-4.504C35.9 5.947 36 5.486 36 5c0-2.206-1.794-4-4-4s-4 1.794-4 4c0 .486.1.947.26 1.378a18.87 18.87 0 0 0-8.963 4.504l-1.863-1.863A3.956 3.956 0 0 0 18 7c0-2.206-1.794-4-4-4s-4 1.794-4 4 1.794 4 4 4c.74 0 1.424-.215 2.019-.567l1.857 1.857a18.95 18.95 0 0 0-4.83 11.709h-2.148A5.008 5.008 0 0 0 6 20c-2.757 0-5 2.243-5 5s2.243 5 5 5a5.01 5.01 0 0 0 4.899-4h2.148a18.933 18.933 0 0 0 4.836 11.704l-1.863 1.863A3.954 3.954 0 0 0 14 39c-2.206 0-4 1.794-4 4s1.794 4 4 4 4-1.794 4-4c0-.74-.215-1.424-.567-2.019l1.796-1.796 2.331 2.542a9.252 9.252 0 0 1 2.382 5.279A3 3 0 0 0 21 50c0 .771.301 1.468.78 2a2.976 2.976 0 0 0-.78 2c0 1.654 1.346 3 3 3h.08c.488 3.387 3.401 6 6.92 6h2c3.519 0 6.432-2.613 6.92-6H40c1.654 0 3-1.346 3-3a2.98 2.98 0 0 0-.78-2c.48-.532.78-1.229.78-2a3 3 0 0 0-2.942-2.994 9.254 9.254 0 0 1 2.382-5.279l2.331-2.542 1.796 1.796A3.947 3.947 0 0 0 46 43c0 2.206 1.794 4 4 4s4-1.794 4-4-1.794-4-4-4c-.74 0-1.424.215-2.019.567l-1.863-1.863A18.938 18.938 0 0 0 50.954 26h2.148a5.009 5.009 0 0 0 4.899 4c2.757 0 5-2.243 5-5S60.757 20 58 20zM6 28c-1.654 0-3-1.346-3-3s1.346-3 3-3 3 1.346 3 3-1.346 3-3 3zm42.953-4H45v-2.708l-1.826-.645a13.424 13.424 0 0 0-.196-.471l.836-1.748-1.914-1.915 2.811-2.811A16.97 16.97 0 0 1 48.953 24zm-7.502 4.242c-.13.38-.29.765-.477 1.146l-.214.435.639 1.334-3.242 3.242-1.335-.638-.436.214a9.742 9.742 0 0 1-1.146.477l-.458.157-.49 1.391h-4.584l-.491-1.392-.458-.157a9.742 9.742 0 0 1-1.146-.477l-.436-.214-1.335.638-3.242-3.242.639-1.334-.214-.435a9.84 9.84 0 0 1-.477-1.146l-.156-.458L21 27.292v-4.585l1.393-.491.156-.458c.13-.38.29-.765.477-1.146l.214-.435-.639-1.334 3.242-3.242 1.335.638.436-.214a9.742 9.742 0 0 1 1.146-.477l.458-.157.49-1.391h4.584l.491 1.392.458.157c.385.132.771.292 1.146.477l.436.214 1.335-.638 3.242 3.242-.639 1.334.214.435c.187.381.347.766.477 1.146l.156.458 1.392.491v4.585l-1.393.491zM32 51c-1.103 0-2-.897-2-2s.897-2 2-2 2 .897 2 2-.897 2-2 2zM50 5c1.103 0 2 .897 2 2s-.897 2-2 2-2-.897-2-2 .897-2 2-2zm-9.515 10.101-1.914-1.915-1.749.836a11.393 11.393 0 0 0-.471-.196L35.708 12H33V8.858a3.991 3.991 0 0 0 1.398-.676 16.877 16.877 0 0 1 8.889 4.117zM32 3c1.103 0 2 .897 2 2s-.897 2-2 2-2-.897-2-2 .897-2 2-2zm-2.398 5.182c.413.311.884.542 1.398.676V12h-2.708l-.644 1.826c-.158.062-.315.127-.471.196l-1.749-.836-1.914 1.915-2.802-2.802a16.884 16.884 0 0 1 8.89-4.117zM14 9c-1.103 0-2-.897-2-2s.897-2 2-2 2 .897 2 2-.897 2-2 2zm5.29 4.704 2.811 2.811-1.914 1.915.836 1.748c-.069.157-.135.314-.196.471L19 21.292V24h-3.953a16.954 16.954 0 0 1 4.243-10.296zM15.047 26H19v2.708l1.826.645c.062.157.127.314.196.471l-.836 1.748 1.914 1.915-2.8 2.8A16.947 16.947 0 0 1 15.047 26zM14 45c-1.103 0-2-.897-2-2s.897-2 2-2 2 .897 2 2-.897 2-2 2zm6.645-7.231 2.87-2.87 1.914 1.915 1.749-.836c.155.069.313.134.471.196L28.292 38H31v7.142A3.995 3.995 0 0 0 28.556 47h-2.603a11.261 11.261 0 0 0-2.919-6.625zM24 49h4c0 .732.212 1.409.556 2H24a1.001 1.001 0 0 1 0-2zm9 12h-2a5.01 5.01 0 0 1-4.899-4h11.798A5.01 5.01 0 0 1 33 61zm7-6H24a1.001 1.001 0 0 1 0-2h16a1.001 1.001 0 0 1 0 2zm1-5c0 .551-.448 1-1 1h-4.556A3.959 3.959 0 0 0 36 49h4c.552 0 1 .449 1 1zm-.034-9.625A11.255 11.255 0 0 0 38.047 47h-2.603A3.992 3.992 0 0 0 33 45.142V38h2.708l.644-1.826c.158-.062.315-.127.471-.196l1.749.836 1.914-1.915 2.87 2.87zM50 41c1.103 0 2 .897 2 2s-.897 2-2 2-2-.897-2-2 .897-2 2-2zm-5.301-4.715-2.8-2.8 1.914-1.915-.836-1.748c.069-.157.135-.314.196-.471L45 28.708V26h3.953a16.932 16.932 0 0 1-4.254 10.285zM58 28c-1.654 0-3-1.346-3-3s1.346-3 3-3 3 1.346 3 3-1.346 3-3 3z" fill="#FFFFFF" opacity="1" data-original="#FFFFFF" class=""></path></g></svg>