<svg xmlns="http://www.w3.org/2000/svg" version="1.1" xmlns:xlink="http://www.w3.org/1999/xlink" width="512" height="512" x="0" y="0" viewBox="0 0 512 512" style="enable-background:new 0 0 512 512" xml:space="preserve"><g><path d="M431.935 135.582h-78.646c-4.143 0-7.5 3.357-7.5 7.5s3.357 7.5 7.5 7.5h78.646c4.143 0 7.5-3.357 7.5-7.5s-3.358-7.5-7.5-7.5zM439.435 180.805c0-4.143-3.357-7.5-7.5-7.5h-78.646c-4.143 0-7.5 3.357-7.5 7.5s3.357 7.5 7.5 7.5h78.646a7.5 7.5 0 0 0 7.5-7.5zM353.288 211.027c-4.143 0-7.5 3.357-7.5 7.5s3.357 7.5 7.5 7.5h51.963c4.143 0 7.5-3.357 7.5-7.5s-3.357-7.5-7.5-7.5zM495.955 459.5h-42.371V331.383c0-5.79-4.71-10.5-10.5-10.5H263.5V298c0-4.143-3.357-7.5-7.5-7.5s-7.5 3.357-7.5 7.5v22.883H108.342V215.154h40.752v28.808c0 5.79 4.71 10.5 10.5 10.5h37.654c5.79 0 10.5-4.71 10.5-10.5v-28.808H248.5V263c0 4.143 3.357 7.5 7.5 7.5s7.5-3.357 7.5-7.5v-52.346c0-5.79-4.71-10.5-10.5-10.5H103.842c-5.79 0-10.5 4.71-10.5 10.5v110.229H68.916c-5.79 0-10.5 4.71-10.5 10.5V459.5H16.045c-5.79 0-10.5 4.71-10.5 10.5v31.5c0 5.79 4.71 10.5 10.5 10.5h479.91c5.79 0 10.5-4.71 10.5-10.5V470c0-5.79-4.71-10.5-10.5-10.5zM164.094 215.155h28.654v24.307h-28.654zm190.084 120.728h28.654v24.308h-28.654zm-192.582 0h33.65v24.308h-33.65zm-88.18 0h73.18v28.808c0 5.79 4.71 10.5 10.5 10.5h42.65c5.79 0 10.5-4.71 10.5-10.5v-28.808h73.18V459.5H73.416zM491.455 497H20.545v-22.5H381c4.143 0 7.5-3.357 7.5-7.5s-3.357-7.5-7.5-7.5h-82.574V335.883h40.752v28.808c0 5.79 4.71 10.5 10.5 10.5h37.654c5.79 0 10.5-4.71 10.5-10.5v-28.808h40.752V459.5H416c-4.143 0-7.5 3.357-7.5 7.5s3.357 7.5 7.5 7.5h75.455z" fill="#000000" opacity="1" data-original="#000000"></path><path d="M298.854 131.595v136.474c0 5.79 4.71 10.5 10.5 10.5H475.87c5.79 0 10.5-4.71 10.5-10.5V200c0-4.143-3.357-7.5-7.5-7.5s-7.5 3.357-7.5 7.5v63.569H313.854v-130.24l.053.001c18.836 0 35.86-7.866 47.996-20.47h70.032c4.143 0 7.5-3.357 7.5-7.5s-3.357-7.5-7.5-7.5h-59.137a66.238 66.238 0 0 0 7.463-37.542h91.108V165c0 4.143 3.357 7.5 7.5 7.5s7.5-3.357 7.5-7.5V55.818c0-5.79-4.71-10.5-10.5-10.5h-98.824C368.123 19.001 343.2 0 313.906 0c-36.759 0-66.665 29.906-66.665 66.665 0 31.581 22.082 58.085 51.613 64.93zM313.906 15c28.488 0 51.665 23.177 51.665 51.665s-23.177 51.665-51.665 51.665-51.665-23.177-51.665-51.665S285.418 15 313.906 15z" fill="#000000" opacity="1" data-original="#000000"></path><path d="M304.844 88.699a7.48 7.48 0 0 0 5.304 2.196 7.477 7.477 0 0 0 5.303-2.196l30.5-30.499a7.5 7.5 0 1 0-10.605-10.607l-25.197 25.196-17.679-17.68a7.5 7.5 0 0 0-10.607 10.607z" fill="#000000" opacity="1" data-original="#000000"></path></g></svg>