<svg xmlns="http://www.w3.org/2000/svg" version="1.1" xmlns:xlink="http://www.w3.org/1999/xlink" width="512" height="512" x="0" y="0" viewBox="0 0 64 64" style="enable-background:new 0 0 512 512" xml:space="preserve" class=""><g><path d="M18.83 42.59c-.49.06-.88.47-.88.98v4.18c0 .55.45 1 1 1h.74v3.19c0 1.88 1.53 3.41 3.41 3.41h5.61c1.88 0 3.41-1.53 3.41-3.41v-3.19h.74c.55 0 1-.45 1-1v-4.18c0-.51-.38-.91-.88-.97 0-2.36 1.04-4.74 2.91-6.71a13.57 13.57 0 0 0 3.77-9.39c0-7.58-6.17-13.75-13.75-13.75S12.16 18.92 12.16 26.5c0 3.5 1.34 6.84 3.77 9.39 1.88 1.97 2.91 4.35 2.92 6.71zm13.02 4.16h-11.9v-2.18h11.9zm-1.74 5.19c0 .77-.63 1.41-1.41 1.41h-5.61c-.78 0-1.41-.63-1.41-1.41v-3.19h8.42v3.19zm-4.21-37.2c6.48 0 11.75 5.27 11.75 11.75 0 2.99-1.14 5.83-3.22 8.01-2.22 2.34-3.45 5.2-3.47 8.06H20.82c-.01-2.86-1.24-5.73-3.47-8.06-2.07-2.18-3.22-5.02-3.22-8.01 0-6.48 5.27-11.75 11.75-11.75z" fill="#000000" opacity="1" data-original="#000000" class=""></path><path d="M17.44 28.96c-.14.52-.07 1.07.2 1.54l.65 1.13a2.03 2.03 0 0 0 2.78.74l.37-.24c.54.43 1.15.78 1.77 1.04v.43c0 1.12.91 2.03 2.03 2.03h1.31c1.12 0 2.03-.91 2.03-2.03l-.02-.44c.64-.26 1.25-.6 1.79-1.01l.37.21a2.024 2.024 0 0 0 2.77-.75l.65-1.13c.56-.97.23-2.22-.75-2.78l-.39-.23c.05-.33.07-.67.07-1s-.02-.67-.06-1.02l.37-.22c.97-.56 1.3-1.81.74-2.78l-.65-1.13a2.022 2.022 0 0 0-2.77-.75l-.37.24c-.54-.43-1.15-.78-1.77-1.04v-.43c0-1.12-.91-2.03-2.03-2.03h-1.31c-1.12 0-2.03.91-2.03 2.03l.02.44c-.64.26-1.25.6-1.79 1.01l-.37-.21a2.022 2.022 0 0 0-2.77.75l-.65 1.13c-.56.97-.23 2.22.74 2.78l.39.23c-.05.34-.07.67-.07 1s.03.67.06 1.02l-.37.21c-.47.27-.81.71-.95 1.24zm2.63-6.62.37.21c.71.41 1.61.36 2.24-.14.39-.31.83-.56 1.29-.75.74-.29 1.24-1.05 1.24-1.87l.03-.46 1.34.03v.43c0 .82.5 1.57 1.24 1.87.46.18.9.44 1.29.75.63.49 1.53.55 2.24.14l.42-.2.64 1.18-.38.22c-.72.42-1.11 1.22-.99 2.04.03.23.05.47.05.71s-.02.48-.05.71c-.12.82.27 1.62.99 2.04l.38.26-.7 1.14-.37-.21c-.71-.41-1.61-.35-2.24.14-.39.31-.83.56-1.29.75-.74.29-1.24 1.05-1.24 1.87l-.03.46-1.34-.03v-.43c0-.82-.5-1.58-1.24-1.87-.47-.19-.9-.44-1.29-.75-.35-.27-.78-.41-1.21-.41-.35 0-.71.09-1.02.27l-.42.2-.64-1.18.37-.22c.72-.42 1.11-1.22.99-2.04-.03-.23-.05-.47-.05-.71s.02-.48.05-.71c.12-.82-.27-1.62-.99-2.04l-.38-.26z" fill="#000000" opacity="1" data-original="#000000" class=""></path><path d="M25.9 30.15c2.01 0 3.65-1.64 3.65-3.65s-1.64-3.65-3.65-3.65-3.65 1.64-3.65 3.65 1.64 3.65 3.65 3.65zm0-5.31c.91 0 1.65.74 1.65 1.65s-.74 1.65-1.65 1.65-1.65-.74-1.65-1.65.74-1.65 1.65-1.65z" fill="#000000" opacity="1" data-original="#000000" class=""></path><path d="M5.03 63h41.74a2.97 2.97 0 0 0 2.97-2.97v-47.7s-.01-.04-.01-.06c0-.09-.02-.17-.05-.26l-.03-.09a.837.837 0 0 0-.2-.29L39.12 1.29c-.09-.09-.19-.15-.29-.2-.03-.01-.06-.02-.1-.03a.751.751 0 0 0-.26-.05c-.02 0-.04-.01-.06-.01H5.03a2.97 2.97 0 0 0-2.97 2.97v56.05a2.97 2.97 0 0 0 2.97 2.97zM39.42 4.41l3.46 3.46 3.46 3.46H40.4a.97.97 0 0 1-.97-.97V4.42zM4.06 3.97c0-.54.44-.97.97-.97h32.38v7.36a2.97 2.97 0 0 0 2.97 2.97h7.36v46.7c0 .54-.44.97-.97.97H5.03a.97.97 0 0 1-.97-.97zM52.89 52.3l3.55 10.03c.14.4.52.67.94.67s.8-.27.94-.67l3.55-10.03c.03-.1.05-.2.05-.3V13.43c0-1.1-.9-2-2-2h-5.11c-1.1 0-2 .9-2 2V52c0 .1.02.2.05.3zm1.94-1.33V22.61h1.55v28.36zm3.55-28.36h1.55v28.36h-1.55zm1.55-2h-5.11v-1.95h5.11zm-2.55 38.4-2.14-6.04h4.28zm2.55-45.58v3.23h-5.11v-3.23z" fill="#000000" opacity="1" data-original="#000000" class=""></path></g></svg>