<svg width="1137" height="322" viewBox="0 0 1137 322" fill="none" xmlns="http://www.w3.org/2000/svg">
<g clip-path="url(#clip0_206_1373)">
<path d="M0 138.583V0H31.283L60.812 39.6244C63.3295 42.9814 67.147 48.1919 72.2851 55.2765C77.4233 62.3611 81.8392 68.4778 85.5536 73.6471C89.2679 78.7958 91.1457 81.3701 91.2076 81.3701H91.3933C91.4552 80.2168 91.4965 78.734 91.4965 76.9216C91.4346 76.0155 91.3933 75.0475 91.3933 74.0178C91.3933 70.9286 91.3521 64.8119 91.2902 55.709C91.2283 46.5855 91.187 38.5947 91.187 31.6954V0H124.492V138.583H93.1267L64.7533 100.029C61.204 95.1275 56.7468 88.9284 51.3817 81.4319C46.0165 73.9354 41.6831 67.8599 38.3609 63.2261C35.0386 58.5923 33.3465 56.265 33.2846 56.265H33.0989C33.037 57.4801 32.9957 58.8806 32.9957 60.4252C33.0576 61.2078 33.0989 62.0316 33.0989 62.9378C33.0989 65.5739 33.1401 71.6288 33.2021 81.1024C33.264 90.576 33.3052 99.5348 33.3052 107.958V138.583H0Z" fill="white"/>
<path d="M155.404 138.583V0H256.289V31.1188H188.709V53.8349H241.68V83.0177H188.709V107.464H257.466V138.583H155.404Z" fill="white"/>
<path d="M273.231 138.583L319.701 67.9423L275.274 0H315.368L332.021 27.1646C332.537 28.0707 333.424 29.6771 334.683 32.0043C335.941 34.3316 337.056 36.3705 338.026 38.1416C338.995 39.9128 339.511 40.7983 339.573 40.7983H339.759C339.759 40.7983 340.316 39.9128 341.265 38.1416C342.194 36.3705 343.308 34.3316 344.567 32.0043C345.826 29.6977 346.713 28.0707 347.229 27.1646L363.881 0H403.976L359.527 67.9423L405.998 138.583H366.296L350.035 113.848C349.581 113.066 348.508 111.212 346.795 108.246C345.083 105.281 343.494 102.542 342.049 100.029C340.605 97.5165 339.841 96.2602 339.78 96.2602H339.594C339.594 96.2602 338.768 97.4959 337.324 99.9878C335.879 102.48 334.27 105.198 332.537 108.205C330.803 111.212 329.689 113.086 329.235 113.848L312.974 138.583H273.272H273.231Z" fill="white"/>
<path d="M409.856 31.1188V0H527.106V31.1188H484.886V138.583H451.581V31.1188H409.856Z" fill="white"/>
<path d="M208.952 166.694H246.323L271.559 203.703C276.161 210.458 278.534 213.857 278.679 213.857H278.864C279.05 213.857 281.464 210.479 286.066 203.703L311.303 166.694H348.591L295.434 243.904V305.277H262.129V243.904L208.973 166.694H208.952Z" fill="white"/>
<path d="M363.861 305.256V166.674H395.144L424.673 206.298C427.19 209.655 431.008 214.866 436.146 221.95C441.284 229.035 445.7 235.152 449.414 240.321C453.129 245.47 455.007 248.044 455.068 248.044H455.254C455.316 246.891 455.357 245.408 455.357 243.596C455.295 242.689 455.254 241.721 455.254 240.692C455.254 237.602 455.213 231.486 455.151 222.383C455.089 213.259 455.048 205.269 455.048 198.369V166.674H488.353V305.256H456.988L428.614 266.703C425.065 261.801 420.608 255.602 415.242 248.106C409.877 240.609 405.544 234.534 402.222 229.9C398.899 225.266 397.207 222.939 397.145 222.939H396.96C396.898 224.154 396.857 225.554 396.857 227.099C396.918 227.882 396.96 228.705 396.96 229.612C396.96 232.248 397.001 238.303 397.063 247.776C397.125 257.25 397.166 266.209 397.166 274.632V305.256H363.861Z" fill="white"/>
<path d="M499.806 305.256L555.294 166.674H586.866L642.436 305.256H606.51L598.566 283.611H543.676L535.732 305.256H499.806ZM554.324 254.428H587.835L577.951 227.47C577.105 225.204 576.135 222.362 575 218.923C573.865 215.484 572.957 212.642 572.297 210.417C571.637 208.193 571.245 207.081 571.183 207.081H570.997C570.997 207.081 570.564 208.193 569.883 210.417C569.202 212.642 568.315 215.484 567.221 218.923C566.127 222.362 565.157 225.225 564.311 227.47L554.345 254.428H554.324Z" fill="white"/>
<path d="M653.847 305.256V166.674H685.13L711.172 208.708C714.081 213.404 716.537 217.481 718.539 220.941C720.54 224.381 721.758 226.522 722.212 227.367C722.666 228.211 722.913 228.623 722.996 228.623H723.285C723.285 228.623 723.615 228.211 724.069 227.367C724.523 226.522 725.74 224.381 727.742 220.941C729.744 217.502 732.199 213.424 735.109 208.708L761.15 166.674H792.433V305.256H759.706V271.44C759.706 261.843 759.809 252.904 760.036 244.625C760.263 236.346 760.428 230.559 760.572 227.284L760.758 222.362H760.572C760.572 222.362 759.541 223.927 757.663 227.037C755.785 230.168 753.783 233.586 751.617 237.335C749.45 241.083 748.274 243.06 748.088 243.328L731.828 271.069H714.494L698.234 243.328C698.048 243.06 696.872 241.083 694.705 237.335C692.538 233.607 690.516 230.168 688.659 227.037C686.781 223.907 685.811 222.362 685.749 222.362H685.564L685.749 227.284C685.873 230.58 686.059 236.346 686.286 244.625C686.513 252.904 686.616 261.843 686.616 271.44V305.256H653.888H653.847Z" fill="white"/>
<path d="M823.386 305.256V166.674H856.691V305.256H823.386Z" fill="white"/>
<path d="M877.512 235.975C877.512 225.74 879.411 216.143 883.187 207.184C886.984 198.225 892.081 190.605 898.519 184.282C904.957 177.96 912.613 173.017 921.445 169.413C930.297 165.809 939.645 163.997 949.529 163.997C963.025 163.997 975.344 167.312 986.466 173.944C997.609 180.575 1006.3 189.534 1012.57 200.82L978.687 209.717C975.529 205.783 971.258 202.674 965.913 200.346C960.569 198.019 955.101 196.866 949.55 196.866C938.18 196.866 929.142 200.491 922.394 207.74C915.646 214.989 912.283 224.401 912.283 235.996C912.283 247.591 915.749 257.209 922.683 264.252C929.616 271.316 938.572 274.838 949.55 274.838C956.132 274.838 962.344 273.334 968.183 270.286C974.023 267.259 978.398 263.367 981.307 258.589L1015 267.28C1009.19 279.719 1000.44 289.625 988.715 296.998C976.995 304.371 963.953 308.057 949.55 308.057C936.384 308.057 924.313 304.989 913.314 298.831C902.336 292.673 893.608 284.085 887.169 273.026C880.731 261.987 877.512 249.63 877.512 235.975Z" fill="white"/>
<path d="M1024.02 266.27L1055.97 257.744C1057.97 263.552 1061.43 268.536 1066.37 272.675C1071.3 276.815 1077.22 278.874 1084.13 278.874C1089.81 278.874 1094.14 277.721 1097.11 275.435C1100.08 273.149 1101.57 270.183 1101.57 266.559C1101.57 264.746 1101.1 263.078 1100.17 261.575C1099.24 260.051 1098.08 258.774 1096.72 257.744C1095.36 256.714 1093.4 255.623 1090.82 254.449C1088.24 253.296 1085.89 252.307 1083.74 251.545C1081.62 250.763 1078.66 249.733 1074.89 248.435C1071.11 247.138 1067.98 246.005 1065.44 245.037C1062.14 243.74 1059.31 242.566 1056.91 241.495C1054.52 240.424 1051.82 239.044 1048.78 237.335C1045.75 235.625 1043.19 233.772 1041.13 231.815C1039.07 229.859 1037.08 227.573 1035.17 225.019C1033.27 222.465 1031.84 219.5 1030.91 216.143C1029.99 212.786 1029.51 209.14 1029.51 205.186C1029.51 194.168 1034.51 184.53 1044.47 176.312C1054.44 168.095 1066.8 163.976 1081.51 163.976C1094.59 163.976 1106.07 167.539 1115.95 174.665C1125.84 181.79 1132.46 190.893 1135.82 201.994L1103.51 210.726C1101.9 204.918 1098.83 200.449 1094.31 197.34C1089.79 194.23 1084.83 192.685 1079.49 192.685C1074.7 192.685 1070.93 193.715 1068.12 195.733C1065.31 197.772 1063.91 200.243 1063.91 203.147C1063.91 204.445 1064.14 205.619 1064.59 206.69C1065.05 207.761 1065.89 208.79 1067.15 209.799C1068.41 210.809 1069.54 211.653 1070.53 212.374C1071.52 213.074 1073.22 213.918 1075.57 214.845C1077.92 215.793 1079.74 216.513 1081.04 217.028C1082.32 217.543 1084.55 218.346 1087.72 219.458C1090.88 220.571 1093.17 221.374 1094.62 221.889C1099.22 223.577 1103.36 225.266 1107.06 226.975C1110.75 228.685 1114.55 230.847 1118.43 233.422C1122.33 236.017 1125.57 238.756 1128.15 241.66C1130.75 244.563 1132.87 248.023 1134.52 252.039C1136.17 256.055 1137 260.339 1137 264.932C1137 277.618 1131.99 287.977 1121.94 296.009C1111.89 304.041 1098.8 308.078 1082.69 308.078C1068.43 308.078 1056.23 304.391 1046.14 297.039C1036.03 289.666 1028.67 279.431 1024.02 266.291V266.27Z" fill="white"/>
<path d="M204.309 200.161C197.85 189.431 189.163 181.173 178.268 175.365C167.351 169.557 155.321 166.674 142.156 166.674H82.5202C81.9836 166.674 81.5503 167.106 81.5503 167.642V183.706C81.5503 183.953 81.6535 184.2 81.8392 184.385C92.3012 194.827 102.763 205.269 113.205 215.69C113.824 216.307 114.856 215.875 114.856 215.01V198.74C114.856 198.205 115.289 197.772 115.825 197.772H142.156C152.412 197.772 161.161 201.356 168.404 208.502C175.626 215.648 179.258 224.998 179.258 236.532C179.258 248.065 175.667 257.126 168.507 263.923C161.347 270.719 152.556 274.117 142.177 274.117H115.846C115.309 274.117 114.876 273.685 114.876 273.149V257.003C114.876 256.138 113.844 255.705 113.225 256.323C102.763 266.765 92.3012 277.206 81.8598 287.627C81.6741 287.813 81.5709 288.06 81.5709 288.307V304.268C81.5709 304.803 82.0043 305.236 82.5408 305.236H142.177C152.061 305.236 161.388 303.588 170.158 300.314C178.928 297.019 186.563 292.446 193.001 286.536C199.46 280.646 204.577 273.376 208.354 264.746C212.13 256.117 214.008 246.705 214.008 236.532C214.008 223.001 210.789 210.87 204.33 200.14L204.309 200.161Z" fill="white"/>
<path d="M19.8307 216.452L39.3928 235.975L19.5005 255.808L19.8307 216.452Z" fill="#EE3328"/>
<path d="M114.381 236.985L29.5082 321.691C29.0954 322.103 28.4145 322.103 27.9811 321.691L3.52843 297.286C3.11572 296.874 3.11572 296.195 3.52843 295.762L61.2245 238.179C62.4213 236.985 62.4213 235.069 61.2245 233.875L3.42525 176.168C3.01255 175.756 3.01255 175.077 3.42525 174.644L27.878 150.239C28.2907 149.827 29.405 150.239 29.405 150.239L114.401 235.069C114.917 235.584 114.917 236.449 114.401 236.964L114.381 236.985Z" fill="#EE3328"/>
</g>
<defs>
<clipPath id="clip0_206_1373">
<rect width="1137" height="322" fill="white"/>
</clipPath>
</defs>
</svg>
