<svg xmlns="http://www.w3.org/2000/svg" version="1.1" xmlns:xlink="http://www.w3.org/1999/xlink" width="512" height="512" x="0" y="0" viewBox="0 0 512 512" style="enable-background:new 0 0 512 512" xml:space="preserve"><g><path d="M143.098 291.145h51.936a7.5 7.5 0 0 0 7.5-7.5v-95.147a7.5 7.5 0 0 0-7.5-7.5h-51.936a7.5 7.5 0 0 0-7.5 7.5v95.147a7.5 7.5 0 0 0 7.5 7.5zm7.5-95.148h36.936v80.147h-36.936zm70.202-53.742a7.5 7.5 0 0 0-7.5 7.5v133.889a7.5 7.5 0 0 0 7.5 7.5h51.935a7.5 7.5 0 0 0 7.5-7.5V149.755a7.5 7.5 0 0 0-7.5-7.5zm44.435 133.89H228.3v-118.89h36.935zm25.766-165.131v172.631a7.5 7.5 0 0 0 7.5 7.5h51.936a7.5 7.5 0 0 0 7.5-7.5V111.014a7.5 7.5 0 0 0-7.5-7.5h-51.936a7.5 7.5 0 0 0-7.5 7.5zm15 7.5h36.936v157.631h-36.936zm70.202 172.631h51.935a7.5 7.5 0 0 0 7.5-7.5V72.271a7.5 7.5 0 0 0-7.5-7.5h-51.935a7.5 7.5 0 0 0-7.5 7.5v211.373a7.5 7.5 0 0 0 7.5 7.501zm7.5-211.374h36.935v196.373h-36.935zm-234.156 72.182c1.63.437 3.282.652 4.923.652 3.258 0 6.47-.852 9.358-2.52l135.273-78.1a18.689 18.689 0 0 0 2.11 13.339 18.705 18.705 0 0 0 11.429 8.772 18.707 18.707 0 0 0 14.285-1.882 18.7 18.7 0 0 0 8.772-11.43l11.19-41.765c1.301-4.855.633-9.928-1.882-14.284s-6.574-7.471-11.43-8.772l-44.112-11.82c-10.026-2.686-20.369 3.284-23.056 13.311a18.702 18.702 0 0 0 1.882 14.285 18.693 18.693 0 0 0 10.498 8.497l-133.786 77.24c-8.989 5.191-12.08 16.727-6.89 25.716 2.509 4.346 6.57 7.456 11.436 8.761zm2.955-21.486 149.436-86.276a7.5 7.5 0 0 0-1.809-13.74l-16.528-4.429c-1.33-.356-2.025-1.27-2.321-1.783s-.74-1.572-.384-2.901a3.832 3.832 0 0 1 4.685-2.705l44.112 11.82c1.33.356 2.025 1.27 2.321 1.783s.74 1.572.383 2.902l-11.19 41.765c-.356 1.33-1.27 2.025-1.783 2.321s-1.573.739-2.902.383a3.811 3.811 0 0 1-2.322-1.783 3.805 3.805 0 0 1-.383-2.901l4.428-16.528a7.5 7.5 0 0 0-10.994-8.436l-150.924 87.136c-1.18.681-2.323.524-2.899.369-.577-.154-1.646-.59-2.327-1.77-1.036-1.797-.394-4.19 1.401-5.227zm324.175 204.351c-4.73-8.194-12.396-14.063-21.588-16.527s-18.768-1.215-26.963 3.518l-82.162 47.438a40.246 40.246 0 0 0-1.313-12.593c-5.767-21.517-27.963-34.331-49.48-28.567l-33.597 9.002c-12.906 3.459-24.806 1.892-36.378-4.789l-44.788-25.858c-17.792-10.273-35.699-3.55-56.435 4.232-11.895 4.465-25.19 9.451-40.901 12.413l-.972-3.627c-1.947-7.264-9.438-11.59-16.702-9.644l-24.707 6.621a13.544 13.544 0 0 0-8.275 6.359 13.546 13.546 0 0 0-1.368 10.344l44.279 165.252a13.544 13.544 0 0 0 6.357 8.274 13.58 13.58 0 0 0 6.806 1.838c1.181 0 2.369-.155 3.539-.469l24.708-6.62a13.541 13.541 0 0 0 8.275-6.359 13.546 13.546 0 0 0 1.368-10.344l-.124-.463c36.63-8.208 59.475-1.697 90.365 7.112 5.552 1.583 11.294 3.221 17.427 4.865 5.265 1.411 10.459 2.115 15.57 2.115 9.916 0 19.514-2.652 28.671-7.939L463.67 383.367c8.194-4.729 14.062-12.396 16.525-21.588 2.462-9.191 1.212-18.765-3.518-26.961zM89.463 493.194l-43.574-162.62 22.074-5.915 41.81 156.038.001.003.001.004 1.762 6.576zm376.243-135.296c-1.425 5.32-4.811 9.751-9.535 12.478L270.789 477.411c-10.452 6.035-21.2 7.451-32.859 4.325-6.018-1.612-11.701-3.233-17.196-4.8-32.007-9.128-57.667-16.433-98.363-7.182L86.963 337.612c16.424-3.199 30.057-8.307 42.281-12.895 21.032-7.895 32.525-11.715 43.663-5.285l44.788 25.858c14.981 8.649 31.049 10.763 47.761 6.288l33.596-9.002c13.528-3.625 27.483 4.433 31.109 17.96 1.925 7.186.554 14.491-3.181 20.306-.206.264-.392.54-.559.826a25.283 25.283 0 0 1-14.221 9.976l-49.129 13.164c-8.425 2.258-16.655 2.334-24.461.229a7.5 7.5 0 0 0-3.907 14.483 59.202 59.202 0 0 0 15.477 2.048c5.522 0 11.128-.757 16.774-2.27l49.129-13.164c9.175-2.458 16.759-7.91 22.004-15.017l97.539-56.316c4.725-2.728 10.259-3.445 15.58-2.019s9.753 4.813 12.48 9.538c2.728 4.723 3.445 10.257 2.02 15.578z" fill="#FFFFFF" opacity="1" data-original="#FFFFFF"></path></g></svg>