<svg xmlns="http://www.w3.org/2000/svg" version="1.1" xmlns:xlink="http://www.w3.org/1999/xlink" width="512" height="512" x="0" y="0" viewBox="0 0 300 300" style="enable-background:new 0 0 512 512" xml:space="preserve"><g><path d="M206 61.891c6.617 0 12-5.383 12-12s-5.383-12-12-12-12 5.383-12 12 5.383 12 12 12zm0-16c2.205 0 4 1.795 4 4s-1.795 4-4 4-4-1.795-4-4 1.795-4 4-4zM118.397 56.26a4.276 4.276 0 1 0 0-8.552 4.276 4.276 0 0 0 0 8.552zM49.375 52.938c.781.781 1.805 1.172 2.828 1.172s2.047-.391 2.828-1.172l3.172-3.172 3.172 3.172c.781.781 1.805 1.172 2.828 1.172s2.047-.391 2.828-1.172a4 4 0 0 0 0-5.656l-3.172-3.172 3.172-3.172a4 4 0 1 0-5.656-5.656l-3.172 3.172-3.172-3.172a4 4 0 1 0-5.656 5.656l3.172 3.172-3.172 3.172a3.997 3.997 0 0 0 0 5.656zM239.471 73.891H60.527C48.105 73.891 38 83.996 38 96.418v118.943c0 12.422 10.105 22.529 22.527 22.529h64.17l-5.714 20H78a4 4 0 0 0 0 8h148a4 4 0 0 0 0-8h-40.983l-5.714-20h60.168c12.422 0 22.529-10.107 22.529-22.529V96.418c0-12.422-10.107-22.527-22.529-22.527zm-178.944 8H239.47c8.012 0 14.529 6.518 14.529 14.527v105.473H46V96.418c0-8.01 6.518-14.527 14.527-14.527zm116.17 176h-49.395l5.714-20h37.966zm62.774-28H60.527c-8.01 0-14.527-6.518-14.527-14.529v-5.471h208v5.471c0 8.011-6.518 14.529-14.529 14.529z" fill="#000000" opacity="1" data-original="#000000"></path><path d="M151.596 213.891a6.117 6.117 0 1 0 0 12.233 6.117 6.117 0 0 0 0-12.233zM75.881 140.949a4.007 4.007 0 0 0 4.238 0c2.122-1.325 9.65-6.264 14.809-12.474l8.243 8.243a4 4 0 0 0 6.674-1.728l5.176-18.113 3.4 6.803a4 4 0 0 0 3.578 2.211h12a4 4 0 0 0 0-8h-9.527l-6.895-13.789c-.736-1.475-2.303-2.363-3.949-2.193a4 4 0 0 0-3.475 2.883l-6.133 21.465-4.826-4.826c.505-1.404.805-2.825.805-4.246 0-8.248-6.561-14.959-14.623-14.959a14.27 14.27 0 0 0-7.377 2.045 14.27 14.27 0 0 0-7.377-2.045c-8.062 0-14.623 6.711-14.623 14.959.001 10.803 16.563 21.692 19.882 23.764zm-5.258-30.724c1.695 0 3.312.682 4.553 1.916a3.995 3.995 0 0 0 5.648 0c1.24-1.234 2.857-1.916 4.553-1.916 3.652 0 6.623 3.121 6.623 6.959 0 .219-.103.474-.143.707H82a4 4 0 0 0 0 8h4.365c-2.55 2.499-5.584 4.951-8.365 6.875-6.281-4.344-14-11.371-14-15.582 0-3.838 2.971-6.959 6.623-6.959zM74 149.891H62a4 4 0 0 0 0 8h12a4 4 0 0 0 0-8zM134 149.891H86a4 4 0 0 0 0 8h48a4 4 0 0 0 0-8zM74 161.891H62a4 4 0 0 0 0 8h12a4 4 0 0 0 0-8zM134 161.891H86a4 4 0 0 0 0 8h48a4 4 0 0 0 0-8zM74 173.891H62a4 4 0 0 0 0 8h12a4 4 0 0 0 0-8zM134 173.891H86a4 4 0 0 0 0 8h48a4 4 0 0 0 0-8zM172 137.891h14v13.75l-12.945 29.779c-2.463 4.934-.457 10.951 4.479 13.418 4.85 2.414 10.967.424 13.521-4.713l6.947-16.508 7.053 16.746a9.951 9.951 0 0 0 8.949 5.529 9.945 9.945 0 0 0 4.469-1.057c4.93-2.465 6.936-8.482 4.562-13.225L210 151.641v-13.75h14c5.514 0 10-4.486 10-10s-4.486-10-10-10h-15.53c3.36-2.935 5.53-7.199 5.53-12 0-8.822-7.178-16-16-16s-16 7.178-16 16c0 4.801 2.17 9.065 5.53 12H172c-5.514 0-10 4.486-10 10s4.486 10 10 10zm26-40c4.412 0 8 3.588 8 8s-3.588 8-8 8-8-3.588-8-8 3.588-8 8-8zm-26 28h52a2 2 0 0 1 0 4h-18a4 4 0 0 0-4 4v18.582c0 .549.113 1.092.332 1.596l13.457 30.926a2.006 2.006 0 0 1-.889 2.684c-.846.424-2.125.225-2.58-.654l-10.633-25.266a4.002 4.002 0 0 0-7.376 0l-10.523 25.027c-.617 1.234-1.859 1.305-2.684.895-.986-.492-1.387-1.697-.805-2.877l13.367-30.734a4.004 4.004 0 0 0 .332-1.596v-18.582a4 4 0 0 0-4-4h-18a2 2 0 1 1 .002-4.001z" fill="#000000" opacity="1" data-original="#000000"></path></g></svg>