<svg xmlns="http://www.w3.org/2000/svg" version="1.1" xmlns:xlink="http://www.w3.org/1999/xlink" width="512" height="512" x="0" y="0" viewBox="0 0 512 512" style="enable-background:new 0 0 512 512" xml:space="preserve"><g><path d="M257.938 409.141H56.334c-20.311 0-36.835-16.524-36.835-36.836V91.74h462.96v193.711a6.988 6.988 0 1 0 13.976 0V51.312C496.435 23.294 473.642.5 445.624.5H56.334C28.316.5 5.522 23.294 5.522 51.312v320.993c0 28.018 22.794 50.812 50.811 50.812h201.604a6.988 6.988 0 0 0 .001-13.976zM56.334 14.477h389.289c20.311 0 36.835 16.524 36.835 36.835v26.451H19.498V51.312c0-20.311 16.525-36.835 36.836-36.835zM193.83 46.135a6.988 6.988 0 0 1 6.988-6.988H447.66a6.988 6.988 0 0 1 0 13.976H200.817a6.988 6.988 0 0 1-6.987-6.988zm-139.788 0a6.988 6.988 0 0 1 6.988-6.988h.453a6.988 6.988 0 0 1 0 13.976h-.453a6.988 6.988 0 0 1-6.988-6.988zm27.216 0a6.988 6.988 0 0 1 6.988-6.988h.453a6.988 6.988 0 0 1 0 13.976h-.453a6.988 6.988 0 0 1-6.988-6.988zm27.217 0a6.988 6.988 0 0 1 6.988-6.988h.453a6.988 6.988 0 0 1 0 13.976h-.453a6.988 6.988 0 0 1-6.988-6.988zm136.109 271.483V130.726a6.988 6.988 0 0 0-6.988-6.988H50.732a6.988 6.988 0 0 0-6.988 6.988v186.892a6.988 6.988 0 0 0 6.988 6.988H237.596a6.988 6.988 0 0 0 6.988-6.988zm-149.265-6.989v-33.015c0-18.205 14.798-33.016 32.988-33.016h31.686c18.205 0 33.016 14.811 33.016 33.016v33.015zm48.831-80.007c-17.69 0-32.083-14.392-32.083-32.082 0-17.706 14.392-32.11 32.083-32.11s32.083 14.405 32.083 32.11c-.001 17.69-14.393 32.082-32.083 32.082zm86.459 80.007h-23.623v-33.015c0-20.783-13.567-38.447-32.305-44.629 9.516-8.444 15.528-20.753 15.528-34.445 0-25.412-20.661-46.087-46.058-46.087s-46.058 20.675-46.058 46.087c0 13.694 6.014 26.004 15.531 34.448-18.724 6.184-32.279 23.847-32.279 44.627v33.015H57.72V137.714h172.889zm254.131-5.337c-28.528-28.526-74.673-29.004-103.818-1.421-29.128-27.597-75.279-27.119-103.818 1.419-14.02 14.004-21.74 32.7-21.74 52.644 0 19.943 7.721 38.639 21.738 52.641l98.878 98.879a6.99 6.99 0 0 0 9.882 0l98.876-98.877c14.02-14.004 21.74-32.7 21.74-52.643 0-19.944-7.721-38.64-21.738-52.642zm-9.883 95.399L380.92 494.63l-93.94-93.94c-11.376-11.365-17.641-26.549-17.641-42.756 0-16.208 6.265-31.392 17.641-42.757l.002-.002c11.79-11.79 27.272-17.682 42.759-17.682 15.483 0 30.97 5.895 42.757 17.681l3.48 3.481a6.987 6.987 0 0 0 9.884 0l3.477-3.478c23.591-23.564 61.955-23.564 85.521 0 11.376 11.365 17.641 26.549 17.641 42.757 0 16.207-6.265 31.391-17.644 42.757zm-18.738-267.815a6.988 6.988 0 0 1-6.988 6.988h-171.22a6.988 6.988 0 0 1 0-13.976H449.13a6.988 6.988 0 0 1 6.989 6.988zm0 33.411a6.988 6.988 0 0 1-6.988 6.988h-171.22a6.988 6.988 0 0 1 0-13.976H449.13a6.989 6.989 0 0 1 6.989 6.988zm0 33.441a6.988 6.988 0 0 1-6.988 6.988h-171.22a6.988 6.988 0 0 1 0-13.976H449.13a6.989 6.989 0 0 1 6.989 6.988zm0 33.412a6.988 6.988 0 0 1-6.988 6.988h-171.22a6.988 6.988 0 0 1 0-13.976H449.13a6.987 6.987 0 0 1 6.989 6.988zm0 33.412a6.988 6.988 0 0 1-6.988 6.988h-171.22a6.988 6.988 0 0 1 0-13.976H449.13a6.989 6.989 0 0 1 6.989 6.988zm-32.592 96.332h-16.013v-16.013a6.988 6.988 0 0 0-6.988-6.988h-39.183a6.988 6.988 0 0 0-6.988 6.988v16.013h-16.013a6.988 6.988 0 0 0-6.988 6.988v39.183a6.988 6.988 0 0 0 6.988 6.988h16.013v16.013a6.988 6.988 0 0 0 6.988 6.988h39.183a6.988 6.988 0 0 0 6.988-6.988v-16.013h16.013a6.988 6.988 0 0 0 6.988-6.988v-39.183a6.988 6.988 0 0 0-6.988-6.988zm-6.988 39.184h-16.013a6.988 6.988 0 0 0-6.988 6.988v16.013H368.33v-16.013a6.988 6.988 0 0 0-6.988-6.988H345.33v-25.207h16.013a6.988 6.988 0 0 0 6.988-6.988V353.86h25.208v16.013a6.988 6.988 0 0 0 6.988 6.988h16.013v25.207zm-185.167-49.963a6.988 6.988 0 0 1-6.988 6.988H53.165a6.988 6.988 0 0 1 0-13.976h171.219a6.988 6.988 0 0 1 6.988 6.988zm0 32.847a6.988 6.988 0 0 1-6.988 6.988H53.165a6.988 6.988 0 0 1 0-13.976h171.219a6.987 6.987 0 0 1 6.988 6.988z" fill="#000000" opacity="1" data-original="#000000"></path></g></svg>