<svg xmlns="http://www.w3.org/2000/svg" version="1.1" xmlns:xlink="http://www.w3.org/1999/xlink" width="512" height="512" x="0" y="0" viewBox="0 0 64 64" style="enable-background:new 0 0 512 512" xml:space="preserve"><g><path d="M15 37a.997.997 0 0 0-.707.293L9.586 42h-1.77A2.996 2.996 0 0 0 5 40c-1.654 0-3 1.346-3 3s1.346 3 3 3a2.996 2.996 0 0 0 2.816-2H10c.265 0 .52-.105.707-.293L15.414 39H31v5.35l-8.406 3.736A1.001 1.001 0 0 0 22 49v8c0 .395.233.753.594.914l9 4a1.007 1.007 0 0 0 .812 0l9-4c.361-.161.594-.519.594-.914v-8c0-.395-.233-.753-.594-.914L33 44.35V39h3v1c0 2.757 2.243 5 5 5a1 1 0 0 0 1-1v-5h6.586l4.707 4.707A.997.997 0 0 0 54 44h2.184A2.996 2.996 0 0 0 59 46c1.654 0 3-1.346 3-3s-1.346-3-3-3a2.996 2.996 0 0 0-2.816 2h-1.77l-4.707-4.707A.997.997 0 0 0 49 37h-3.042c.456-.58.764-1.263.919-2h9.308a2.996 2.996 0 0 0 2.816 2c1.654 0 3-1.346 3-3s-1.346-3-3-3a2.996 2.996 0 0 0-2.816 2H46.87a4.974 4.974 0 0 0-.715-1.741l7.552-7.552A.997.997 0 0 0 54 23v-3h7a1 1 0 0 0 1-1V9a.997.997 0 0 0-.293-.707l-6-6A.997.997 0 0 0 55 2H45a1 1 0 0 0-1 1v16a1 1 0 0 0 1 1h7v2.586l-7.255 7.255A5 5 0 0 0 43 29.102c.026-1.035-.332-2.273-1.753-3.678-.958-.946-2.166-1.466-3.37-1.422a4.989 4.989 0 0 0-1.667.329A4.995 4.995 0 0 0 33 22.113V20h7a1 1 0 0 0 1-1V9a.997.997 0 0 0-.293-.707l-6-6A.997.997 0 0 0 34 2H24a1 1 0 0 0-1 1v16a1 1 0 0 0 1 1h7v2.112a4.999 4.999 0 0 0-3.21 2.218 4.989 4.989 0 0 0-1.667-.329c-1.203-.028-2.412.476-3.369 1.422-1.422 1.405-1.78 2.643-1.754 3.678a4.992 4.992 0 0 0-1.745.739L12 22.586V20h7a1 1 0 0 0 1-1V9a.997.997 0 0 0-.293-.707l-6-6A.997.997 0 0 0 13 2H3a1 1 0 0 0-1 1v16a1 1 0 0 0 1 1h7v3c0 .265.105.52.293.707l7.552 7.552A4.974 4.974 0 0 0 17.13 33H7.816A2.996 2.996 0 0 0 5 31c-1.654 0-3 1.346-3 3s1.346 3 3 3a2.996 2.996 0 0 0 2.816-2h9.308c.155.736.463 1.42.919 2zM5 44c-.551 0-1-.449-1-1s.449-1 1-1 1 .449 1 1-.449 1-1 1zm19 6.539 7 3.111v5.812l-7-3.111zm9 8.922V53.65l7-3.111v5.812zM38.538 49 32 51.906 25.462 49 31 46.539V49h2v-2.461zM59 42c.551 0 1 .449 1 1s-.449 1-1 1-1-.449-1-1 .449-1 1-1zM56 5.414 58.586 8H56zM46 4h8v5a1 1 0 0 0 1 1h5v8H46zM35 5.414 37.586 8H35zM25 4h8v5a1 1 0 0 0 1 1h5v8H25zM14 5.414 16.586 8H14zM4 4h8v5a1 1 0 0 0 1 1h5v8H4zm55 29c.551 0 1 .449 1 1s-.449 1-1 1-1-.449-1-1 .449-1 1-1zm-37.062-2.002c.034.005.134.015.168.016.311.01.621-.125.819-.373.198-.247.268-.574.188-.88-.199-.755-.281-1.602 1.046-2.914.568-.562 1.229-.854 1.915-.846.575.014 1.13.192 1.604.513a1 1 0 0 0 1.505-.498C29.605 24.81 30.737 24 32 24s2.395.81 2.817 2.016a1 1 0 0 0 1.505.498 2.991 2.991 0 0 1 1.604-.513c.667.007 1.347.285 1.916.846 1.327 1.312 1.245 2.159 1.046 2.914a.996.996 0 0 0 .188.88c.199.248.502.382.819.373.056-.002.111-.009.105-.014.843 0 1.652.358 2.22.982a2.98 2.98 0 0 1 .766 2.315C44.841 35.813 43.454 37 41.828 37H41a1 1 0 0 0-1 1v4.829A3.006 3.006 0 0 1 38 40v-2a1 1 0 0 0-1-1v-1.586l1.707-1.707A.997.997 0 0 0 39 33v-3h-2v2.586l-1.707 1.707A.997.997 0 0 0 35 35v2h-2v-9h-2v9h-2v-2a.997.997 0 0 0-.293-.707L27 32.586V30h-2v3c0 .265.105.52.293.707L27 35.414V37h-4.828c-1.626 0-3.013-1.187-3.158-2.702a2.98 2.98 0 0 1 .766-2.316c.568-.624 1.377-.982 2.158-.984zM5 35c-.551 0-1-.449-1-1s.449-1 1-1 1 .449 1 1-.449 1-1 1z" fill="#000000" opacity="1" data-original="#000000"></path><path d="M45 52h2v2h-2zM49 52h2v2h-2zM49 56h2v2h-2zM49 48h2v2h-2zM17 52h2v2h-2zM13 52h2v2h-2zM13 56h2v2h-2zM13 48h2v2h-2z" fill="#000000" opacity="1" data-original="#000000"></path></g></svg>