<svg xmlns="http://www.w3.org/2000/svg" version="1.1" xmlns:xlink="http://www.w3.org/1999/xlink" width="512" height="512" x="0" y="0" viewBox="0 0 64 64" style="enable-background:new 0 0 512 512" xml:space="preserve"><g><path d="M37 11h-6v14h-2V7h-6v18h-2V15h-6v12h22zM19 25h-2v-8h2zm6-16h2v16h-2zm10 16h-2V13h2zM45 5h2v2h-2zM49 5h2v2h-2zM53 5h2v2h-2zM43 40.586l-1.293-1.293-1.414 1.414L43 43.414l4.707-4.707-1.414-1.414zM54 17c-1.654 0-3 1.346-3 3s1.346 3 3 3 3-1.346 3-3-1.346-3-3-3zm0 4a1 1 0 1 1 0-2 1 1 0 0 1 0 2z" fill="#000000" opacity="1" data-original="#000000"></path><path d="M63 17h-1.757l1.242-1.242-4.243-4.243L57 12.757V11h-6v1.757l-1.242-1.242-4.243 4.243L46.757 17H45v6h1.757l-1.242 1.242 4.243 4.243L51 27.243V29h.864l-4.204 5.045A6.947 6.947 0 0 0 44 33c-1.32 0-2.552.374-3.607 1.012l-2.89-3.532C40.873 27.372 43 22.935 43 18c0-9.374-7.626-17-17-17-7.875 0-14.497 5.39-16.42 12.669C4.281 16.934 1 22.766 1 29c0 8.549 5.996 15.711 14 17.536V59c0 2.206 1.794 4 4 4s4-1.794 4-4V46.543A17.846 17.846 0 0 0 36.637 32.58l2.209 2.699A6.969 6.969 0 0 0 37 40c0 3.859 3.141 7 7 7s7-3.141 7-7a6.964 6.964 0 0 0-1.804-4.673L54.469 29H57v-1.757l1.242 1.242 4.243-4.243L61.243 23H63zM26 3c8.271 0 15 6.729 15 15s-6.729 15-15 15-15-6.729-15-15S17.729 3 26 3zm0 32c1.241 0 2.448-.142 3.613-.395A11.978 11.978 0 0 1 19 41c-6.617 0-12-5.383-12-12 0-2.659.862-5.16 2.436-7.23C11.157 29.333 17.923 35 26 35zm-5 24c0 1.103-.897 2-2 2s-2-.897-2-2V46.882c.658.073 1.323.118 2 .118s1.342-.047 2-.118zm-2-14c-8.822 0-16-7.178-16-16 0-4.906 2.285-9.535 6.078-12.546C9.032 16.964 9 17.478 9 18c0 .393.033.779.059 1.165C6.447 21.802 5 25.269 5 29c0 7.72 6.28 14 14 14a13.968 13.968 0 0 0 13.129-9.161c.848-.329 1.66-.723 2.436-1.179C32.911 39.827 26.578 45 19 45zm25 0c-2.757 0-5-2.243-5-5s2.243-5 5-5 5 2.243 5 5-2.243 5-5 5zm17-24h-2.018l-.753 1.815 1.428 1.427-1.415 1.415-1.427-1.428-1.815.753V27h-2v-2.019l-1.813-.753-1.429 1.429-1.415-1.415 1.427-1.427L49.019 21H47v-2h2.018l.753-1.815-1.428-1.427 1.415-1.415 1.427 1.428L53 15.018V13h2v2.018l1.815.753 1.427-1.428 1.415 1.415-1.428 1.427.753 1.815H61z" fill="#000000" opacity="1" data-original="#000000"></path></g></svg>