<svg xmlns="http://www.w3.org/2000/svg" version="1.1" xmlns:xlink="http://www.w3.org/1999/xlink" width="512" height="512" x="0" y="0" viewBox="0 0 66 66" style="enable-background:new 0 0 512 512" xml:space="preserve"><g><path d="M51.12 36.25v-6.5l-4.2-.8c-.3-1.02-.7-2-1.21-2.92l2.4-3.54-4.6-4.6-3.54 2.4c-.94-.52-1.92-.92-2.93-1.22l-.8-4.19h-6.5l-.8 4.2c-1.02.3-2 .7-2.92 1.21l-3.54-2.4-4.6 4.6 2.4 3.54c-.51.92-.91 1.9-1.21 2.92l-4.2.8v6.5l4.19.8c.29 1.01.7 1.99 1.22 2.93l-2.4 3.54 4.6 4.6 3.54-2.4c.93.51 1.9.92 2.92 1.21l.8 4.2h6.5l.8-4.19c1.01-.29 1.99-.7 2.93-1.22l3.54 2.4 4.6-4.6-2.4-3.54c.52-.94.92-1.92 1.22-2.93zm-5.59 7.03-2.26 2.26-3.22-2.19-.55.34a12.19 12.19 0 0 1-3.55 1.47l-.63.15-.73 3.82H31.4l-.73-3.82-.62-.15c-1.26-.31-2.45-.8-3.54-1.47l-.55-.34-3.22 2.19-2.26-2.26 2.19-3.22-.34-.55a12.19 12.19 0 0 1-1.47-3.55l-.15-.63-3.82-.73v-3.2l3.82-.73.15-.62c.31-1.26.8-2.45 1.47-3.54l.34-.55-2.19-3.22 2.26-2.26 3.22 2.19.55-.34a12.51 12.51 0 0 1 3.54-1.47l.62-.15.73-3.82h3.19l.73 3.82.63.15c1.24.29 2.43.79 3.55 1.47l.55.34 3.22-2.19 2.26 2.26-2.19 3.22.34.55a12.51 12.51 0 0 1 1.47 3.54l.15.62 3.82.73v3.19l-3.82.73-.15.63a12.19 12.19 0 0 1-1.47 3.55l-.34.55z" fill="#000000" opacity="1" data-original="#000000"></path><path d="M33 26.05c-3.84 0-6.96 3.12-6.96 6.96s3.12 6.96 6.96 6.96 6.96-3.12 6.96-6.96-3.12-6.96-6.96-6.96zm0 11.91a4.96 4.96 0 1 1-.002-9.922A4.96 4.96 0 0 1 33 37.96zM2.97 33.27c0 16.57 13.47 30.04 30.03 30.04 1.5 0 2.99-.11 4.44-.33l.21 1.15c.07.37.32.67.67.8l.59.19 8.55-6.43c.33-.24.48-.63.42-1.03l-.15-.66-10.34-3c-.36-.1-.74-.02-1.02.23l-.44.44.39 2.16c-1.1.15-2.21.23-3.32.23-13.11 0-23.78-10.67-23.78-23.79 0-.64.03-1.29.08-1.92l-2-.16c-.05.68-.08 1.38-.08 2.08 0 14.22 11.57 25.79 25.78 25.79 1.55 0 3.12-.14 4.66-.42l.99-.18-.39-2.13 6.5 1.88-5.41 4.07-.29-1.63-.99.18c-1.64.31-3.34.46-5.06.46-15.46 0-28.03-12.58-28.03-28.04 0-.64.02-1.29.07-1.93l-2-.14c-.06.7-.08 1.4-.08 2.09zM5.71 20.71l1.82.84c.56-1.22 1.22-2.42 1.96-3.55l-1.68-1.1c-.79 1.22-1.49 2.5-2.1 3.81zM3.44 27.96l1.97.35c.24-1.33.57-2.65 1-3.93l-1.9-.63c-.46 1.37-.82 2.78-1.07 4.21zM11.29 15.53c.4-.49.83-.98 1.27-1.45l-1.46-1.37c-.47.5-.93 1.03-1.36 1.55zM14.4 18.44c.4-.5.82-.99 1.26-1.45l-1.46-1.37c-.47.5-.93 1.03-1.36 1.57zM11.37 23.36c.46-1 .99-1.98 1.59-2.91l-1.68-1.08c-.65 1.01-1.22 2.07-1.72 3.15zM7.65 28.51l1.97.37c.2-1.08.48-2.16.83-3.2l-1.9-.64c-.37 1.13-.68 2.3-.9 3.47zM63.03 33.27C63.03 16.71 49.56 3.23 33 3.23c-1.01 0-2.02.05-3.01.15l-.19-1.45c-.05-.37-.28-.68-.63-.84l-.58-.22-8.84 5.99c-.34.23-.52.62-.46 1.03l.13.67 10.14 3.5c.35.12.74.06 1.03-.18l.46-.42-.25-1.9c.73-.07 1.46-.1 2.19-.1 13.11 0 23.78 10.67 23.78 23.78 0 .48-.01.96-.04 1.44l2 .12c.03-.52.04-1.04.04-1.56C58.78 19.05 47.22 7.48 33 7.48c-1.15 0-2.31.08-3.45.23l-.98.13.24 1.85-6.4-2.21 5.61-3.8.25 1.92 1-.13c1.22-.16 2.48-.25 3.74-.25 15.46 0 28.03 12.58 28.03 28.03 0 .65-.02 1.3-.06 1.93l2 .13c.03-.66.05-1.35.05-2.04zM60.92 44.38l-1.86-.74c-.43 1.07-.93 2.13-1.48 3.14l1.75.97c.6-1.09 1.14-2.23 1.59-3.37zM62.65 38.11l-1.97-.32c-.18 1.14-.44 2.28-.76 3.39l1.92.56c.34-1.19.61-2.41.81-3.63zM57.87 50.12 56.21 49a24.9 24.9 0 0 1-1.14 1.56l1.57 1.23c.43-.54.84-1.1 1.23-1.67zM51.73 47.93l1.57 1.23c.32-.41.63-.83.93-1.25l-1.64-1.14c-.28.4-.56.78-.86 1.16zM56.9 43l-1.85-.75c-.32.79-.69 1.58-1.11 2.33l1.76.96c.44-.83.85-1.69 1.2-2.54zM58.43 37.61l-1.97-.33c-.14.85-.33 1.7-.57 2.52l1.92.54c.25-.89.46-1.8.62-2.73z" fill="#000000" opacity="1" data-original="#000000"></path></g></svg>