<svg xmlns="http://www.w3.org/2000/svg" version="1.1" xmlns:xlink="http://www.w3.org/1999/xlink" width="512" height="512" x="0" y="0" viewBox="0 0 66 66" style="enable-background:new 0 0 512 512" xml:space="preserve" class=""><g><path d="M30.87 27.52c-2.86 0-5.19 2.33-5.19 5.18 0 2.86 2.33 5.19 5.19 5.19s5.18-2.33 5.18-5.19c0-2.85-2.33-5.18-5.18-5.18zm0 8.88c-2.04 0-3.69-1.66-3.69-3.69s1.66-3.68 3.69-3.68 3.68 1.65 3.68 3.68-1.65 3.69-3.68 3.69z" fill="#FFFFFF" opacity="1" data-original="#000000" class=""></path><path d="M40.08 37.67c.34-.63.61-1.29.81-1.96l2.15-.52a.74.74 0 0 0 .57-.73v-3.52a.75.75 0 0 0-.57-.73l-2.15-.52c-.2-.67-.47-1.32-.81-1.96l1.15-1.88c.18-.29.14-.68-.11-.92l-2.49-2.49a.744.744 0 0 0-.92-.11l-1.89 1.15c-.63-.34-1.28-.61-1.95-.81l-.52-2.14a.74.74 0 0 0-.73-.57H29.1a.75.75 0 0 0-.73.57l-.52 2.14c-.68.21-1.34.48-1.96.81l-1.88-1.15a.742.742 0 0 0-.92.11l-2.5 2.49c-.25.25-.29.63-.11.92l1.16 1.88c-.33.62-.61 1.27-.81 1.96l-2.15.52a.74.74 0 0 0-.57.73v3.52c0 .35.24.65.57.73l2.15.52c.21.69.48 1.34.81 1.96l-1.16 1.88c-.18.3-.14.68.11.92l2.5 2.49c.24.24.63.29.92.11l1.88-1.15c.61.33 1.27.6 1.96.81l.52 2.15c.08.34.38.57.73.57h3.52c.35 0 .65-.24.73-.57l.52-2.15c.69-.21 1.34-.48 1.95-.81l1.89 1.15c.3.18.67.13.92-.11l2.49-2.49c.25-.25.29-.63.11-.92zm-1.51.41 1.07 1.75-1.65 1.65-1.77-1.07a.732.732 0 0 0-.78 0c-.72.44-1.53.77-2.39.99-.27.07-.48.28-.54.55l-.49 2.01H29.7l-.48-2.01a.77.77 0 0 0-.54-.55c-.87-.22-1.68-.56-2.4-.99a.777.777 0 0 0-.78 0l-1.76 1.07-1.66-1.65 1.08-1.75c.15-.24.15-.54 0-.78-.44-.74-.78-1.54-.99-2.4a.737.737 0 0 0-.55-.54l-2.01-.49v-2.34l2.01-.49c.27-.06.48-.27.55-.54.22-.86.55-1.66.99-2.4.14-.24.14-.54 0-.78l-1.08-1.75 1.66-1.65L25.49 25c.24.15.54.15.77 0 .75-.45 1.56-.78 2.4-1 .27-.07.48-.28.54-.55l.48-2h2.34l.49 2c.07.27.27.48.54.55.83.21 1.64.55 2.39 1 .24.14.54.14.77 0l1.77-1.07 1.65 1.65-1.07 1.76c-.14.24-.15.53-.01.77.45.77.78 1.57.99 2.4.07.27.28.48.55.55l2.01.49v2.34l-2.01.49c-.27.07-.48.28-.55.55-.2.82-.53 1.63-.99 2.4-.13.22-.12.51.02.75z" fill="#FFFFFF" opacity="1" data-original="#000000" class=""></path><path d="m64.49 52.78-8.22-7.06a.754.754 0 0 0-1.24.57v2.03h-3.84c3.44-4.46 5.34-9.94 5.34-15.61 0-3.5-.7-6.88-2.06-10.06 4.63-.33 8.29-4.19 8.29-8.89 0-4.92-4-8.93-8.93-8.93-4.13 0-7.6 2.82-8.62 6.63a25.38 25.38 0 0 0-14.36-4.42C16.7 7.04 5.19 18.56 5.19 32.71c0 5.66 1.9 11.14 5.36 15.61H2c-.41 0-.75.34-.75.75s.34.76.75.76h9.77c2.9 3.23 6.52 5.63 10.5 7.05H2c-.41 0-.75.34-.75.75s.34.75.75.75H55.02v2.04c0 .29.17.56.44.68a.742.742 0 0 0 .8-.11l8.22-7.07c.17-.14.26-.35.26-.57s-.09-.43-.25-.57zM53.84 6.34c4.09 0 7.43 3.33 7.43 7.43s-3.33 7.43-7.43 7.43-7.43-3.33-7.43-7.43 3.33-7.43 7.43-7.43zm2.69 52.44v-1.16c0-.41-.34-.75-.75-.75H30.86c-6.96 0-13.59-3.02-18.2-8.3a24.079 24.079 0 0 1-5.97-15.86c0-13.33 10.84-24.17 24.17-24.17 5.1 0 9.96 1.58 14.09 4.55-.02.22-.03.44-.03.67 0 4.58 3.46 8.35 7.91 8.86a23.94 23.94 0 0 1 2.21 10.09c0 5.72-2.04 11.25-5.74 15.61H37.83c5.97-2.68 10.14-8.67 10.14-15.61 0-9.44-7.68-17.12-17.12-17.12-3.22 0-6.36.91-9.08 2.64-5.03 3.17-8.04 8.58-8.04 14.48 0 5.89 3 11.3 8.03 14.47 2.73 1.73 5.88 2.64 9.09 2.64h24.92c.41 0 .75-.34.75-.75v-1.15l6.32 5.42zM30.86 48.32c-2.93 0-5.8-.83-8.29-2.41-4.59-2.89-7.33-7.83-7.33-13.2 0-5.38 2.74-10.32 7.34-13.21 2.48-1.58 5.35-2.41 8.28-2.41 8.61 0 15.62 7.01 15.62 15.62 0 8.56-6.96 15.56-15.51 15.61z" fill="#FFFFFF" opacity="1" data-original="#000000" class=""></path><path d="M51.9 16.47a.75.75 0 0 0 1.06 0l4.36-4.37c.29-.29.29-.77 0-1.06s-.77-.29-1.06 0l-3.83 3.83-1.02-1.02c-.29-.29-.77-.29-1.06 0s-.29.77 0 1.06z" fill="#FFFFFF" opacity="1" data-original="#000000" class=""></path></g></svg>