<svg xmlns="http://www.w3.org/2000/svg" version="1.1" xmlns:xlink="http://www.w3.org/1999/xlink" width="512" height="512" x="0" y="0" viewBox="0 0 512 512.239" style="enable-background:new 0 0 512 512" xml:space="preserve"><g><path d="M51.32 512.238h349.868c28.265-.027 51.171-22.933 51.199-51.199a8.534 8.534 0 1 0-17.067 0c0 18.852-15.28 34.133-34.133 34.133H51.32c-18.851 0-34.133-15.281-34.133-34.133v-34.133c0-18.851 15.282-34.133 34.133-34.133 18.852 0 34.133 15.282 34.133 34.133 0 4.711 3.82 8.532 8.531 8.532a8.533 8.533 0 0 0 8.536-8.532V119.707h25.601V313.84a8.51 8.51 0 0 0 .613 3.191l26.215 65.074a17 17 0 0 0 15.836 10.668h25.602c4.71 0 8.531-3.82 8.531-8.535 0-4.71-3.82-8.531-8.531-8.531h-7.188l23.64-58.676a8.587 8.587 0 0 0 .614-3.191V42.668C213.453 19.102 194.352 0 170.785 0c-23.562 0-42.664 19.102-42.664 42.668v59.973H102.52V85.574c0-28.277-22.922-51.203-51.2-51.203C23.043 34.371.121 57.297.121 85.574V461.04c.027 28.266 22.934 51.172 51.2 51.2zM196.387 296.61a48.778 48.778 0 0 0-17.067-5.613V145.305c0-4.711-3.82-8.532-8.535-8.532a8.532 8.532 0 0 0-8.531 8.532v145.691a48.752 48.752 0 0 0-17.066 5.613V85.574h51.199zm-25.602 79.098-23.89-59.23a31.517 31.517 0 0 1 23.89-9.04 31.502 31.502 0 0 1 23.895 9.04zm0-358.402c14.067-.051 25.52 11.297 25.602 25.363v25.836h-51.2V42.668c.079-14.066 11.532-25.414 25.598-25.363zM51.32 51.438c18.852 0 34.133 15.285 34.133 34.136v303.274c-19.383-17.524-48.883-17.524-68.266 0V85.574c0-18.851 15.282-34.136 34.133-34.136zm0 0" fill="#FFFFFF" opacity="1" data-original="#FFFFFF"></path><path d="M230.52 118.168v20.14a17.066 17.066 0 0 0 13.714 16.735l16.16 3.234-9.14 13.711a17.138 17.138 0 0 0 2.137 21.54l14.25 14.242a17.126 17.126 0 0 0 21.527 2.132l13.715-9.129 3.234 16.153a17.07 17.07 0 0 0 16.735 13.715h20.136a17.07 17.07 0 0 0 16.735-13.715l3.234-16.153 13.711 9.137a17.122 17.122 0 0 0 21.539-2.133l14.242-14.25a17.121 17.121 0 0 0 2.133-21.53l-9.129-13.72 16.152-3.234a17.066 17.066 0 0 0 13.715-16.734v-20.141a17.062 17.062 0 0 0-13.715-16.73l-16.152-3.235 9.129-13.715a17.133 17.133 0 0 0-2.133-21.539L398.2 48.707a17.122 17.122 0 0 0-21.531-2.133l-13.711 9.133-3.234-16.156a17.067 17.067 0 0 0-16.735-13.711h-20.136a17.067 17.067 0 0 0-16.735 13.71l-3.234 16.157-13.715-9.133a17.137 17.137 0 0 0-21.535 2.133l-14.242 14.25a17.128 17.128 0 0 0-2.137 21.531l9.133 13.715-16.153 3.234a17.062 17.062 0 0 0-13.714 16.731zm17.066 0 16.164-3.234a17.065 17.065 0 0 0 12.418-10.2 17.077 17.077 0 0 0-1.566-15.996l-9.149-13.722 14.254-14.243 13.711 9.149a17.066 17.066 0 0 0 15.996 1.562 17.064 17.064 0 0 0 10.203-12.418l3.235-16.16h20.136l3.235 16.16a17.064 17.064 0 0 0 10.203 12.418 17.066 17.066 0 0 0 15.996-1.562l13.719-9.149 14.242 14.25-9.149 13.715a17.076 17.076 0 0 0-1.562 15.996 17.058 17.058 0 0 0 12.418 10.2l16.164 3.234v20.14l-16.164 3.235a17.068 17.068 0 0 0-10.855 26.195l9.148 13.723-14.25 14.242-13.711-9.148a17.071 17.071 0 0 0-26.2 10.855l-3.234 16.164h-20.136l-3.235-16.164a17.071 17.071 0 0 0-26.199-10.855l-13.723 9.148-14.242-14.25 9.149-13.715a17.069 17.069 0 0 0 1.566-15.992 17.07 17.07 0 0 0-12.418-10.203l-16.164-3.234zm0 0" fill="#FFFFFF" opacity="1" data-original="#FFFFFF"></path><path d="M332.918 179.438c28.277 0 51.203-22.922 51.203-51.2 0-28.277-22.926-51.199-51.203-51.199-28.277 0-51.2 22.922-51.2 51.2.028 28.265 22.934 51.171 51.2 51.198zm0-85.333c18.852 0 34.137 15.282 34.137 34.133 0 18.852-15.285 34.133-34.137 34.133s-34.133-15.281-34.133-34.133c0-18.851 15.281-34.133 34.133-34.133zM498.406 314.77l-16.152-3.235 9.137-13.715a17.127 17.127 0 0 0-2.133-21.535L475 262.043a17.122 17.122 0 0 0-21.531-2.133l-13.711 9.13-3.235-16.153a17.066 17.066 0 0 0-16.734-13.715h-20.14a17.062 17.062 0 0 0-16.731 13.715l-3.234 16.152-13.715-9.129a17.123 17.123 0 0 0-21.54 2.133l-14.241 14.25a17.126 17.126 0 0 0-2.133 21.527l9.132 13.715-16.156 3.235a17.067 17.067 0 0 0-13.71 16.734v20.137a17.067 17.067 0 0 0 13.71 16.734l16.164 3.234-9.14 13.715a17.137 17.137 0 0 0 2.132 21.535l14.254 14.243a17.126 17.126 0 0 0 21.528 2.132l13.715-9.129 3.234 16.153a17.062 17.062 0 0 0 16.73 13.715h20.141a17.066 17.066 0 0 0 16.734-13.715l3.235-16.153 13.71 9.141a17.132 17.132 0 0 0 21.54-2.133l14.242-14.254a17.126 17.126 0 0 0 2.133-21.527l-9.13-13.723 16.153-3.234a17.07 17.07 0 0 0 13.715-16.734v-20.137a17.07 17.07 0 0 0-13.715-16.734zm-3.351 36.87-16.164 3.235a17.071 17.071 0 0 0-10.856 26.2l9.149 13.718-14.25 14.242-13.715-9.144a17.063 17.063 0 0 0-26.195 10.852l-3.235 16.163h-20.14l-3.235-16.164a17.058 17.058 0 0 0-10.2-12.418 17.077 17.077 0 0 0-15.995 1.567l-13.723 9.144-14.242-14.25 9.148-13.71a17.066 17.066 0 0 0 1.563-15.997 17.064 17.064 0 0 0-12.418-10.203l-16.16-3.234v-20.137l16.16-3.234a17.064 17.064 0 0 0 12.418-10.204 17.066 17.066 0 0 0-1.563-15.996l-9.148-13.718 14.25-14.243 13.715 9.145a17.077 17.077 0 0 0 15.996 1.566 17.058 17.058 0 0 0 10.2-12.418l3.233-16.164h20.141l3.234 16.164a17.063 17.063 0 0 0 26.196 10.852l13.722-9.145 14.243 14.25-9.149 13.711a17.071 17.071 0 0 0 10.855 26.2l16.165 3.234zm0 0" fill="#FFFFFF" opacity="1" data-original="#FFFFFF"></path><path d="M409.719 290.371c-28.278 0-51.2 22.926-51.2 51.203 0 28.274 22.922 51.2 51.2 51.2s51.199-22.926 51.199-51.2c-.027-28.265-22.934-51.172-51.2-51.203zm0 85.336c-18.852 0-34.133-15.285-34.133-34.133 0-18.851 15.281-34.136 34.133-34.136s34.133 15.285 34.133 34.136c0 18.848-15.282 34.133-34.133 34.133zM221.984 384.238a8.534 8.534 0 0 0 8.536 8.535h59.734c4.71 0 8.531-3.82 8.531-8.535 0-4.71-3.82-8.531-8.531-8.531H230.52a8.533 8.533 0 0 0-8.536 8.531zM162.254 426.906h42.664a8.534 8.534 0 1 0 0-17.066h-42.664a8.533 8.533 0 1 0 0 17.066zM230.52 418.371a8.534 8.534 0 0 0 8.535 8.535h68.265c4.711 0 8.532-3.82 8.532-8.535 0-4.71-3.82-8.531-8.532-8.531h-68.265a8.533 8.533 0 0 0-8.535 8.531zM153.719 452.504a8.534 8.534 0 0 0 8.535 8.535h170.664a8.534 8.534 0 1 0 0-17.066H162.254a8.533 8.533 0 0 0-8.535 8.53zm0 0" fill="#FFFFFF" opacity="1" data-original="#FFFFFF"></path></g></svg>