<svg xmlns="http://www.w3.org/2000/svg" version="1.1" xmlns:xlink="http://www.w3.org/1999/xlink" width="512" height="512" x="0" y="0" viewBox="0 0 68 68" style="enable-background:new 0 0 512 512" xml:space="preserve"><g><path d="M65.46 45.24c.76-.93.76-2.3 0-3.23l-1.15-1.42c-.276-.331-.027-.691.17-2.24.19-1.19-.5-2.37-1.62-2.81-1.62-.674-1.877-.587-2.03-.97l-.65-1.7a2.576 2.576 0 0 0-2.8-1.62l-1.8.28c-.414.077-.572-.282-1.86-1.26-.94-.76-2.3-.76-3.24 0l-1.41 1.14c-.321.247-.573.064-1.1.02v-8.3h6.93c2.26 0 4.1-1.84 4.1-4.1V8.54c0-3.59-2.92-6.51-6.52-6.51h-44c-3.59 0-6.51 2.92-6.51 6.51v46.23c0 3.59 2.92 6.51 6.51 6.51h32.1l-.33.92c-.258.709.357 1.45 1.11 1.32l3.49-.6 2.29 2.7c.509.59 1.443.396 1.7-.31l2.82-7.8c.1.004.445.09.87 0h.01l2.82 7.8c.257.706 1.19.9 1.7.31l2.29-2.7 3.48.6c.36.07.71-.06.94-.34.23-.27.3-.65.18-.98l-3.29-9.08.17-.44c.153-.382.412-.296 2.03-.97a2.6 2.6 0 0 0 1.62-2.81c-.198-1.554-.446-1.909-.17-2.24zm-3.24 2.18.28 1.79c.04.27-.11.53-.36.63-1.569.626-2.544.696-3.18 2.13l-.65 1.7c-.394 1.094-2.557-.804-4.44.61-.018.015-1.437 1.18-1.46 1.18a.54.54 0 0 1-.62 0c-.037 0-1.488-1.203-1.46-1.18-1.16-.869-2.158-.485-2.36-.49l-1.46.24c-1.173.175-.55-2.676-2.76-3.54l-1.69-.65c-1.105-.442.828-2.678-.62-4.44l-1.14-1.42c-.747-.878 2.05-1.931 1.68-4.15l-.28-1.79c-.04-.27.11-.53.36-.63 1.107-.55 2.59-.585 3.18-2.13.697-1.801.648-1.74.73-1.85.301-.37.75-.146 1-.14l1.33.22c2.246.343 3.253-2.424 4.16-1.69l1.41 1.15c.57.45 1.31.65 2.02.54l1.8-.29c1.155-.178.607 2.728 2.76 3.54l1.69.65c1.105.443-.824 2.682.62 4.44l1.14 1.42a.551.551 0 0 1 0 .71c-.673 1.017-1.95 1.826-1.68 3.44zM3.97 8.54c0-2.48 2.02-4.51 4.51-4.51h39.31c-1.198 1.28-1.82 2.855-1.82 4.51v22.72c-2.026.372-2.145 2.482-2.6 3.31-.153.383-.406.294-2.03.97a2.6 2.6 0 0 0-1.62 2.81l.29 1.79c.056.45-.266.54-1.27 1.87-.76.93-.76 2.3 0 3.23l1.15 1.42c.276.332.027.692-.17 2.24-.19 1.2.49 2.37 1.62 2.81l1.7.65c.342.114.36.48.5.77l-2.23 6.15H8.48c-2.49 0-4.51-2.02-4.51-4.51z" fill="#000000" opacity="1" data-original="#000000"></path><path d="M52.1 35.31a8.312 8.312 0 0 0-8.32 8.32c0 4.808 4.072 8.566 8.744 8.306 4.163-.233 7.896-3.613 7.896-8.306 0-4.6-3.73-8.32-8.32-8.32zm4.42 7.57c-1.114 1.202-1.716 1.386-1.61 2.02l.33 1.92c.11.6-.53 1.06-1.07.79-.845-.395-1.328-.748-1.7-.91-.263-.115-.47-.136-.71-.01l-1.73.92a.749.749 0 0 1-1.07-.79c.198-1.649.557-2.158.12-2.57l-1.4-1.37c-.39-.37-.295-1.088.41-1.26l1.93-.27c.283-.047.446-.204.6-.477.203-.357.392-.913.82-1.682a.734.734 0 0 1 1.32 0c.444.797.641 1.332.826 1.672.158.291.307.44.594.487l1.93.27c.61.09.85.84.41 1.26zM7.58 33.02h35.16c.56 0 1-.45 1-1s-.44-1-1-1h-3.07V14.8c0-.27-.22-.5-.5-.5h-4.39c-.28 0-.5.23-.5.5v16.22H31.8v-4.05c0-.27-.23-.5-.5-.5h-4.4c-.27 0-.5.23-.5.5v4.05h-2.47v-13c0-.28-.23-.5-.5-.5h-4.4c-.28 0-.5.22-.5.5v13h-2.48v-7.61c0-.27-.22-.5-.5-.5h-4.39c-.28 0-.5.23-.5.5v7.61H7.58c-.55 0-1 .45-1 1s.45 1 1 1z" fill="#000000" opacity="1" data-original="#000000"></path><path d="m13.65 16.64 7.54-5.51 7.27 6.05c.448.353 1.037.277 1.36-.08l7.88-8.27c.38-.4.36-1.03-.04-1.41a.996.996 0 0 0-1.41.03l-7.23 7.59-7.15-5.94a.992.992 0 0 0-1.23-.04l-8.17 5.97c-.45.32-.55.95-.22 1.4.32.44.95.54 1.4.21zM7.58 38.74h27.24c.56 0 1-.44 1-1 0-.55-.44-1-1-1H7.58c-.55 0-1 .45-1 1 0 .56.45 1 1 1zM7.58 44.42h27.24c.56 0 1-.44 1-1 0-.55-.44-1-1-1H7.58c-.55 0-1 .45-1 1 0 .56.45 1 1 1zM7.58 50.11h27.24c.56 0 1-.45 1-1 0-.56-.44-1-1-1H7.58c-.55 0-1 .44-1 1 0 .55.45 1 1 1zM7.58 55.79h12.91c.55 0 1-.45 1-1s-.45-1-1-1H7.58c-.55 0-1 .45-1 1s.45 1 1 1z" fill="#000000" opacity="1" data-original="#000000"></path></g></svg>