<svg xmlns="http://www.w3.org/2000/svg" version="1.1" xmlns:xlink="http://www.w3.org/1999/xlink" width="512" height="512" x="0" y="0" viewBox="0 0 64 64" style="enable-background:new 0 0 512 512" xml:space="preserve" class=""><g><path d="m9.043 53.531 1.414-1.414 1.414 1.414-1.414 1.414zM11.872 50.703l1.414-1.414 1.414 1.414-1.414 1.414zM6.287 56.288l1.343-1.342 1.414 1.414L7.7 57.702zM43.828 18.239A3.004 3.004 0 0 0 42 21c0 1.654 1.346 3 3 3s3-1.346 3-3c0-.352-.072-.686-.184-1h4.369A2.943 2.943 0 0 0 52 21c0 1.654 1.346 3 3 3s3-1.346 3-3c0-1.134-.64-2.112-1.571-2.621l1.295-2.59A2.621 2.621 0 0 0 55.382 12H44.62l-.8-4H39v2h3.18zM46 21a1.001 1.001 0 0 1-2 0 1.001 1.001 0 0 1 2 0zm9 1a1.001 1.001 0 0 1 0-2 1.001 1.001 0 0 1 0 2zm.382-8a.618.618 0 0 1 .553.894L54.382 18H45.82l-.8-4z" fill="#FFFFFF" opacity="1" data-original="#000000" class=""></path><path d="M45 36c0-1.902-.319-3.752-.937-5.529 1.895.521 3.884.662 5.897.403 6.674-.862 12.109-6.324 12.924-12.987.567-4.635-.981-9.178-4.246-12.462-3.266-3.286-7.799-4.859-12.432-4.32-6.52.758-11.857 5.81-12.979 12.284a14.986 14.986 0 0 0 .313 6.551C31.76 19.32 29.907 19 28 19c-9.374 0-17 7.626-17 17 0 3.016.798 5.846 2.182 8.305l-10.12 8.499A5.757 5.757 0 0 0 1 57.226 5.78 5.78 0 0 0 6.774 63c1.71 0 3.322-.751 4.422-2.062l8.497-10.12A16.886 16.886 0 0 0 28 53c9.374 0 17-7.626 17-17zm-9.803-22.27c.972-5.607 5.594-9.982 11.24-10.64A13.32 13.32 0 0 1 47.99 3c3.467 0 6.765 1.354 9.229 3.834 2.83 2.847 4.171 6.787 3.679 10.81-.706 5.77-5.414 10.499-11.194 11.245a12.887 12.887 0 0 1-8.545-1.852l-.527-.327-6.781 4.205c-.353.218-.851-.061-.851-.472v-.107a.56.56 0 0 1 .049-.229l3.554-7.858-.214-.427a12.968 12.968 0 0 1-1.192-8.092zM24.021 35a24.91 24.91 0 0 1 .46-4h6.584c.105.471.339.894.666 1.228.129.896.199 1.827.233 2.772zm7.958 2a24.91 24.91 0 0 1-.46 4h-7.038a24.797 24.797 0 0 1-.46-4zm.349-10.152c-.186-.42-.383-.811-.593-1.166.32.117.633.248.942.395zM31.007 29h-6.016c.789-2.473 1.935-4 3.009-4 1.062 0 2.227 1.584 3.007 4zm-8.112 0h-3.374a11.034 11.034 0 0 1 4.764-3.341c-.552.919-1.022 2.046-1.39 3.341zm-4.681 2h4.217a27.288 27.288 0 0 0-.409 4h-4.971c.129-1.43.537-2.779 1.163-4zm3.808 6c.046 1.419.184 2.763.409 4h-4.217a10.92 10.92 0 0 1-1.164-4zm.873 6c.368 1.295.838 2.422 1.391 3.341A11.029 11.029 0 0 1 19.522 43zm2.096 0h6.018c-.789 2.473-1.935 4-3.009 4s-2.22-1.527-3.009-4zm8.114 0h3.374a11.034 11.034 0 0 1-4.764 3.341c.552-.919 1.022-2.046 1.39-3.341zm4.681-2h-4.217c.225-1.237.364-2.581.409-4h4.971a10.899 10.899 0 0 1-1.163 4zm-3.822-6a28.765 28.765 0 0 0-.139-2.037c.38-.041.751-.143 1.079-.346l2.815-1.745a10.933 10.933 0 0 1 1.23 4.129h-4.985zM28 21c2.203 0 4.325.496 6.324 1.434l-.824 1.823C31.775 23.447 29.901 23 28 23c-7.168 0-13 5.832-13 13s5.832 13 13 13 13-5.832 13-13c0-2.169-.544-4.288-1.576-6.187l1.219-.756c.277.157.559.296.843.434C42.481 31.546 43 33.731 43 36c0 8.271-6.729 15-15 15s-15-6.729-15-15 6.729-15 15-15zM9.666 59.652A3.767 3.767 0 0 1 6.774 61 3.778 3.778 0 0 1 3 57.226c0-1.118.491-2.171 1.347-2.891l9.932-8.34a17.123 17.123 0 0 0 3.726 3.726zM8 11c1.654 0 3-1.346 3-3S9.654 5 8 5 5 6.346 5 8s1.346 3 3 3zm0-4a1.001 1.001 0 1 1-1 1c0-.552.449-1 1-1zM16 11c1.654 0 3-1.346 3-3s-1.346-3-3-3-3 1.346-3 3 1.346 3 3 3zm0-4a1.001 1.001 0 1 1-1 1c0-.552.449-1 1-1zM24 11c1.654 0 3-1.346 3-3s-1.346-3-3-3-3 1.346-3 3 1.346 3 3 3zm0-4a1.001 1.001 0 1 1-1 1c0-.552.449-1 1-1z" fill="#FFFFFF" opacity="1" data-original="#000000" class=""></path><path d="M4 15h4.586l5.293 5.294c.45.448 1.072.706 1.707.706A2.417 2.417 0 0 0 18 18.586V15h10c1.654 0 3-1.346 3-3V4c0-1.654-1.346-3-3-3H4C2.346 1 1 2.346 1 4v8c0 1.654 1.346 3 3 3zM3 4c0-.552.449-1 1-1h24c.551 0 1 .448 1 1v8c0 .552-.449 1-1 1H16v5.586c0 .337-.468.531-.707.293L9.414 13H4c-.551 0-1-.448-1-1zM55 35v26h-2V45h-8v16h-2v-8h-8v10h28V35zM41 61h-4v-6h4zm6-14h4v14h-4zm14 14h-4V37h4z" fill="#FFFFFF" opacity="1" data-original="#000000" class=""></path></g></svg>