<?xml version="1.0" encoding="UTF-8"?>
<svg id="Layer_1" data-name="Layer 1" xmlns="http://www.w3.org/2000/svg" version="1.1" viewBox="0 0 512 512">
  <defs>
    <style>
      .cls-1 {
        fill: #fff;
        fill-rule: evenodd;
        stroke-width: 0px;
      }
    </style>
  </defs>
  <path class="cls-1" d="M318.2,380l13.6,34c.5,1.3.3,2.8-.6,3.9-9.3,11.9-20,22.6-31.9,31.9-1.1.9-2.6,1.1-3.9.6l-34.3-13.7c-11.1,6.3-23,11.3-35.3,14.6l-14.6,33.9c-.6,1.3-1.8,2.2-3.2,2.4-7.5.9-15,1.4-22.6,1.4-7.6,0-15.2-.5-22.6-1.4-1.4-.2-2.6-1.1-3.2-2.4l-14.6-33.9c-12.3-3.4-24.2-8.3-35.3-14.6l-34.3,13.7c-1.3.5-2.8.3-3.9-.6-11.9-9.3-22.6-20-31.9-31.9-.9-1.1-1.1-2.6-.6-3.9l13.7-34.3c-6.3-11.1-11.3-23-14.6-35.3l-33.9-14.6c-1.3-.6-2.2-1.8-2.4-3.2-.9-7.5-1.4-15-1.4-22.6,0-7.6.5-15.2,1.4-22.6.2-1.4,1.1-2.6,2.4-3.2l33.9-14.6c3.4-12.3,8.3-24.2,14.6-35.3l-13.7-34.3c-.5-1.3-.3-2.8.6-3.9,9.3-11.9,20-22.6,31.9-31.9,1.1-.9,2.6-1.1,3.9-.6l34.3,13.7c11.1-6.3,23-11.3,35.3-14.6l14.6-33.9c.6-1.3,1.8-2.2,3.2-2.4,7.5-.9,15-1.4,22.6-1.4,1.4,0,2.7,0,4.1,0v-55.3c-14,0-60.2,0-60.2,0-2.2,0-4-1.8-4-4,0-20.4,15.3-37,34.1-37.6.1,0,.2,0,.4,0h.7s251,0,251,0c20.7,0,37.6,16.9,37.6,37.6v278.6h58.4c2.2,0,4,1.8,4,4h0c0,20.8-15.9,37.6-35.1,37.6h-158.1ZM189.6,127.1c-1.4,0-2.7,0-4.1,0-6.5,0-13,.4-19.3,1.1l-14.4,33.6c-.5,1.1-1.5,2-2.7,2.3-12.9,3.4-25.3,8.5-36.9,15.3-1.1.6-2.4.7-3.5.3l-34-13.6c-10.1,8.1-19.2,17.3-27.3,27.3l13.6,34c.5,1.1.4,2.4-.3,3.5-6.8,11.5-11.9,23.9-15.3,36.9-.3,1.2-1.2,2.2-2.3,2.7l-33.6,14.4c-.7,6.4-1.1,12.9-1.1,19.3,0,6.5.4,13,1.1,19.3l33.6,14.4c1.1.5,2,1.5,2.3,2.7,3.4,12.9,8.5,25.3,15.3,36.9.6,1.1.7,2.4.3,3.5l-13.6,34c8.1,10.1,17.2,19.2,27.3,27.3l34-13.6c1.1-.5,2.4-.4,3.5.3,11.5,6.8,23.9,11.9,36.9,15.3,1.2.3,2.2,1.2,2.7,2.3l14.4,33.6c6.4.7,12.9,1.1,19.3,1.1,6.5,0,13-.4,19.3-1.1l14.4-33.6c.5-1.1,1.5-2,2.7-2.3,12.9-3.4,25.3-8.5,36.9-15.3,1.1-.6,2.4-.7,3.5-.3l34,13.6c10.1-8.1,19.2-17.3,27.3-27.3l-13.6-34c-.1-.3-.2-.5-.2-.8h-42.7c-20.3,21.8-49.3,35.5-81.5,35.5-61.5,0-111.4-49.9-111.4-111.4s49.9-111.4,111.4-111.4,2.7,0,4.1,0v-65.6ZM197.5,59.8v62.8c0,.4,0,.8,0,1.2v72.5c0,.4,0,.8,0,1.2v144.9c0,16,12.9,29.2,28.8,29.7,14.7-.5,26.4-13.7,26.4-29.7,0-2.2,1.8-4,4-4h184.7V59.8c0-16.3-13.4-29.7-29.7-29.7h-228.6c8.9,6.9,14.6,17.7,14.6,29.7h0ZM160.2,30.2c-13.7.2-24.9,11.4-26.7,25.7,11.6,0,44.1,0,55.7,0-1.9-14.4-14.2-25.6-29.1-25.7ZM476.3,372.1c13.8,0,25.2-11.3,27-25.7h-243c-1,10.4-6.1,19.6-13.5,25.7h17.8c.4,0,.8,0,1.1,0h49.2c.4,0,.8,0,1.2,0h160.2ZM189.6,200.7c-1.4,0-2.7,0-4.1,0-57.1,0-103.4,46.3-103.4,103.4s46.3,103.4,103.4,103.4,51.8-10.4,70.2-27.5h-28.5c-.3,0-.6,0-.9,0-.3,0-.6,0-.9,0s-.6,0-.9,0c-19.4-1.4-34.9-17.7-34.9-37.5v-141.7ZM288,110.9c-2.2,0-4-1.8-4-4,0-2.2,1.8-3.9,4-4h74.9c2.2,0,3.9,1.8,4,4,0,2.2-1.8,4-4,4h-74.9ZM288,234.7c-2.2,0-4-1.8-4-4,0-2.2,1.8-4,4-4h74.9c2.2,0,3.9,1.8,4,4,0,2.2-1.8,3.9-4,4h-74.9ZM288,280.4c-2.2,0-4-1.8-4-4,0-2.2,1.8-3.9,4-4h111.2c2.2,0,4,1.8,4,4,0,2.2-1.8,4-4,4h-111.2ZM288,156.7c-2.2,0-4-1.8-4-4,0-2.2,1.8-3.9,4-4h111.2c2.2,0,4,1.8,4,4,0,2.2-1.8,4-4,4h-111.2ZM288,296.6c-2.2,0-4-1.8-4-4,0-2.2,1.8-4,4-4h74.9c2.2,0,3.9,1.8,4,4,0,2.2-1.8,3.9-4,4h-74.9ZM288,94.7c-2.2,0-4-1.8-4-4,0-2.2,1.8-4,4-4h111.2c2.2,0,4,1.8,4,4,0,2.2-1.8,3.9-4,4h-111.2ZM229.2,210.6h32.3c2.2,0,4,1.8,4,3.9h0v32.3c0,2.2-1.8,4-4,4h-32.3c-2.2,0-4-1.8-4-3.9h0v-32.3c0-2.2,1.8-4,4-4h0ZM233.2,218.6v24.4h24.4v-24.4h-24.4ZM229.2,86.8h32.3c2.2,0,4,1.8,4,3.9h0v32.3c0,2.2-1.8,4-3.9,4h-32.3c-2.2,0-4-1.8-4-3.9h0v-32.3c0-2.2,1.8-4,4-4h0ZM233.2,94.7v24.4h24.4v-24.4h-24.4ZM229.2,272.5h32.3c2.2,0,4,1.8,4,4h0v32.3c0,2.2-1.8,4-4,4h-32.3c-2.2,0-4-1.8-4-3.9h0v-32.3c0-2.2,1.8-4,4-4h0ZM233.2,280.4v24.4h24.4v-24.4h-24.4ZM288,172.8c-2.2,0-4-1.8-4-4,0-2.2,1.8-4,4-4h74.9c2.2,0,3.9,1.8,4,4,0,2.2-1.8,3.9-4,4h-74.9ZM229.2,148.7h32.3c2.2,0,4,1.8,4,3.9h0v32.3c0,2.2-1.8,4-4,4h-32.3c-2.2,0-4-1.8-4-3.9h0v-32.3c0-2.2,1.8-4,4-4h0ZM233.2,156.7v24.4h24.4v-24.4h-24.4ZM288,218.6c-2.2,0-4-1.8-4-4,0-2.2,1.8-3.9,4-4h111.2c2.2,0,4,1.8,4,4,0,2.2-1.8,4-4,4h-111.2Z"/>
</svg>