<svg xmlns="http://www.w3.org/2000/svg" version="1.1" xmlns:xlink="http://www.w3.org/1999/xlink" width="512" height="512" x="0" y="0" viewBox="0 0 511.3 511.3" style="enable-background:new 0 0 512 512" xml:space="preserve"><g><path d="m440.466 437.511 53.821-44.011c9.643-6.562 12.39-19.563 6.228-29.467-6.177-9.926-19.095-13.192-29.247-7.394l-109.39 66.507-95.642-27.043 71.971-30.254c12.511-5.302 18.693-19.461 14.076-32.241-4.883-13.516-19.94-20.357-33.332-15.145l-50.739 19.746c-66.711-40.936-111.334 9.809-111.334 9.809H127M127 478.208h53.878l185.361 20 62.438-51.057" style="stroke-miterlimit: 10;" fill="none" stroke="#FFFFFF" stroke-width="15px" stroke-miterlimit="10" data-original="#FFFFFF"></path><path d="m435.463 378.407 6.059-19.413c4.438-10.786-.423-23.153-11.019-28.03-10.62-4.887-23.204-.504-28.489 9.924l-38.395 81.198M127 405.556v98.063H7.5v-180H127v67" style="stroke-miterlimit: 10;" fill="none" stroke="#FFFFFF" stroke-width="15px" stroke-miterlimit="10" data-original="#FFFFFF"></path><circle cx="67.25" cy="444.619" r="21.125" style="stroke-miterlimit: 10;" fill="none" stroke="#FFFFFF" stroke-width="15px" stroke-miterlimit="10" data-original="#FFFFFF"></circle><path d="M286 211.619h100v35.667H286zM306 247.286h60v38.052h-60zM422.902 140.898c5.166-11.709 8.035-24.659 8.035-38.28 0-52.433-42.505-94.938-94.938-94.938s-94.938 42.505-94.938 94.938c0 34.11 17.992 64.013 45 80.75v28.25h99.875v-28.25a95.459 95.459 0 0 0 29.89-29.348" style="stroke-miterlimit: 10;" fill="none" stroke="#FFFFFF" stroke-width="15px" stroke-miterlimit="10" data-original="#FFFFFF"></path><path d="m371.687 87.406-42.427 42.426-28.947-28.947M211 105.681h-44.875M226.278 168.575l-38.863 22.437M442.784 173.663l38.863 22.437M461 111.556h44.875M445.722 48.663l38.863-22.438M229.216 43.575l-38.863-22.438" style="stroke-miterlimit: 10;" fill="none" stroke="#FFFFFF" stroke-width="15px" stroke-miterlimit="10" data-original="#FFFFFF"></path></g></svg>