<?xml version="1.0" encoding="UTF-8"?>
<svg id="Layer_1" data-name="Layer 1" xmlns="http://www.w3.org/2000/svg" version="1.1" viewBox="0 0 512 512">
  <defs>
    <style>
      .cls-1 {
        fill: #fff;
        stroke-width: 0px;
      }
    </style>
  </defs>
  <path class="cls-1" d="M432.9,288.5l-8.4-8.4c-4.5-4.5-9.9-7.3-15.7-8.6l2.6-2.6c12.4-12.4,12.4-32.6,0-45.1l-8.4-8.4c-6-6-14-9.3-22.5-9.3s-2,0-2.9.1c0-1,.1-1.9.1-2.9,0-8.5-3.3-16.5-9.3-22.5l-8.4-8.4c-4.4-4.4-9.8-7.3-15.7-8.6l20.3-20.3c2.9-2.9,2.9-7.5,0-10.4-2.9-2.9-7.5-2.9-10.4,0l-39.3,39.3s0,0,0,0l-40.7,40.7c-6,6-9.3,14-9.3,22.5s3.3,16.5,9.3,22.5l8.4,8.4s0,0,0,0c6.2,6.2,14.4,9.3,22.5,9.3s2,0,3-.1c-.8,9.1,2.2,18.5,9.2,25.5l8.4,8.4c6,6,14,9.3,22.5,9.3s2,0,3-.1c-.8,9.1,2.2,18.5,9.2,25.5l8.4,8.4c4.4,4.4,9.8,7.3,15.7,8.6l-50.8,50.8c-22.6,22.6-53.9,34.8-85.8,33.4-11.4-.5-22.8,4-31.1,12.3l-32.3,32.3c-2.9,2.9-7.5,2.9-10.4,0l-34.9-34.9c-2.9-2.9-7.5-2.9-10.4,0-2.9,2.9-2.9,7.5,0,10.4l34.9,34.9c4.3,4.3,9.9,6.4,15.6,6.4s11.3-2.1,15.6-6.4l32.3-32.3c5.4-5.4,12.7-8.3,20.1-8,36,1.5,71.3-12.2,96.8-37.7l69.8-69.8,19.2-19.2c6-6,9.3-14,9.3-22.5s-3.3-16.5-9.3-22.5ZM293,256.2l-8.4-8.4c-3.2-3.2-5-7.6-5-12.1s1.8-8.9,5-12.1l40.7-40.7s0,0,0,0h0c3.2-3.2,7.5-5,12.1-5s8.9,1.8,12.1,5l8.4,8.4c3.2,3.2,5,7.6,5,12.1s-1.8,8.9-5,12.1l-40.7,40.7c-6.7,6.7-17.6,6.7-24.3,0ZM348.2,304.3c-4.6,0-8.9-1.8-12.1-5,0,0,0,0,0,0l-8.4-8.4c-6.7-6.7-6.7-17.6,0-24.3l40.7-40.7s0,0,0,0c3.2-3.2,7.5-5,12.1-5s8.9,1.8,12.1,5l8.4,8.4c6.7,6.7,6.7,17.6,0,24.3l-21.5,21.5s0,0,0,0l-19.2,19.2c-3.2,3.2-7.5,5-12.1,5ZM403.4,342.4c-6.7,6.7-17.6,6.7-24.3,0l-8.4-8.4c-6.7-6.7-6.7-17.6,0-24.3l19.2-19.2c3.3-3.3,7.7-5,12.1-5s8.8,1.7,12.1,5l8.4,8.4c6.7,6.7,6.7,17.6,0,24.3l-19.2,19.2Z"/>
  <path class="cls-1" d="M123.6,356.4c8-8,11.2-19.8,8.2-30.8l-46.7-174.4c-1.4-5.1-.7-10.4,2-15s6.9-7.8,12-9.2c10.8-2.9,22-1.4,31.6,4.2,9.6,5.6,16.5,14.6,19.4,25.3l12.8,47.6c1.4,5,3.7,9.7,7,13.7,0,0,0,0,0,0,5.8,7,13.9,11.7,23,13.1,20.8,3.3,37.8,18.7,43.3,39,3.7,13.8,1.8,28.3-5.4,40.6-7.2,12.4-18.7,21.3-32.5,25-3.9,1.1-6.3,5.1-5.2,9,.9,3.3,3.9,5.5,7.1,5.5s1.3,0,1.9-.3c17.6-4.7,32.3-16,41.5-31.8,9.1-15.8,11.5-34.2,6.8-51.8-6.2-23.2-24.1-41.2-46.8-47.9l150.6-150.6c9-9,23.7-9.4,32.7-.9,4.6,4.3,7.1,10.2,7.2,16.5,0,6.3-2.3,12.2-6.8,16.7l-8.8,8.8c-2.9,2.9-2.9,7.5,0,10.4,2.9,2.9,7.5,2.9,10.4,0l8.8-8.8c7.3-7.3,11.2-17,11.1-27.3-.1-10.3-4.3-19.9-11.8-27-14.7-13.9-38.6-13.4-53.2,1.2l-151.7,151.7c-1.5,1.5-3.5,2.2-5.6,2.1-2.1-.1-4-1.1-5.3-2.7-2-2.4-3.4-5.2-4.2-8.2l-12.8-47.6c-3.9-14.5-13.2-26.7-26.3-34.2-13-7.5-28.2-9.5-42.8-5.6-8.9,2.4-16.3,8.1-20.9,16.1s-5.8,17.3-3.4,26.2l46.7,174.4c1.6,5.9-.1,12.3-4.4,16.6l-36.5,36.5c-4.2,4.2-6.5,9.7-6.5,15.6s2.3,11.4,6.5,15.6l27.5,27.5c1.4,1.4,3.3,2.2,5.2,2.2s3.8-.7,5.2-2.2c2.9-2.9,2.9-7.5,0-10.4l-27.5-27.5c-1.4-1.4-2.2-3.2-2.2-5.2s.8-3.8,2.2-5.2l36.5-36.5Z"/>
  <path class="cls-1" d="M148.6,389c-2.9,2.9-2.9,7.5,0,10.4l29.4,29.4c1.4,1.4,3.3,2.2,5.2,2.2s3.8-.7,5.2-2.2c2.9-2.9,2.9-7.5,0-10.4l-29.4-29.4c-2.9-2.9-7.5-2.9-10.4,0Z"/>
  <path class="cls-1" d="M191.4,141c4.3,4.3,10,6.5,15.6,6.5s11.3-2.2,15.6-6.5l86.9-86.9c8.6-8.6,8.6-22.6,0-31.2l-11.5-11.5c-4.2-4.2-9.7-6.5-15.6-6.5s-11.4,2.3-15.6,6.5l-19.2,19.2c-2.9,2.9-2.9,7.5,0,10.4,2.9,2.9,7.5,2.9,10.4,0l19.2-19.2c1.4-1.4,3.2-2.2,5.2-2.2s3.8.8,5.2,2.2l11.5,11.5c2.9,2.9,2.9,7.5,0,10.4l-86.9,86.9c-1.4,1.4-3.2,2.2-5.2,2.2s-3.8-.8-5.2-2.2l-54.6-54.6c-2.9-2.9-2.9-7.5,0-10.4l11.5-11.5c2.9-2.9,7.5-2.9,10.4,0l32.7,32.7c1.4,1.4,3.2,2.2,5.2,2.2s3.8-.8,5.2-2.2l21.2-21.2c2.9-2.9,2.9-7.5,0-10.4-2.9-2.9-7.5-2.9-10.4,0l-16,16-27.5-27.5c-8.6-8.6-22.6-8.6-31.2,0l-11.5,11.5c-4.2,4.2-6.5,9.7-6.5,15.6s2.3,11.4,6.5,15.6l54.6,54.6Z"/>
</svg>