<svg xmlns="http://www.w3.org/2000/svg" version="1.1" xmlns:xlink="http://www.w3.org/1999/xlink" width="512" height="512" x="0" y="0" viewBox="0 0 64 64" style="enable-background:new 0 0 512 512" xml:space="preserve" class=""><g><path d="M63 19.784v-7.568l-2.794-.687a13.38 13.38 0 0 0-.416-.995l1.492-2.465-5.352-5.352-2.464 1.493a13.38 13.38 0 0 0-.995-.416L51.784 1h-7.568l-.687 2.794a13.38 13.38 0 0 0-.995.416l-2.465-1.492-5.352 5.352 1.492 2.465a13.38 13.38 0 0 0-.416.995L33 12.216V19H6c-2.757 0-5 2.243-5 5v24c0 2.757 2.243 5 5 5h8v4h-4c-1.103 0-2 .897-2 2v2c0 1.103.897 2 2 2h53v-4c0-7.276-4.887-13.423-11.549-15.357A7.997 7.997 0 0 0 55 37c0-2.609-1.261-4.923-3.199-6.384l.102-.099.568-2.311c.332-.123.664-.262.995-.416l2.465 1.492 5.352-5.352-1.492-2.465c.154-.331.293-.663.416-.995zM6 21h34c1.654 0 3 1.346 3 3v6.082a8.047 8.047 0 0 0-2 1.644V25c0-1.103-.897-2-2-2H7c-1.103 0-2 .897-2 2v20H3V24c0-1.654 1.346-3 3-3zm35-5c0-3.859 3.141-7 7-7s7 3.141 7 7-3.141 7-7 7a6.966 6.966 0 0 1-3.374-.883 5.02 5.02 0 0 0-2.744-2.743A6.985 6.985 0 0 1 41 16zm10.866 38.969L48.42 61h-.104l4.137-14.894c.427.181.843.385 1.248.606l-.634 3.807-2.283 2.283zM45.58 61l-3.446-6.031 1.083-2.166-2.283-2.283-.634-3.807c.404-.221.82-.425 1.248-.606L45.684 61zM35 45h-2V29h2zm6-.822v-1.904c.456.519.973.983 1.549 1.369a15.72 15.72 0 0 0-1.549.535zM39 45h-2V27h-6v18h-2V31h-6v14h-2V35h-6v10H7V25h32zm-12 0h-2V33h2zm-8 0h-2v-8h2zM3 48v-1h33.453a16.093 16.093 0 0 0-3.288 4H6c-1.654 0-3-1.346-3-3zm13 5h16.178a15.834 15.834 0 0 0-1.039 4H16zm-6 8v-2h21v2zm23 0v-2c0-4.51 2.152-8.517 5.474-11.079l.593 3.559 1.717 1.717-.917 1.834L43.277 61H38v-8h-2v8h-2.96zm28-2v2h-3v-8h-2v8h-5.277l3.411-5.969-.917-1.834 1.717-1.717.593-3.559C58.848 50.483 61 54.49 61 59zM50.552 45.474 47 58.262l-3.552-12.788C44.585 45.175 45.771 45 47 45s2.415.175 3.552.474zM53 37c0 3.309-2.691 6-6 6s-6-2.691-6-6 2.691-6 6-6 6 2.691 6 6zm5.759-13.374-3.133 3.133-2.074-1.255-.498.259c-.573.298-1.154.541-1.725.722l-.536.169-.695 2.83-.106.103A7.926 7.926 0 0 0 47 29c-.692 0-1.359.097-2 .263v-4.799c.96.34 1.969.536 3 .536 4.963 0 9-4.037 9-9s-4.037-9-9-9-9 4.037-9 9c0 1.031.196 2.04.536 3H35v-5.216l2.347-.577.169-.536c.181-.57.424-1.151.722-1.725l.259-.498-1.255-2.074 3.133-3.133 2.074 1.255.498-.259a10.894 10.894 0 0 1 1.725-.722l.536-.169L45.784 3h4.432l.577 2.347.536.169c.57.181 1.151.424 1.725.722l.498.259 2.074-1.255 3.133 3.133-1.255 2.074.259.498c.298.573.541 1.154.722 1.725l.169.536 2.346.576v4.432l-2.347.577-.169.535a10.943 10.943 0 0 1-.722 1.726l-.259.498z" fill="#FFFFFF" opacity="1" data-original="#FFFFFF" class=""></path><path d="M48 21c2.757 0 5-2.243 5-5s-2.243-5-5-5-5 2.243-5 5 2.243 5 5 5zm0-8c1.654 0 3 1.346 3 3s-1.346 3-3 3-3-1.346-3-3 1.346-3 3-3zM9 27h2v2H9zM13 27h2v2h-2zM17 27h2v2h-2zM9 31h10v2H9z" fill="#FFFFFF" opacity="1" data-original="#FFFFFF" class=""></path></g></svg>