<svg xmlns="http://www.w3.org/2000/svg" version="1.1" xmlns:xlink="http://www.w3.org/1999/xlink" width="512" height="512" x="0" y="0" viewBox="0 0 682.667 682.667" style="enable-background:new 0 0 512 512" xml:space="preserve" class=""><g><defs><clipPath id="a" clipPathUnits="userSpaceOnUse"><path d="M0 512h512V0H0Z" fill="#ffffff" opacity="1" data-original="#FFFFFF" class=""></path></clipPath></defs><g clip-path="url(#a)" transform="matrix(1.33333 0 0 -1.33333 0 682.667)"><path d="M0 0v68.248h-27.308a140.963 140.963 0 0 1-16.189 39.069l19.314 19.315-48.258 48.258-19.315-19.314a140.92 140.92 0 0 1-39.069 16.189v27.309h-68.248v-27.309a140.939 140.939 0 0 1-39.07-16.189l-19.314 19.314-48.258-48.258 19.314-19.315a140.933 140.933 0 0 1-16.189-39.069h-27.308V0h27.308a140.933 140.933 0 0 1 16.189-39.069l-19.314-19.315 48.258-48.258 19.314 19.314a140.939 140.939 0 0 1 39.07-16.189v-27.309h68.248v27.309a140.92 140.92 0 0 1 39.069 16.189l19.315-19.314 48.258 48.258-19.314 19.315A140.963 140.963 0 0 1-27.308 0z" style="stroke-linecap: round; stroke-linejoin: round; stroke-miterlimit: 10; stroke-dasharray: none; stroke-opacity: 1;" transform="translate(420.95 221.876)" fill="none" stroke="#FFFFFF" stroke-width="20px" stroke-linecap="round" stroke-linejoin="round" stroke-miterlimit="10" stroke-dasharray="none" stroke-opacity="" data-original="#FFFFFF" class="" opacity="1"></path><path d="M0 0v87.239l-75.552 43.62-75.551-43.62V0l75.551-43.62z" style="stroke-linecap: round; stroke-linejoin: round; stroke-miterlimit: 10; stroke-dasharray: none; stroke-opacity: 1;" transform="translate(331.552 212.38)" fill="none" stroke="#FFFFFF" stroke-width="20px" stroke-linecap="round" stroke-linejoin="round" stroke-miterlimit="10" stroke-dasharray="none" stroke-opacity="" data-original="#FFFFFF" class="" opacity="1"></path><path d="m0 0 73.07-42.187L146.934.458" style="stroke-linecap: round; stroke-linejoin: round; stroke-miterlimit: 10; stroke-dasharray: none; stroke-opacity: 1;" transform="translate(182.93 298.187)" fill="none" stroke="#FFFFFF" stroke-width="20px" stroke-linecap="round" stroke-linejoin="round" stroke-miterlimit="10" stroke-dasharray="none" stroke-opacity="" data-original="#FFFFFF" class="" opacity="1"></path><path d="M0 0v-82.447" style="stroke-linecap: round; stroke-linejoin: round; stroke-miterlimit: 10; stroke-dasharray: none; stroke-opacity: 1;" transform="translate(256 256)" fill="none" stroke="#FFFFFF" stroke-width="20px" stroke-linecap="round" stroke-linejoin="round" stroke-miterlimit="10" stroke-dasharray="none" stroke-opacity="" data-original="#FFFFFF" class="" opacity="1"></path><path d="M0 0c-35.13 19.6-75.576 30.764-118.622 30.764" style="stroke-linecap: round; stroke-linejoin: round; stroke-miterlimit: 10; stroke-dasharray: none; stroke-opacity: 1;" transform="translate(374.622 469.707)" fill="none" stroke="#FFFFFF" stroke-width="20px" stroke-linecap="round" stroke-linejoin="round" stroke-miterlimit="10" stroke-dasharray="none" stroke-opacity="" data-original="#FFFFFF" class="" opacity="1"></path><path d="M0 0c-9.024 36.793-26.323 70.321-49.804 98.481" style="stroke-linecap: round; stroke-linejoin: round; stroke-miterlimit: 10; stroke-dasharray: none; stroke-opacity: 1;" transform="translate(493.38 314.002)" fill="none" stroke="#FFFFFF" stroke-width="20px" stroke-linecap="round" stroke-linejoin="round" stroke-miterlimit="10" stroke-dasharray="none" stroke-opacity="" data-original="#FFFFFF" class="" opacity="1"></path><path d="m0 0 28.649-18.803 8.472 33.259" style="stroke-linecap: round; stroke-linejoin: round; stroke-miterlimit: 10; stroke-dasharray: none; stroke-opacity: 1;" transform="translate(464.879 332.459)" fill="none" stroke="#FFFFFF" stroke-width="20px" stroke-linecap="round" stroke-linejoin="round" stroke-miterlimit="10" stroke-dasharray="none" stroke-opacity="" data-original="#FFFFFF" class="" opacity="1"></path><path d="M0 0c26.261-107.063 122.579-186.469 237.38-186.469" style="stroke-linecap: round; stroke-linejoin: round; stroke-miterlimit: 10; stroke-dasharray: none; stroke-opacity: 1;" transform="translate(18.62 197.998)" fill="none" stroke="#FFFFFF" stroke-width="20px" stroke-linecap="round" stroke-linejoin="round" stroke-miterlimit="10" stroke-dasharray="none" stroke-opacity="" data-original="#FFFFFF" class="" opacity="1"></path><path d="m0 0-28.649 18.803-8.472-33.259" style="stroke-linecap: round; stroke-linejoin: round; stroke-miterlimit: 10; stroke-dasharray: none; stroke-opacity: 1;" transform="translate(47.121 179.542)" fill="none" stroke="#FFFFFF" stroke-width="20px" stroke-linecap="round" stroke-linejoin="round" stroke-miterlimit="10" stroke-dasharray="none" stroke-opacity="" data-original="#FFFFFF" class="" opacity="1"></path><path d="M0 0c107.063 26.261 186.469 122.579 186.469 237.38" style="stroke-linecap: round; stroke-linejoin: round; stroke-miterlimit: 10; stroke-dasharray: none; stroke-opacity: 1;" transform="translate(314.002 18.62)" fill="none" stroke="#FFFFFF" stroke-width="20px" stroke-linecap="round" stroke-linejoin="round" stroke-miterlimit="10" stroke-dasharray="none" stroke-opacity="" data-original="#FFFFFF" class="" opacity="1"></path><path d="m0 0-18.803-28.649 33.26-8.472" style="stroke-linecap: round; stroke-linejoin: round; stroke-miterlimit: 10; stroke-dasharray: none; stroke-opacity: 1;" transform="translate(332.458 47.121)" fill="none" stroke="#FFFFFF" stroke-width="20px" stroke-linecap="round" stroke-linejoin="round" stroke-miterlimit="10" stroke-dasharray="none" stroke-opacity="" data-original="#FFFFFF" class="" opacity="1"></path><path d="M0 0c-107.063-26.261-186.469-122.579-186.469-237.38" style="stroke-linecap: round; stroke-linejoin: round; stroke-miterlimit: 10; stroke-dasharray: none; stroke-opacity: 1;" transform="translate(197.998 493.38)" fill="none" stroke="#FFFFFF" stroke-width="20px" stroke-linecap="round" stroke-linejoin="round" stroke-miterlimit="10" stroke-dasharray="none" stroke-opacity="" data-original="#FFFFFF" class="" opacity="1"></path><path d="m0 0 18.803 28.649-33.259 8.472" style="stroke-linecap: round; stroke-linejoin: round; stroke-miterlimit: 10; stroke-dasharray: none; stroke-opacity: 1;" transform="translate(179.542 464.879)" fill="none" stroke="#FFFFFF" stroke-width="20px" stroke-linecap="round" stroke-linejoin="round" stroke-miterlimit="10" stroke-dasharray="none" stroke-opacity="" data-original="#FFFFFF" class="" opacity="1"></path><path d="M0 0v0" style="stroke-linecap: round; stroke-linejoin: round; stroke-miterlimit: 10; stroke-dasharray: none; stroke-opacity: 1;" transform="translate(411.792 444.339)" fill="none" stroke="#FFFFFF" stroke-width="20px" stroke-linecap="round" stroke-linejoin="round" stroke-miterlimit="10" stroke-dasharray="none" stroke-opacity="" data-original="#FFFFFF" class="" opacity="1"></path></g></g></svg>