<svg xmlns="http://www.w3.org/2000/svg" version="1.1" xmlns:xlink="http://www.w3.org/1999/xlink" width="512" height="512" x="0" y="0" viewBox="0 0 512 512" style="enable-background:new 0 0 512 512" xml:space="preserve" class=""><g><path d="M504 256c0 66.243-25.797 128.521-72.638 175.362C384.521 478.204 322.243 504 256 504c-52.735 0-104.153-16.9-146.467-47.869l5.167 18.11a8 8 0 0 1-7.697 10.197 8.003 8.003 0 0 1-7.689-5.807l-12.148-42.578a7.998 7.998 0 0 1 7.406-10.19l44.248-1.59c4.408-.17 8.124 3.292 8.282 7.708a8 8 0 0 1-7.708 8.282l-23.252.836C156.253 471.414 205.477 488 256 488c127.925 0 232-104.075 232-232 0-41.027-10.857-81.346-31.398-116.599a7.998 7.998 0 0 1 2.885-10.939 7.998 7.998 0 0 1 10.939 2.885C492.39 169.042 504 212.146 504 256zm-480 0C24 128.075 128.075 24 256 24c50.511 0 99.729 16.586 139.841 46.901l-23.235.835a8 8 0 0 0 .574 15.99l44.249-1.59a8.001 8.001 0 0 0 7.406-10.19l-12.148-42.578a8 8 0 0 0-9.888-5.498 8 8 0 0 0-5.498 9.888l5.172 18.127C360.152 24.906 308.733 8 256 8 189.757 8 127.479 33.797 80.638 80.638 33.796 127.479 8 189.757 8 256c0 43.864 11.609 86.975 33.574 124.671a7.996 7.996 0 0 0 10.939 2.885 8 8 0 0 0 2.885-10.939C34.857 337.363 24 297.037 24 256zm275.886 1.437a8 8 0 0 1 8 8c0 28.609-23.276 51.885-51.886 51.885s-51.885-23.275-51.885-51.885a8 8 0 0 1 8-8zm-8.899 16h-69.973c3.645 15.949 17.948 27.885 34.986 27.885s31.341-11.936 34.987-27.885zM86.936 295.394a8 8 0 0 1-5.126-7.466v-22.491a8 8 0 0 1 8-8h87.742a8 8 0 0 1 8 8c0 38.845 31.603 70.448 70.449 70.448s70.449-31.603 70.449-70.448a8 8 0 0 1 8-8h87.742a8 8 0 0 1 8 8v22.49a8 8 0 0 1-5.126 7.466l-23.675 9.113a149.532 149.532 0 0 1-14.964 36.092L396.73 363.8a8 8 0 0 1-1.654 8.904l-31.807 31.808a7.996 7.996 0 0 1-8.904 1.654l-23.193-10.301a149.492 149.492 0 0 1-36.103 14.967l-9.111 23.669a8 8 0 0 1-7.466 5.126H233.51a8 8 0 0 1-7.466-5.126l-9.113-23.675a149.522 149.522 0 0 1-36.092-14.964l-23.202 10.305a8 8 0 0 1-8.904-1.655l-31.808-31.808a7.999 7.999 0 0 1-1.654-8.904l10.3-23.193a149.53 149.53 0 0 1-14.966-36.103zm10.874-12.959 22.407 8.625a7.998 7.998 0 0 1 4.909 5.614 133.626 133.626 0 0 0 16.25 39.199 8.001 8.001 0 0 1 .499 7.442l-9.752 21.959 24.04 24.04 21.968-9.756a8.004 8.004 0 0 1 7.442.499 133.627 133.627 0 0 0 39.188 16.248 8 8 0 0 1 5.614 4.909l8.627 22.414h33.997l8.625-22.408a8.002 8.002 0 0 1 5.614-4.909 133.583 133.583 0 0 0 39.199-16.25 7.995 7.995 0 0 1 7.442-.5l21.959 9.753 24.039-24.04-9.757-21.968a7.996 7.996 0 0 1 .5-7.441 133.657 133.657 0 0 0 16.248-39.189 8 8 0 0 1 4.909-5.614l22.414-8.628v-8.998h-72.109c-4.05 43.932-41.111 78.448-86.082 78.448s-82.032-34.517-86.082-78.448H97.81zm332.334-69.179a7.997 7.997 0 0 1-7.954 8.851h-92.322c.288 1.649.542 3.31.723 4.997a8 8 0 0 1-7.954 8.852H189.366a8 8 0 0 1-7.954-8.851c.181-1.688.435-3.349.723-4.998H89.813a8 8 0 0 1-7.954-8.851c2.54-23.74 17.67-43.25 38.352-52.233-6.659-6.627-10.788-15.794-10.788-25.908 0-20.164 16.405-36.568 36.569-36.568s36.568 16.404 36.568 36.568c0 10.151-4.16 19.345-10.861 25.978 11.509 5.038 21.445 13.366 28.383 23.992a74.9 74.9 0 0 1 28.038-19.601c-8.587-7.676-14.004-18.827-14.004-31.224 0-23.096 18.79-41.886 41.886-41.886s41.886 18.79 41.886 41.886c0 12.397-5.418 23.548-14.005 31.224a74.897 74.897 0 0 1 28.037 19.601c6.938-10.626 16.875-18.955 28.384-23.992-6.701-6.632-10.86-15.827-10.86-25.977 0-20.164 16.404-36.568 36.568-36.568s36.568 16.404 36.568 36.568c0 10.114-4.129 19.282-10.788 25.908 20.681 8.983 35.811 28.493 38.352 52.232zm-64.14-57.572h.014c11.338-.004 20.562-9.229 20.562-20.569 0-11.341-9.227-20.568-20.568-20.568s-20.568 9.227-20.568 20.568c-.001 11.34 9.222 20.565 20.56 20.569zm-110.014 4.463h.02c14.269-.005 25.876-11.616 25.876-25.886 0-14.274-11.612-25.886-25.886-25.886s-25.886 11.612-25.886 25.886c0 14.27 11.607 25.881 25.876 25.886zm-110.007-4.463h.014c11.338-.004 20.561-9.229 20.561-20.568 0-11.341-9.227-20.568-20.568-20.568-11.342 0-20.569 9.227-20.569 20.568 0 11.339 9.223 20.564 20.562 20.568zm40.813 50.423a74.55 74.55 0 0 1 3.112-6.528c-7.921-16.823-25.121-27.892-43.908-27.896h-.022c-21.774.005-40.383 14.29-46.43 34.424zm126.256 13.85c-6.728-25.508-29.858-43.804-57.041-43.809H255.99c-27.184.005-50.314 18.302-57.042 43.81zm99.399-13.85c-6.046-20.134-24.656-34.419-46.429-34.424H366c-18.788.004-35.987 11.072-43.909 27.896a74.55 74.55 0 0 1 3.112 6.528z" fill="#FFFFFF" opacity="1" data-original="#000000" class=""></path></g></svg>