<svg xmlns="http://www.w3.org/2000/svg" version="1.1" xmlns:xlink="http://www.w3.org/1999/xlink" width="512" height="512" x="0" y="0" viewBox="0 0 64 64" style="enable-background:new 0 0 512 512" xml:space="preserve" class=""><g><path d="m30 56.586-1.293-1.293-1.414 1.414L30 59.414l6.707-6.707-1.414-1.414zM36.707 6.707l-1.414-1.414L30 10.586l-1.293-1.293-1.414 1.414L30 13.414zM54 29c2.757 0 5-2.243 5-5s-2.243-5-5-5-5 2.243-5 5 2.243 5 5 5zm0-8c1.654 0 3 1.346 3 3s-1.346 3-3 3-3-1.346-3-3 1.346-3 3-3z" fill="#FFFFFF" opacity="1" data-original="#000000" class=""></path><path d="m58.667 33.698 3.124-5.355A8.885 8.885 0 0 0 63 23.872C63 18.98 59.02 15 54.128 15h-.256C48.98 15 45 18.98 45 23.872c0 1.569.418 3.114 1.208 4.47L47.759 31H38c-1.654 0-3 1.346-3 3v13.589a7.965 7.965 0 0 0-2-.52V16.931c3.94-.495 7-3.859 7-7.931 0-4.411-3.589-8-8-8s-8 3.589-8 8a7.984 7.984 0 0 0 3 6.235V41c0 .552-.449 1-1 1h-1v-1.728a5.016 5.016 0 0 0-4.01-4.901l-3.539-.71a2 2 0 0 1-1.171-.918A5.008 5.008 0 0 0 17.576 32H18c1.654 0 3-1.346 3-3 0-.828-.338-1.579-.882-2.123C21.256 25.96 22 24.572 22 23c0-2.757-2.243-5-5-5a4.95 4.95 0 0 0-3.055 1.071 5.543 5.543 0 0 0-.834-.071H9.56A5.566 5.566 0 0 0 4 24.56a5.59 5.59 0 0 0 1.189 3.425A2.95 2.95 0 0 0 5 29c0 1.654 1.346 3 3 3h.424a5.005 5.005 0 0 0 1.297 1.744c-.252.436-.649.768-1.094.897l-3.617.73A5.017 5.017 0 0 0 1 40.272V46h24v-2h1c1.654 0 3-1.346 3-3V16.411a7.965 7.965 0 0 0 2 .52V47.07c-3.94.495-7 3.859-7 7.931 0 4.411 3.589 8 8 8s8-3.589 8-8a7.984 7.984 0 0 0-3-6.235V34c0-.552.449-1 1-1h10.926l.407.698C46.63 34.572 45 36.156 45 38c0 2.851 3.869 5 9 5s9-2.149 9-5c0-1.844-1.63-3.428-4.333-4.302zM10 30v-2c0-.486.349-.893.809-.982 1.38.643 2.905.982 4.427.982H16v2c0 1.654-1.346 3-3 3s-3-1.346-3-3zm8 0v-2c.551 0 1 .449 1 1s-.449 1-1 1zM7 29c0-.551.449-1 1-1v2c-.551 0-1-.449-1-1zm1.78-3H8c-.536 0-1.033.153-1.47.401A3.577 3.577 0 0 1 6 24.56 3.564 3.564 0 0 1 9.56 21h2.864A4.95 4.95 0 0 0 12 23h2c0-1.654 1.346-3 3-3s3 1.346 3 3-1.346 3-3 3h-1.764a8.509 8.509 0 0 1-3.789-.895L11.236 25H11c-.883 0-1.67.391-2.22 1zM13 35c.541 0 1.052-.108 1.541-.268.123.211.267.408.426.593A1.997 1.997 0 0 1 13 37c-.99 0-1.808-.724-1.966-1.669.159-.186.304-.385.427-.599.487.16.998.268 1.539.268zm10 9H3v-3.728a3.008 3.008 0 0 1 2.406-2.94l3.694-.749c.069-.02.134-.049.201-.073A4 4 0 0 0 13 39a3.996 3.996 0 0 0 3.698-2.497c.093.034.183.072.28.1l3.616.729A3.01 3.01 0 0 1 23 40.272zm3-35c0-3.309 2.691-6 6-6s6 2.691 6 6-2.691 6-6 6-6-2.691-6-6zm12 46c0 3.309-2.691 6-6 6s-6-2.691-6-6 2.691-6 6-6 6 2.691 6 6zm15.872-38h.256A6.88 6.88 0 0 1 61 23.872a6.883 6.883 0 0 1-.936 3.462l-5.424 9.297c-.265.455-1.016.455-1.28 0l-5.424-9.297A6.883 6.883 0 0 1 47 23.872 6.88 6.88 0 0 1 53.872 17zM54 41c-4.006 0-7-1.584-7-3 0-.953 1.384-1.962 3.371-2.523l1.262 2.163C52.122 38.479 53.029 39 54 39s1.878-.521 2.368-1.36l1.262-2.163C59.616 36.038 61 37.047 61 38c0 1.416-2.994 3-7 3z" fill="#FFFFFF" opacity="1" data-original="#000000" class=""></path><path d="M5 48h14v2H5zM5 52h14v2H5zM9 56h2v2H9zM5 56h2v2H5zM13 56h2v2h-2zM17 56h2v2h-2z" fill="#FFFFFF" opacity="1" data-original="#000000" class=""></path></g></svg>