<svg xmlns="http://www.w3.org/2000/svg" version="1.1" xmlns:xlink="http://www.w3.org/1999/xlink" width="512" height="512" x="0" y="0" viewBox="0 0 66 66" style="enable-background:new 0 0 512 512" xml:space="preserve"><g><path d="M58.08 10.05c1.31 0 2.37-1.06 2.37-2.37s-1.06-2.37-2.37-2.37-2.37 1.06-2.37 2.37 1.07 2.37 2.37 2.37zm0-3.05c.38 0 .69.31.69.69s-.31.69-.69.69c-.39 0-.69-.3-.69-.69s.31-.69.69-.69z" fill="#FFFFFF" opacity="1" data-original="#FFFFFF"></path><path d="M60.71 1.48H11.99c-1.85 0-3.36 1.51-3.36 3.36v5.13H5.29c-1.85 0-3.36 1.51-3.36 3.36v42.13c0 1.85 1.51 3.36 3.36 3.36h22.33v4.86c0 .46.38.84.84.84h15.78c.46 0 .84-.38.84-.84v-4.86h8.93c1.85 0 3.36-1.51 3.36-3.36v-5.13h3.34c1.85 0 3.36-1.51 3.36-3.36V4.84c0-1.85-1.51-3.36-3.36-3.36zm-50.4 3.36c0-.93.76-1.68 1.68-1.68h48.72c.93 0 1.68.76 1.68 1.68v7.37H30.51l-3.75-3.89c-.29-.3-.69-.47-1.1-.47H17.4c-.84 0-1.53.69-1.53 1.53v2.83h-5.56zM5.29 57.15c-.93 0-1.68-.76-1.68-1.68V13.33c0-.93.76-1.68 1.68-1.68h3.34v35.33c0 1.85 1.51 3.36 3.36 3.36h18.24c.33.64.48 1.36.42 2.1h-1.3c-.96 0-1.73.78-1.73 1.73v2.98zm30.23-17.59c.17-.3.48-.49.83-.49.52 0 .94.42.94.94 0 .34-.18.65-.47.82-.32.19-.7.17-1.09-.05a.278.278 0 0 1-.12-.12c-.32-.51-.19-.91-.09-1.1zm-.01-2.01a2.6 2.6 0 0 0-1.45 1.2c-.48.86-.42 1.91.14 2.81.18.28.42.51.71.68.46.26.96.4 1.45.4.46 0 .91-.12 1.31-.35.8-.47 1.3-1.34 1.3-2.27 0-1.15-.75-2.12-1.78-2.47v-4.32l7.43 13.41c-.01.01-.02.03-.05.04-2.63.68-4.35 3.14-4.21 5.76h-8.01c.15-2.63-1.58-5.09-4.26-5.84l7.42-13.37zm7.89 25.29H29.3l.05-8.73h14c.03 0 .05.02.05.05zm12.29-7.38c0 .93-.76 1.68-1.68 1.68h-8.93v-2.98c0-.96-.78-1.73-1.73-1.73h-1.3c-.06-.74.1-1.46.42-2.1h13.22zm5.02-6.8H44.1c.27-.15.56-.28.88-.36.53-.14.96-.51 1.18-1.01.21-.49.18-1.04-.08-1.51l-8.6-15.49c-.22-.41-.65-.67-1.12-.67-.48.01-.91.25-1.14.66l-8.61 15.5c-.26.47-.28 1.03-.07 1.52.21.5.64.86 1.17 1 .32.08.6.21.88.36h-16.6c-.93 0-1.68-.76-1.68-1.68V13.89h5.7c.84 0 1.53-.69 1.53-1.53V9.53h8.05l3.75 3.89c.29.3.69.47 1.1.47h31.95v33.08c0 .93-.75 1.69-1.68 1.69z" fill="#FFFFFF" opacity="1" data-original="#FFFFFF"></path><path d="M52.36 10.05c1.31 0 2.37-1.06 2.37-2.37s-1.06-2.37-2.37-2.37-2.37 1.06-2.37 2.37 1.06 2.37 2.37 2.37zm0-3.05c.38 0 .69.31.69.69s-.31.69-.69.69c-.39 0-.69-.3-.69-.69s.31-.69.69-.69zM46.63 10.05c1.31 0 2.37-1.06 2.37-2.37s-1.06-2.37-2.37-2.37-2.37 1.06-2.37 2.37 1.06 2.37 2.37 2.37zm0-3.05c.38 0 .69.31.69.69s-.31.69-.69.69c-.39 0-.69-.3-.69-.69s.31-.69.69-.69zM52.54 21.21c-.49.49-.8 1.11-.92 1.77H39.87v-1.32c0-.9-.73-1.63-1.63-1.63h-3.79c-.9 0-1.63.73-1.63 1.63v1.32H21.08c-.11-.65-.42-1.27-.92-1.78-1.27-1.25-3.44-1.23-4.68.01-.63.63-.97 1.46-.97 2.34 0 .89.35 1.73.97 2.34.63.65 1.47.98 2.34.98.55 0 1.11-.13 1.64-.4a2.95 2.95 0 0 0 1.32-1.36c.07-.15.13-.3.18-.45h8.15c-4.43 2.16-7.77 6.22-8.93 11.12h-1.3c-.9 0-1.63.73-1.63 1.63v3.79c0 .9.73 1.63 1.63 1.63h3.79c.9 0 1.63-.73 1.63-1.63v-3.79c0-.9-.73-1.63-1.63-1.63h-.76c1.4-5.28 5.63-9.42 10.94-10.7v.36c0 .9.73 1.63 1.63 1.63h3.79c.9 0 1.63-.73 1.63-1.63v-.36c5.3 1.28 9.53 5.42 10.94 10.7h-.69c-.9 0-1.63.73-1.63 1.63v3.79c0 .9.73 1.63 1.63 1.63h3.79c.9 0 1.63-.73 1.63-1.63v-3.79c0-.9-.73-1.63-1.63-1.63h-1.37c-1.17-4.9-4.51-8.97-8.93-11.12h8.17c.16.46.42.88.77 1.23.63.65 1.47.98 2.34.98.55 0 1.11-.13 1.64-.4a2.95 2.95 0 0 0 1.32-1.36c.65-1.37.42-2.86-.61-3.91-1.31-1.24-3.48-1.23-4.73.01zM19.25 24.4c-.12.24-.32.45-.56.57-.87.44-1.62.16-2.03-.27-.31-.3-.48-.71-.48-1.15 0-.43.17-.84.48-1.16.31-.31.72-.48 1.16-.48.43 0 .85.17 1.15.47.52.54.62 1.29.28 2.02zm3.4 16.75-3.74.05-.05-3.74h3.74zm31.26 0-3.74.05-.05-3.74h3.74zm-19.4-15.7-.02-1.26c.02-.09.02-.18.01-.28v-.01c0-.03.02-.05.02-.08 0-.05-.02-.09-.03-.13l-.03-1.97h3.74l.03 1.97c-.01.05-.03.09-.03.14 0 .03.01.05.02.08v.01c-.02.13-.01.25.02.36l.02 1.13zm21.81-1.05c-.12.24-.32.45-.56.57-.87.44-1.62.16-2.03-.27-.31-.3-.48-.71-.48-1.15 0-.43.17-.84.48-1.16.31-.31.72-.48 1.16-.48.43 0 .85.17 1.15.47.52.54.62 1.29.28 2.02z" fill="#FFFFFF" opacity="1" data-original="#FFFFFF"></path></g></svg>