<svg width="1491" height="792" viewBox="0 0 1491 792" fill="none" xmlns="http://www.w3.org/2000/svg">
<g opacity="0.31">
<path opacity="0.09" d="M193.714 319.292L193.717 308.445L234.611 308.449L234.615 349.282L223.764 349.281L223.761 321.361C223.761 320.217 222.838 319.294 221.694 319.294L193.714 319.292Z" fill="white" stroke="white" stroke-width="2"/>
<path opacity="0.09" d="M939.18 319.292L939.183 308.445L980.077 308.449L980.081 349.282L969.229 349.281L969.227 321.361C969.227 320.217 968.304 319.294 967.16 319.294L939.18 319.292Z" fill="white" stroke="white" stroke-width="2"/>
<path opacity="0.09" d="M193.714 676.401L193.717 665.554L234.611 665.558L234.615 706.391L223.764 706.39L223.761 678.471C223.761 677.326 222.838 676.404 221.694 676.404L193.714 676.401Z" fill="white" stroke="white" stroke-width="2"/>
<path opacity="0.09" d="M939.18 676.401L939.183 665.554L980.077 665.558L980.081 706.391L969.229 706.39L969.227 678.471C969.227 677.326 968.304 676.404 967.16 676.404L939.18 676.401Z" fill="white" stroke="white" stroke-width="2"/>
<path opacity="0.09" d="M566.447 319.292L566.45 308.445L607.344 308.449L607.348 349.282L596.497 349.281L596.494 321.361C596.494 320.217 595.571 319.294 594.427 319.294L566.447 319.292Z" fill="white" stroke="white" stroke-width="2"/>
<path opacity="0.09" d="M1311.91 319.292L1311.92 308.445L1352.81 308.449L1352.81 349.282L1341.96 349.281L1341.96 321.361C1341.96 320.217 1341.04 319.294 1339.89 319.294L1311.91 319.292Z" fill="white" stroke="white" stroke-width="2"/>
<path opacity="0.09" d="M566.447 676.401L566.45 665.554L607.344 665.558L607.348 706.391L596.497 706.39L596.494 678.471C596.494 677.326 595.571 676.404 594.427 676.404L566.447 676.401Z" fill="white" stroke="white" stroke-width="2"/>
<path opacity="0.09" d="M1311.91 676.401L1311.92 665.554L1352.81 665.558L1352.81 706.391L1341.96 706.39L1341.96 678.471C1341.96 677.326 1341.04 676.404 1339.89 676.404L1311.91 676.401Z" fill="white" stroke="white" stroke-width="2"/>
<path opacity="0.09" d="M7.34749 137.389L7.35099 126.543L48.2452 126.547L48.2493 167.379L37.3974 167.378L37.3946 139.459C37.3945 138.315 36.4722 137.392 35.3279 137.392L7.34749 137.389Z" fill="white" stroke="white" stroke-width="2"/>
<path opacity="0.09" d="M752.813 137.389L752.817 126.543L793.711 126.547L793.715 167.379L782.863 167.378L782.86 139.459C782.86 138.315 781.938 137.392 780.794 137.392L752.813 137.389Z" fill="white" stroke="white" stroke-width="2"/>
<path opacity="0.09" d="M7.34749 494.499L7.35099 483.652L48.2452 483.656L48.2493 524.489L37.3974 524.488L37.3946 496.568C37.3945 495.424 36.4722 494.502 35.3279 494.502L7.34749 494.499Z" fill="white" stroke="white" stroke-width="2"/>
<path opacity="0.09" d="M752.813 494.499L752.817 483.652L793.711 483.656L793.715 524.489L782.863 524.488L782.86 496.568C782.86 495.424 781.938 494.502 780.794 494.502L752.813 494.499Z" fill="white" stroke="white" stroke-width="2"/>
<path opacity="0.09" d="M313.166 101.009L313.169 90.1623L354.064 90.1663L354.068 130.999L343.216 130.998L343.213 103.079C343.213 101.934 342.291 101.012 341.146 101.012L313.166 101.009Z" fill="white" stroke="white" stroke-width="2"/>
<path opacity="0.09" d="M1125.55 137.389L1125.55 126.543L1166.44 126.547L1166.45 167.379L1155.6 167.378L1155.59 139.459C1155.59 138.315 1154.67 137.392 1153.53 137.392L1125.55 137.389Z" fill="white" stroke="white" stroke-width="2"/>
<path opacity="0.09" d="M380.08 494.499L380.084 483.652L420.978 483.656L420.982 524.489L410.13 524.488L410.128 496.568C410.127 495.424 409.205 494.502 408.061 494.502L380.08 494.499Z" fill="white" stroke="white" stroke-width="2"/>
<path opacity="0.09" d="M1125.55 494.499L1125.55 483.652L1166.44 483.656L1166.45 524.489L1155.6 524.488L1155.59 496.568C1155.59 495.424 1154.67 494.502 1153.53 494.502L1125.55 494.499Z" fill="white" stroke="white" stroke-width="2"/>
<path opacity="0.09" d="M309.737 214.912L309.74 204.065L350.634 204.069L350.638 244.902L339.787 244.901L339.784 216.981C339.784 215.837 338.861 214.914 337.717 214.914L309.737 214.912Z" fill="white" stroke="white" stroke-width="2"/>
<path opacity="0.09" d="M1055.2 214.912L1055.21 204.065L1096.1 204.069L1096.1 244.902L1085.25 244.901L1085.25 216.981C1085.25 215.837 1084.33 214.914 1083.18 214.914L1055.2 214.912Z" fill="white" stroke="white" stroke-width="2"/>
<path opacity="0.09" d="M309.737 572.02L309.74 561.174L350.634 561.178L350.638 602.01L339.787 602.009L339.784 574.09C339.784 572.946 338.861 572.023 337.717 572.023L309.737 572.02Z" fill="white" stroke="white" stroke-width="2"/>
<path opacity="0.09" d="M1055.2 572.02L1055.21 561.174L1096.1 561.178L1096.1 602.01L1085.25 602.009L1085.25 574.09C1085.25 572.946 1084.33 572.023 1083.18 572.023L1055.2 572.02Z" fill="white" stroke="white" stroke-width="2"/>
<path opacity="0.09" d="M682.47 214.912L682.473 204.065L723.367 204.069L723.371 244.902L712.519 244.901L712.517 216.981C712.517 215.837 711.594 214.914 710.45 214.914L682.47 214.912Z" fill="white" stroke="white" stroke-width="2"/>
<path opacity="0.09" d="M1427.94 214.912L1427.94 204.065L1468.83 204.069L1468.84 244.902L1457.99 244.901L1457.98 216.981C1457.98 215.837 1457.06 214.914 1455.92 214.914L1427.94 214.912Z" fill="white" stroke="white" stroke-width="2"/>
<path opacity="0.09" d="M682.47 572.02L682.473 561.174L723.367 561.178L723.371 602.01L712.519 602.009L712.517 574.09C712.517 572.946 711.594 572.023 710.45 572.023L682.47 572.02Z" fill="white" stroke="white" stroke-width="2"/>
<path opacity="0.09" d="M1427.94 572.02L1427.94 561.174L1468.83 561.178L1468.84 602.01L1457.99 602.009L1457.98 574.09C1457.98 572.946 1457.06 572.023 1455.92 572.023L1427.94 572.02Z" fill="white" stroke="white" stroke-width="2"/>
<path opacity="0.09" d="M123.371 33.009L123.374 22.1623L164.268 22.1663L164.272 62.999L153.421 62.9979L153.418 35.0785C153.418 33.9343 152.495 33.0119 151.351 33.0118L123.371 33.009Z" fill="white" stroke="white" stroke-width="2"/>
<path opacity="0.09" d="M868.836 33.009L868.839 22.1623L909.733 22.1663L909.738 62.999L898.886 62.9979L898.883 35.0785C898.883 33.9343 897.96 33.0119 896.816 33.0118L868.836 33.009Z" fill="white" stroke="white" stroke-width="2"/>
<path opacity="0.09" d="M123.371 390.118L123.374 379.272L164.268 379.276L164.272 420.108L153.421 420.107L153.418 392.188C153.418 391.044 152.495 390.121 151.351 390.121L123.371 390.118Z" fill="white" stroke="white" stroke-width="2"/>
<path opacity="0.09" d="M868.836 390.118L868.839 379.272L909.733 379.276L909.738 420.108L898.886 420.107L898.883 392.188C898.883 391.044 897.96 390.121 896.816 390.121L868.836 390.118Z" fill="white" stroke="white" stroke-width="2"/>
<path opacity="0.09" d="M496.103 33.009L496.107 22.1623L537.001 22.1663L537.005 62.999L526.153 62.9979L526.15 35.0785C526.15 33.9343 525.228 33.0119 524.084 33.0118L496.103 33.009Z" fill="white" stroke="white" stroke-width="2"/>
<path opacity="0.09" d="M1241.57 33.009L1241.57 22.1623L1282.47 22.1663L1282.47 62.999L1271.62 62.9979L1271.62 35.0785C1271.62 33.9343 1270.69 33.0119 1269.55 33.0118L1241.57 33.009Z" fill="white" stroke="white" stroke-width="2"/>
<path opacity="0.09" d="M496.103 390.118L496.107 379.272L537.001 379.276L537.005 420.108L526.153 420.107L526.15 392.188C526.15 391.044 525.228 390.121 524.084 390.121L496.103 390.118Z" fill="white" stroke="white" stroke-width="2"/>
<path opacity="0.09" d="M1241.57 390.118L1241.57 379.272L1282.47 379.276L1282.47 420.108L1271.62 420.107L1271.62 392.188C1271.62 391.044 1270.69 390.121 1269.55 390.121L1241.57 390.118Z" fill="white" stroke="white" stroke-width="2"/>
<path opacity="0.09" d="M323.541 340.228L323.543 334.248L348.19 334.25L348.193 358.859L342.209 358.858L342.207 341.893C342.207 340.973 341.465 340.23 340.544 340.23L323.541 340.228Z" fill="white" stroke="white" stroke-width="2"/>
<path opacity="0.09" d="M1069.01 340.228L1069.01 334.248L1093.66 334.25L1093.66 358.859L1087.67 358.858L1087.67 341.893C1087.67 340.973 1086.93 340.23 1086.01 340.23L1069.01 340.228Z" fill="white" stroke="white" stroke-width="2"/>
<path opacity="0.09" d="M323.541 697.337L323.543 691.357L348.19 691.359L348.193 715.968L342.209 715.967L342.207 699.002C342.207 698.082 341.465 697.339 340.544 697.339L323.541 697.337Z" fill="white" stroke="white" stroke-width="2"/>
<path opacity="0.09" d="M1069.01 697.337L1069.01 691.357L1093.66 691.359L1093.66 715.968L1087.67 715.967L1087.67 699.002C1087.67 698.082 1086.93 697.339 1086.01 697.339L1069.01 697.337Z" fill="white" stroke="white" stroke-width="2"/>
<path opacity="0.09" d="M696.275 340.228L696.277 334.248L720.924 334.25L720.926 358.859L714.942 358.858L714.941 341.893C714.94 340.973 714.198 340.23 713.278 340.23L696.275 340.228Z" fill="white" stroke="white" stroke-width="2"/>
<path opacity="0.09" d="M1441.74 340.228L1441.74 334.248L1466.39 334.25L1466.39 358.859L1460.41 358.858L1460.41 341.893C1460.41 340.973 1459.66 340.23 1458.74 340.23L1441.74 340.228Z" fill="white" stroke="white" stroke-width="2"/>
<path opacity="0.09" d="M696.275 697.337L696.277 691.357L720.924 691.359L720.926 715.968L714.942 715.967L714.941 699.002C714.94 698.082 714.198 697.339 713.278 697.339L696.275 697.337Z" fill="white" stroke="white" stroke-width="2"/>
<path opacity="0.09" d="M1441.74 697.337L1441.74 691.357L1466.39 691.359L1466.39 715.968L1460.41 715.967L1460.41 699.002C1460.41 698.082 1459.66 697.339 1458.74 697.339L1441.74 697.337Z" fill="white" stroke="white" stroke-width="2"/>
<path opacity="0.09" d="M137.175 158.326L137.177 152.345L161.824 152.347L161.826 176.956L155.843 176.955L155.841 159.99C155.841 159.07 155.098 158.327 154.178 158.327L137.175 158.326Z" fill="white" stroke="white" stroke-width="2"/>
<path opacity="0.09" d="M882.641 158.326L882.643 152.345L907.29 152.347L907.292 176.956L901.308 176.955L901.307 159.99C901.307 159.07 900.564 158.327 899.644 158.327L882.641 158.326Z" fill="white" stroke="white" stroke-width="2"/>
<path opacity="0.09" d="M137.175 515.435L137.177 509.454L161.824 509.457L161.826 534.065L155.843 534.065L155.841 517.099C155.841 516.179 155.098 515.437 154.178 515.437L137.175 515.435Z" fill="white" stroke="white" stroke-width="2"/>
<path opacity="0.09" d="M882.641 515.435L882.643 509.454L907.29 509.457L907.292 534.065L901.308 534.065L901.307 517.099C901.307 516.179 900.564 515.437 899.644 515.437L882.641 515.435Z" fill="white" stroke="white" stroke-width="2"/>
<path opacity="0.09" d="M509.909 158.326L509.911 152.345L534.557 152.347L534.56 176.956L528.576 176.955L528.574 159.99C528.574 159.07 527.832 158.327 526.912 158.327L509.909 158.326Z" fill="white" stroke="white" stroke-width="2"/>
<path opacity="0.09" d="M1255.37 158.326L1255.38 152.345L1280.02 152.347L1280.03 176.956L1274.04 176.955L1274.04 159.99C1274.04 159.07 1273.3 158.327 1272.38 158.327L1255.37 158.326Z" fill="white" stroke="white" stroke-width="2"/>
<path opacity="0.09" d="M509.909 515.435L509.911 509.454L534.557 509.457L534.56 534.065L528.576 534.065L528.574 517.099C528.574 516.179 527.832 515.437 526.912 515.437L509.909 515.435Z" fill="white" stroke="white" stroke-width="2"/>
<path opacity="0.09" d="M1255.37 515.435L1255.38 509.454L1280.02 509.457L1280.03 534.065L1274.04 534.065L1274.04 517.099C1274.04 516.179 1273.3 515.437 1272.38 515.437L1255.37 515.435Z" fill="white" stroke="white" stroke-width="2"/>
<path opacity="0.09" d="M102.189 753.848L102.192 743.001L143.086 743.005L143.09 783.838L132.238 783.837L132.236 755.918C132.236 754.773 131.313 753.851 130.169 753.851L102.189 753.848Z" fill="white" stroke="white" stroke-width="2"/>
<path opacity="0.09" d="M847.654 753.848L847.658 743.001L888.552 743.005L888.556 783.838L877.704 783.837L877.701 755.918C877.701 754.773 876.779 753.851 875.635 753.851L847.654 753.848Z" fill="white" stroke="white" stroke-width="2"/>
<path opacity="0.09" d="M474.921 753.848L474.925 743.001L515.819 743.005L515.823 783.838L504.971 783.837L504.968 755.918C504.968 754.773 504.046 753.851 502.902 753.851L474.921 753.848Z" fill="white" stroke="white" stroke-width="2"/>
<path opacity="0.09" d="M1220.39 753.848L1220.39 743.001L1261.28 743.005L1261.29 783.838L1250.44 783.837L1250.43 755.918C1250.43 754.773 1249.51 753.851 1248.37 753.851L1220.39 753.848Z" fill="white" stroke="white" stroke-width="2"/>
</g>
</svg>
