<svg width="168" height="260" viewBox="0 0 168 260" fill="none" xmlns="http://www.w3.org/2000/svg">
<path d="M38.4014 1.52516C38.5234 1.54429 38.6441 1.57154 38.7498 1.5993L166.356 129.624C166.548 129.818 166.548 130.179 166.356 130.372L38.6734 258.474C38.661 258.486 38.6395 258.5 38.5988 258.5C38.5599 258.5 38.5184 258.487 38.482 258.455C38.4795 258.453 38.4772 258.451 38.4748 258.448L1.71431 221.566C1.70165 221.554 1.68626 221.53 1.68626 221.485C1.68626 221.442 1.70119 221.397 1.73345 221.36L88.5121 134.296C90.8961 131.904 90.8961 128.061 88.5121 125.669L1.52805 38.3991C1.51539 38.3864 1.5 38.3625 1.5 38.3173C1.5 38.2743 1.51488 38.2303 1.54705 38.1931L38.1505 1.50031C38.2132 1.50187 38.2971 1.5088 38.4014 1.52516ZM38.3147 1.33577C38.3142 1.33629 38.3136 1.33682 38.3131 1.33734L38.3142 1.33622L38.3147 1.33577ZM38.0426 1.50459C38.0377 1.50575 38.035 1.50615 38.0349 1.50606C38.0348 1.50597 38.0372 1.50539 38.0426 1.50459Z" stroke="#EE3328" stroke-width="3"/>
</svg>
